<svg width="31" height="31" viewBox="0 0 31 31" fill="none" xmlns="http://www.w3.org/2000/svg">
<path fill-rule="evenodd" clip-rule="evenodd" d="M15.5 0C19.6109 0 23.5533 1.63303 26.4602 4.53984C29.367 7.44666 31 11.3891 31 15.5C31 19.6109 29.367 23.5533 26.4602 26.4602C23.5533 29.367 19.6109 31 15.5 31C11.3891 31 7.44666 29.367 4.53984 26.4602C1.63303 23.5533 0 19.6109 0 15.5C0 11.3891 1.63303 7.44666 4.53984 4.53984C7.44666 1.63303 11.3891 0 15.5 0ZM20.6266 14.8141C20.8085 14.6322 21.0552 14.53 21.3125 14.53C21.5698 14.53 21.8165 14.6322 21.9984 14.8141C22.1803 14.996 22.2825 15.2427 22.2825 15.5C22.2825 15.7573 22.1803 16.004 21.9984 16.1859L16.1859 21.9984C16.0959 22.0886 15.989 22.1602 15.8713 22.209C15.7536 22.2578 15.6274 22.283 15.5 22.283C15.3726 22.283 15.2464 22.2578 15.1287 22.209C15.011 22.1602 14.9041 22.0886 14.8141 21.9984L9.00163 16.1859C8.91155 16.0958 8.84011 15.9889 8.79136 15.8712C8.74261 15.7535 8.71753 15.6274 8.71753 15.5C8.71753 15.3726 8.74261 15.2465 8.79136 15.1288C8.84011 15.0111 8.91155 14.9042 9.00163 14.8141C9.09169 14.7241 9.19862 14.6526 9.31631 14.6039C9.43399 14.5551 9.56012 14.53 9.6875 14.53C9.81488 14.53 9.94101 14.5551 10.0587 14.6039C10.1764 14.6526 10.2833 14.7241 10.3734 14.8141L14.5312 18.9739L14.5313 9.6875C14.5313 9.43057 14.6333 9.18417 14.815 9.00249C14.9967 8.82081 15.2431 8.71875 15.5 8.71875C15.7569 8.71875 16.0033 8.82081 16.185 9.00249C16.3667 9.18417 16.4688 9.43057 16.4688 9.6875V18.9739L20.6266 14.8141Z" fill="#C4C4C4"/>
</svg>
