<svg width="31" height="31" viewBox="0 0 31 31" fill="none" xmlns="http://www.w3.org/2000/svg">
<path fill-rule="evenodd" clip-rule="evenodd" d="M0 15.5C0 19.6109 1.63303 23.5533 4.53984 26.4602C7.44666 29.367 11.3891 31 15.5 31C19.6109 31 23.5533 29.367 26.4602 26.4602C29.367 23.5533 31 19.6109 31 15.5C31 11.3891 29.367 7.44666 26.4602 4.53984C23.5533 1.63303 19.6109 0 15.5 0C11.3891 0 7.44666 1.63303 4.53984 4.53984C1.63303 7.44666 0 11.3891 0 15.5ZM14.8141 20.6266C14.6322 20.8085 14.53 21.0552 14.53 21.3125C14.53 21.5698 14.6322 21.8165 14.8141 21.9984C14.996 22.1803 15.2427 22.2825 15.5 22.2825C15.7573 22.2825 16.004 22.1803 16.1859 21.9984L21.9984 16.1859C22.0886 16.0959 22.1602 15.989 22.209 15.8713C22.2578 15.7536 22.283 15.6274 22.283 15.5C22.283 15.3726 22.2578 15.2464 22.209 15.1287C22.1602 15.011 22.0886 14.9041 21.9984 14.8141L16.1859 9.00163C16.0958 8.91155 15.9889 8.84011 15.8712 8.79136C15.7535 8.74261 15.6274 8.71753 15.5 8.71753C15.3726 8.71753 15.2465 8.74261 15.1288 8.79136C15.0111 8.84011 14.9042 8.91155 14.8141 9.00163C14.7241 9.09169 14.6526 9.19862 14.6039 9.31631C14.5551 9.43399 14.53 9.56012 14.53 9.6875C14.53 9.81488 14.5551 9.94101 14.6039 10.0587C14.6526 10.1764 14.7241 10.2833 14.8141 10.3734L18.9739 14.5312H9.6875C9.43057 14.5312 9.18417 14.6333 9.00249 14.815C8.82081 14.9967 8.71875 15.2431 8.71875 15.5C8.71875 15.7569 8.82081 16.0033 9.00249 16.185C9.18417 16.3667 9.43057 16.4688 9.6875 16.4688H18.9739L14.8141 20.6266Z" fill="#C4C4C4"/>
</svg>
