<svg width="74" height="74" viewBox="0 0 74 74" fill="none" xmlns="http://www.w3.org/2000/svg">
<path d="M72.0771 31.2958C70.5811 29.3288 69.9176 26.8528 70.2298 24.4013C70.7648 20.2002 68.4313 16.1585 64.5257 14.5214C62.2466 13.5661 60.4339 11.7534 59.4786 9.47432C57.8414 5.56868 53.7997 3.23506 49.5988 3.77018C47.1472 4.08242 44.6713 3.41894 42.7042 1.92286C39.3335 -0.640952 34.6665 -0.640952 31.2958 1.92286C29.3289 3.41894 26.8528 4.08242 24.4013 3.77018C20.2002 3.23521 16.1585 5.56868 14.5214 9.47432C13.5661 11.7534 11.7534 13.5661 9.47432 14.5214C5.56868 16.1585 3.23506 20.2004 3.77018 24.4013C4.08242 26.8528 3.41894 29.3288 1.92286 31.2958C-0.640952 34.6665 -0.640952 39.3335 1.92286 42.7042C3.41894 44.6713 4.08242 47.1472 3.77018 49.5988C3.23521 53.7998 5.56868 57.8415 9.47432 59.4786C11.7534 60.4341 13.5661 62.2466 14.5214 64.5257C16.1586 68.4313 20.2004 70.7648 24.4013 70.2298C26.8528 69.9176 29.3288 70.5811 31.2958 72.0771C34.6665 74.641 39.3335 74.641 42.7042 72.0771C44.6711 70.5811 47.1472 69.9176 49.5988 70.2298C53.7998 70.7648 57.8415 68.4313 59.4786 64.5257C60.4339 62.2466 62.2466 60.4339 64.5257 59.4786C68.4313 57.8414 70.7648 53.7997 70.2298 49.5988C69.9176 47.1472 70.5811 44.6713 72.0771 42.7042C74.641 39.3334 74.641 34.6665 72.0771 31.2958Z" fill="#36D49B"/>
<path d="M35.4481 67.4084C35.4285 67.4084 35.4088 67.408 35.389 67.4069C33.3282 67.2994 31.2767 66.9824 29.2916 66.4644C28.6949 66.3087 28.3372 65.6988 28.493 65.102C28.6487 64.5053 29.2584 64.1476 29.8553 64.3034C31.6943 64.7831 33.5953 65.0769 35.5053 65.1765C36.1211 65.2087 36.5944 65.7339 36.5623 66.3498C36.5313 66.9459 36.0382 67.4084 35.4481 67.4084ZM41.3827 67.1234C40.8391 67.1234 40.3627 66.7259 40.2797 66.1721C40.1883 65.5623 40.6086 64.9936 41.2185 64.9022C43.1056 64.6193 44.9685 64.1421 46.7556 63.4836C47.3343 63.2703 47.9764 63.5666 48.1896 64.1452C48.4028 64.724 48.1065 65.3659 47.5279 65.5793C45.5984 66.2904 43.587 66.8057 41.5498 67.1111C41.4935 67.1193 41.4378 67.1234 41.3827 67.1234ZM24.0041 64.4209C23.8376 64.4209 23.6689 64.3835 23.5096 64.3047C21.6678 63.393 19.9101 62.2881 18.2852 61.0206C17.7989 60.6412 17.7123 59.9394 18.0917 59.4531C18.4709 58.967 19.1726 58.8802 19.6589 59.2596C21.1648 60.4344 22.7937 61.4585 24.5004 62.3031C25.0531 62.5767 25.2794 63.2465 25.0059 63.7994C24.8111 64.1927 24.4154 64.4209 24.0041 64.4209ZM52.4819 63.0352C52.1089 63.0352 51.7444 62.8485 51.5328 62.5086C51.2069 61.9851 51.367 61.2963 51.8906 60.9704C53.5079 59.9634 55.0301 58.7867 56.4151 57.4729C56.8625 57.0484 57.5693 57.067 57.9938 57.5144C58.4183 57.9618 58.3997 58.6686 57.9523 59.0931C56.4583 60.5104 54.8161 61.7799 53.0711 62.8662C52.8873 62.9807 52.6833 63.0352 52.4819 63.0352ZM14.678 57.1465C14.3625 57.1465 14.0489 57.0135 13.8281 56.7546C12.4909 55.1875 11.3097 53.4806 10.3176 51.681C10.0198 51.141 10.2162 50.4617 10.7564 50.1639C11.2966 49.8662 11.9755 50.0627 12.2735 50.6027C13.1929 52.2703 14.2876 53.8523 15.5271 55.3048C15.9275 55.774 15.8717 56.4788 15.4026 56.8792C15.192 57.0586 14.9344 57.1465 14.678 57.1465ZM61.0612 54.8949C60.8404 54.8949 60.6175 54.8297 60.4226 54.6936C59.9169 54.3404 59.7933 53.6442 60.1465 53.1387C61.2403 51.5731 62.1764 49.8924 62.9291 48.1435C63.1729 47.5769 63.8299 47.3154 64.3963 47.5592C64.9628 47.8029 65.2244 48.4599 64.9805 49.0264C64.168 50.9142 63.1576 52.7282 61.9773 54.4178C61.7605 54.7284 61.4136 54.8949 61.0612 54.8949ZM8.96982 46.7887C8.49291 46.7887 8.05144 46.4807 7.90329 46.0015C7.29685 44.039 6.88918 42.0034 6.69174 39.9508C6.63263 39.337 7.08244 38.7914 7.69633 38.7323C8.31052 38.6733 8.85577 39.1231 8.91488 39.7369C9.09787 41.6384 9.47547 43.5242 10.0371 45.3419C10.2192 45.931 9.88909 46.5564 9.29992 46.7385C9.19019 46.7724 9.07911 46.7887 8.96982 46.7887ZM65.7364 44.0301C65.6621 44.0301 65.587 44.0227 65.5113 44.0072C64.9071 43.8834 64.5176 43.2934 64.6412 42.6892C65.0218 40.8299 65.2149 38.9157 65.2149 36.9999C65.2149 35.1672 65.0381 33.3343 64.6896 31.5519C64.5712 30.9466 64.9658 30.36 65.5712 30.2416C66.176 30.1234 66.7631 30.518 66.8814 31.1232C67.2575 33.0465 67.4483 35.0236 67.4483 36.9999C67.4483 39.0658 67.24 41.1307 66.8293 43.1372C66.7211 43.6658 66.2558 44.0301 65.7364 44.0301ZM7.83048 35.0172C7.79147 35.0172 7.75217 35.0152 7.71256 35.011C7.09912 34.9467 6.65422 34.3971 6.71854 33.7838C6.93384 31.7335 7.35938 29.7013 7.9834 27.7435C8.17071 27.1558 8.79889 26.8315 9.38658 27.0187C9.97411 27.206 10.2987 27.8341 10.1114 28.4217C9.53339 30.2349 9.13926 32.1174 8.93975 34.017C8.87944 34.5908 8.39479 35.0172 7.83048 35.0172ZM64.0559 26.7682C63.6196 26.7682 63.2052 26.5109 63.0258 26.0836C62.2888 24.3286 61.3677 22.6403 60.2881 21.0654C59.9394 20.5568 60.0691 19.8616 60.5777 19.5129C61.0863 19.164 61.7814 19.2939 62.1302 19.8025C63.2953 21.502 64.2895 23.3243 65.085 25.2188C65.3239 25.7874 65.0564 26.442 64.4878 26.6808C64.3465 26.7401 64.1999 26.7682 64.0559 26.7682ZM11.4199 23.7495C11.2344 23.7495 11.0463 23.7032 10.8731 23.6057C10.3358 23.3031 10.1453 22.6223 10.4479 22.0847C11.4561 20.2938 12.6523 18.5971 14.0033 17.0416C14.4079 16.576 15.1132 16.5264 15.5786 16.9308C16.0442 17.3352 16.0938 18.0405 15.6894 18.5061C14.4371 19.9478 13.3284 21.5204 12.3941 23.1803C12.1891 23.5447 11.8101 23.7495 11.4199 23.7495ZM57.3704 17.0122C57.0912 17.0122 56.8117 16.9081 56.5949 16.6989C55.2212 15.3729 53.7092 14.1826 52.1007 13.1615C51.58 12.831 51.4259 12.1409 51.7565 11.6202C52.0869 11.0996 52.7769 10.9454 53.2978 11.2759C55.0332 12.3777 56.6645 13.6617 58.1461 15.0921C58.5898 15.5205 58.6023 16.2274 58.174 16.6711C57.9548 16.898 57.6628 17.0122 57.3704 17.0122ZM19.1776 14.8183C18.8419 14.8183 18.5102 14.6676 18.2903 14.3807C17.9152 13.8911 18.008 13.1901 18.4977 12.815C20.1332 11.562 21.9004 10.4728 23.7498 9.57749C24.305 9.30889 24.9727 9.54101 25.2416 10.0961C25.5102 10.6512 25.278 11.3191 24.723 11.5877C23.0093 12.4172 21.3718 13.4266 19.8561 14.5878C19.6533 14.7432 19.4144 14.8183 19.1776 14.8183ZM47.3826 10.6756C47.2512 10.6756 47.1175 10.6522 46.9874 10.6029C45.2057 9.92844 43.3469 9.4347 41.4627 9.13528C40.8536 9.0385 40.4383 8.4663 40.5351 7.85717C40.6319 7.24804 41.2042 6.83278 41.8132 6.92956C43.8477 7.25281 45.8546 7.78585 47.7783 8.51424C48.3551 8.73267 48.6458 9.37723 48.4274 9.95405C48.2581 10.4006 47.8334 10.6756 47.3826 10.6756ZM29.8216 9.66921C29.3219 9.66921 28.8668 9.33137 28.7394 8.82453C28.589 8.22643 28.9519 7.61968 29.55 7.46915C31.539 6.96887 33.593 6.66974 35.6551 6.58025C36.2722 6.55405 36.7925 7.03125 36.8191 7.64738C36.8459 8.2635 36.3681 8.78478 35.752 8.81158C33.8408 8.89466 31.9372 9.17176 30.0945 9.63526C30.0033 9.65819 29.9118 9.66921 29.8216 9.66921Z" fill="white"/>
<path d="M23.4719 33.5858C27.5419 33.5858 30.8413 30.2864 30.8413 26.2164C30.8413 22.1465 27.5419 18.8471 23.4719 18.8471C19.4019 18.8471 16.1025 22.1465 16.1025 26.2164C16.1025 30.2864 19.4019 33.5858 23.4719 33.5858Z" fill="#F9A357"/>
<path d="M23.4705 29.3715C25.213 29.3715 26.6256 27.9589 26.6256 26.2164C26.6256 24.4739 25.213 23.0613 23.4705 23.0613C21.728 23.0613 20.3154 24.4739 20.3154 26.2164C20.3154 27.9589 21.728 29.3715 23.4705 29.3715Z" fill="#FDE475"/>
<path d="M50.5285 33.5858C54.5985 33.5858 57.8979 30.2864 57.8979 26.2164C57.8979 22.1465 54.5985 18.8471 50.5285 18.8471C46.4586 18.8471 43.1592 22.1465 43.1592 26.2164C43.1592 30.2864 46.4586 33.5858 50.5285 33.5858Z" fill="#F9A357"/>
<path d="M50.5281 29.3715C52.2706 29.3715 53.6832 27.9589 53.6832 26.2164C53.6832 24.4739 52.2706 23.0613 50.5281 23.0613C48.7856 23.0613 47.373 24.4739 47.373 26.2164C47.373 27.9589 48.7856 29.3715 50.5281 29.3715Z" fill="#FDE475"/>
<path d="M36.9993 60.513C47.5329 60.513 56.0719 51.9739 56.0719 41.4404C56.0719 30.9069 47.5329 22.3678 36.9993 22.3678C26.4658 22.3678 17.9268 30.9069 17.9268 41.4404C17.9268 51.9739 26.4658 60.513 36.9993 60.513Z" fill="#FDB058"/>
<path d="M22.3936 41.4405C22.3936 31.6628 29.7518 23.6048 39.2328 22.4988C38.5001 22.4134 37.755 22.368 36.9993 22.368C26.4658 22.368 17.9268 30.907 17.9268 41.4405C17.9268 51.9741 26.4658 60.513 36.9993 60.513C37.755 60.513 38.5001 60.4676 39.2328 60.3821C29.7519 59.2761 22.3936 51.2183 22.3936 41.4405Z" fill="#F9A357"/>
<path d="M38.8877 36.9955H35.1119C34.1252 36.9955 33.849 38.3468 34.7551 38.7372C35.6184 39.1092 35.9851 39.3167 36.9997 39.3167C38.0143 39.3167 38.381 39.1092 39.2443 38.7372C40.1506 38.347 39.8744 36.9955 38.8877 36.9955Z" fill="#3A3C4C"/>
<path d="M34.6855 42.5945V46.0698C34.6855 46.4881 35.0246 46.8271 35.4428 46.8271H38.5575C38.9758 46.8271 39.3148 46.4881 39.3148 46.0698V42.5945L37.0003 42.0824L34.6855 42.5945Z" fill="#EAEAEC"/>
<path d="M26.5396 39.1346C27.1563 39.1346 27.6563 38.6346 27.6563 38.0179V36.1249C27.6563 35.508 27.1563 35.0082 26.5396 35.0082C25.9228 35.0082 25.4229 35.508 25.4229 36.1249V38.0179C25.4229 38.6346 25.9228 39.1346 26.5396 39.1346Z" fill="#3A3C4C"/>
<path d="M47.4605 39.1346C48.0772 39.1346 48.5772 38.6346 48.5772 38.0179V36.1249C48.5772 35.508 48.0772 35.0082 47.4605 35.0082C46.8437 35.0082 46.3438 35.508 46.3438 36.1249V38.0179C46.3438 38.6346 46.8437 39.1346 47.4605 39.1346Z" fill="#3A3C4C"/>
<path d="M42.364 40.7297C41.8996 40.3239 41.1942 40.3711 40.7883 40.8355C40.4314 41.2437 39.8942 41.4778 39.3144 41.4778C38.7346 41.4778 38.1974 41.2437 37.8405 40.8355C37.6314 40.5965 37.3167 40.4547 36.9997 40.4547C36.6815 40.4547 36.3685 40.5957 36.159 40.8355C35.8023 41.2436 35.2651 41.4776 34.6853 41.4776C34.1053 41.4776 33.5683 41.2436 33.2115 40.8355C32.8055 40.3711 32.1 40.3237 31.6358 40.7296C31.1714 41.1355 31.1239 41.8409 31.5299 42.3053C32.3109 43.1989 33.4609 43.7112 34.6853 43.7112C35.5231 43.7112 36.3261 43.471 36.9998 43.0331C37.6736 43.4709 38.4766 43.7112 39.3144 43.7112C40.5388 43.7112 41.6888 43.1989 42.4698 42.3053C42.8756 41.8411 42.8283 41.1356 42.364 40.7297Z" fill="#3A3C4C"/>
<path d="M27.3072 40.6479H24.562C23.9453 40.6479 23.4453 41.1478 23.4453 41.7646C23.4453 42.3813 23.9453 42.8813 24.562 42.8813H27.3072C27.9239 42.8813 28.4239 42.3813 28.4239 41.7646C28.4239 41.1478 27.9239 40.6479 27.3072 40.6479Z" fill="#FD6868"/>
<path d="M49.438 40.6479H46.6929C46.0762 40.6479 45.5762 41.1478 45.5762 41.7646C45.5762 42.3813 46.0762 42.8813 46.6929 42.8813H49.438C50.0548 42.8813 50.5547 42.3813 50.5547 41.7646C50.5547 41.1478 50.0548 40.6479 49.438 40.6479Z" fill="#FD6868"/>
</svg>
