<svg width="50" height="50" viewBox="0 0 50 50" fill="none" xmlns="http://www.w3.org/2000/svg">
<circle cx="25" cy="25" r="25" fill="#FF455D"/>
<path d="M34.2857 18.4545H30.7143V17.1818C30.7143 17.0818 30.6339 17 30.5357 17H29.2857C29.1875 17 29.1071 17.0818 29.1071 17.1818V18.4545H25.8036V17.1818C25.8036 17.0818 25.7232 17 25.625 17H24.375C24.2768 17 24.1964 17.0818 24.1964 17.1818V18.4545H20.8929V17.1818C20.8929 17.0818 20.8125 17 20.7143 17H19.4643C19.3661 17 19.2857 17.0818 19.2857 17.1818V18.4545H15.7143C15.3192 18.4545 15 18.7795 15 19.1818V32.2727C15 32.675 15.3192 33 15.7143 33H34.2857C34.6808 33 35 32.675 35 32.2727V19.1818C35 18.7795 34.6808 18.4545 34.2857 18.4545ZM33.3929 31.3636H16.6071V20.0909H19.2857V21.3636C19.2857 21.4636 19.3661 21.5455 19.4643 21.5455H20.7143C20.8125 21.5455 20.8929 21.4636 20.8929 21.3636V20.0909H24.1964V21.3636C24.1964 21.4636 24.2768 21.5455 24.375 21.5455H25.625C25.7232 21.5455 25.8036 21.4636 25.8036 21.3636V20.0909H29.1071V21.3636C29.1071 21.4636 29.1875 21.5455 29.2857 21.5455H30.5357C30.6339 21.5455 30.7143 21.4636 30.7143 21.3636V20.0909H33.3929V31.3636ZM22.8571 24.6364H18.75C18.6518 24.6364 18.5714 24.7182 18.5714 24.8182V25.9091C18.5714 26.0091 18.6518 26.0909 18.75 26.0909H22.8571C22.9554 26.0909 23.0357 26.0091 23.0357 25.9091V24.8182C23.0357 24.7182 22.9554 24.6364 22.8571 24.6364ZM22.8571 27.7273H18.75C18.6518 27.7273 18.5714 27.8091 18.5714 27.9091V29C18.5714 29.1 18.6518 29.1818 18.75 29.1818H22.8571C22.9554 29.1818 23.0357 29.1 23.0357 29V27.9091C23.0357 27.8091 22.9554 27.7273 22.8571 27.7273ZM29.7366 23.6955L27.4241 26.9614L26.2455 25.3C26.1786 25.2045 26.0714 25.15 25.9576 25.15H24.7321C24.5871 25.15 24.5022 25.3182 24.5871 25.4386L27.1339 29.0341C27.1668 29.0806 27.2101 29.1184 27.2601 29.1445C27.3102 29.1706 27.3656 29.1842 27.4219 29.1842C27.4781 29.1842 27.5336 29.1706 27.5836 29.1445C27.6337 29.1184 27.6769 29.0806 27.7098 29.0341L31.3929 23.8364C31.4777 23.7159 31.3929 23.5477 31.2478 23.5477H30.0223C29.9107 23.5455 29.8036 23.6023 29.7366 23.6955Z" fill="white"/>
</svg>
