<svg width="50" height="50" viewBox="0 0 50 50" fill="none" xmlns="http://www.w3.org/2000/svg">
<mask id="path-1-inside-1" fill="white">
<path d="M50 25C50 38.8072 38.8071 50 25 50C11.1929 50 2.28882e-05 38.8072 2.28882e-05 25C2.28882e-05 11.1929 11.1929 4.57764e-05 25 4.57764e-05C38.8071 4.57764e-05 50 11.1929 50 25ZM6.02452 25C6.02452 35.4799 14.5201 43.9755 25 43.9755C35.4799 43.9755 43.9755 35.4799 43.9755 25C43.9755 14.5202 35.4799 6.02455 25 6.02455C14.5201 6.02455 6.02452 14.5202 6.02452 25Z"/>
</mask>
<path d="M50 25C50 38.8072 38.8071 50 25 50C11.1929 50 2.28882e-05 38.8072 2.28882e-05 25C2.28882e-05 11.1929 11.1929 4.57764e-05 25 4.57764e-05C38.8071 4.57764e-05 50 11.1929 50 25ZM6.02452 25C6.02452 35.4799 14.5201 43.9755 25 43.9755C35.4799 43.9755 43.9755 35.4799 43.9755 25C43.9755 14.5202 35.4799 6.02455 25 6.02455C14.5201 6.02455 6.02452 14.5202 6.02452 25Z" stroke="#C4C4C4" stroke-width="10" mask="url(#path-1-inside-1)"/>
<mask id="path-2-inside-2" fill="white">
<path d="M50 25C50 30.6828 48.0639 36.196 44.5108 40.6311C40.9576 45.0661 35.9995 48.1583 30.4536 49.3979C24.9076 50.6376 19.1048 49.9508 14.0015 47.4507C8.89821 44.9506 4.79894 40.7864 2.37932 35.6445C-0.0402955 30.5025 -0.635872 24.6897 0.690751 19.1639C2.01737 13.6381 5.18703 8.72916 9.67732 5.24613C14.1676 1.7631 19.7106 -0.0861765 25.3927 0.00308412C31.0748 0.0923448 36.5569 2.11481 40.9356 5.73717L37.0954 10.3791C33.7719 7.62968 29.6109 6.09459 25.2981 6.02684C20.9852 5.95909 16.778 7.36273 13.3698 10.0064C9.96156 12.6501 7.55573 16.3761 6.54879 20.5703C5.54186 24.7644 5.99391 29.1765 7.83045 33.0794C9.66699 36.9822 12.7784 40.1429 16.6519 42.0405C20.5255 43.9381 24.9299 44.4594 29.1394 43.5185C33.3489 42.5776 37.1122 40.2306 39.8091 36.8643C42.506 33.498 43.9755 29.3134 43.9755 25L50 25Z"/>
</mask>
<path d="M50 25C50 30.6828 48.0639 36.196 44.5108 40.6311C40.9576 45.0661 35.9995 48.1583 30.4536 49.3979C24.9076 50.6376 19.1048 49.9508 14.0015 47.4507C8.89821 44.9506 4.79894 40.7864 2.37932 35.6445C-0.0402955 30.5025 -0.635872 24.6897 0.690751 19.1639C2.01737 13.6381 5.18703 8.72916 9.67732 5.24613C14.1676 1.7631 19.7106 -0.0861765 25.3927 0.00308412C31.0748 0.0923448 36.5569 2.11481 40.9356 5.73717L37.0954 10.3791C33.7719 7.62968 29.6109 6.09459 25.2981 6.02684C20.9852 5.95909 16.778 7.36273 13.3698 10.0064C9.96156 12.6501 7.55573 16.3761 6.54879 20.5703C5.54186 24.7644 5.99391 29.1765 7.83045 33.0794C9.66699 36.9822 12.7784 40.1429 16.6519 42.0405C20.5255 43.9381 24.9299 44.4594 29.1394 43.5185C33.3489 42.5776 37.1122 40.2306 39.8091 36.8643C42.506 33.498 43.9755 29.3134 43.9755 25L50 25Z" stroke="#FF455D" stroke-width="10" mask="url(#path-2-inside-2)"/>
<path d="M20.62 31V29.074H19.18V27.328H20.62V25.924H19.18V23.692H20.62V18.148H24.724C26.38 18.148 27.586 18.484 28.342 19.156C29.11 19.828 29.494 20.752 29.494 21.928C29.494 22.624 29.338 23.278 29.026 23.89C28.714 24.502 28.192 24.994 27.46 25.366C26.74 25.738 25.756 25.924 24.508 25.924H23.338V27.328H26.11V29.074H23.338V31H20.62ZM23.338 23.692H24.238C25.006 23.692 25.612 23.56 26.056 23.296C26.512 23.032 26.74 22.606 26.74 22.018C26.74 20.926 26.02 20.38 24.58 20.38H23.338V23.692Z" fill="#494949"/>
</svg>
