<svg width="51" height="51" viewBox="0 0 51 51" fill="none" xmlns="http://www.w3.org/2000/svg">
<mask id="path-1-inside-1" fill="white">
<path d="M50.1616 25.1616C50.1616 11.3545 38.9687 0.161621 25.1616 0.161621C11.3545 0.161621 0.161621 11.3545 0.161621 25.1616C0.161621 38.9687 11.3545 50.1616 25.1616 50.1616C38.9687 50.1616 50.1616 38.9687 50.1616 25.1616ZM6.18612 25.1616C6.18612 14.6817 14.6817 6.18612 25.1616 6.18612C35.6415 6.18612 44.1371 14.6817 44.1371 25.1616C44.1371 35.6415 35.6415 44.1371 25.1616 44.1371C14.6817 44.1371 6.18612 35.6415 6.18612 25.1616Z"/>
</mask>
<path d="M50.1616 25.1616C50.1616 11.3545 38.9687 0.161621 25.1616 0.161621C11.3545 0.161621 0.161621 11.3545 0.161621 25.1616C0.161621 38.9687 11.3545 50.1616 25.1616 50.1616C38.9687 50.1616 50.1616 38.9687 50.1616 25.1616ZM6.18612 25.1616C6.18612 14.6817 14.6817 6.18612 25.1616 6.18612C35.6415 6.18612 44.1371 14.6817 44.1371 25.1616C44.1371 35.6415 35.6415 44.1371 25.1616 44.1371C14.6817 44.1371 6.18612 35.6415 6.18612 25.1616Z" stroke="#FF455D" stroke-width="10" mask="url(#path-1-inside-1)"/>
</svg>
