<svg width="27" height="27" viewBox="0 0 27 27" fill="none" xmlns="http://www.w3.org/2000/svg">
<g clip-path="url(#clip0)">
<path fill-rule="evenodd" clip-rule="evenodd" d="M14.3691 1.71956C14.0799 1.69821 13.79 1.68752 13.5 1.6875V0C13.8317 0.000161709 14.1632 0.0125451 14.4939 0.037125L14.3691 1.71956ZM17.7508 2.47894C17.2099 2.2702 16.6543 2.10156 16.0886 1.97438L16.4582 0.327375C17.1045 0.4725 17.7407 0.664875 18.3583 0.9045L17.7508 2.47894ZM20.0627 3.67706C19.8214 3.51616 19.5743 3.36418 19.3219 3.22144L20.1538 1.75331C20.7308 2.08024 21.283 2.44911 21.8059 2.85694L20.7681 4.18838C20.5393 4.00989 20.304 3.8399 20.0627 3.67875V3.67706ZM23.1576 6.69769C22.8238 6.22346 22.4555 5.77449 22.0556 5.35444L23.2774 4.19006C23.733 4.671 24.1549 5.18569 24.5379 5.72569L23.1576 6.69769ZM24.4131 8.97919C24.3023 8.71165 24.1818 8.44823 24.0519 8.18944L25.5589 7.43006C25.8569 8.02252 26.1107 8.63619 26.3183 9.26606L24.7151 9.79425C24.6244 9.51896 24.5237 9.24709 24.4131 8.97919ZM25.3074 13.2098C25.2938 12.6298 25.2374 12.0517 25.1387 11.4801L26.8009 11.1932C26.9139 11.8446 26.9798 12.5061 26.9966 13.1676L25.3091 13.2098H25.3074ZM25.0864 15.8051C25.1421 15.5183 25.1876 15.2331 25.2231 14.9445L26.8988 15.1521C26.8177 15.8104 26.688 16.4619 26.5106 17.1011L24.8839 16.6506C24.9615 16.3721 25.029 16.0903 25.0864 15.8051ZM23.4799 19.8197C23.7904 19.3303 24.0638 18.8173 24.3 18.2874L25.8424 18.9709C25.5724 19.5784 25.2602 20.1623 24.9058 20.7225L23.4799 19.8197ZM21.8531 21.8531C22.059 21.6473 22.2564 21.4346 22.4438 21.2153L23.7229 22.3172C23.5063 22.5683 23.2806 22.8115 23.0462 23.0462L21.8531 21.8531Z" fill="white"/>
<path fill-rule="evenodd" clip-rule="evenodd" d="M13.5004 1.6875C11.5579 1.68764 9.64537 2.16683 7.93228 3.08262C6.21918 3.99841 4.75837 5.32255 3.67924 6.93773C2.6001 8.55292 1.93594 10.4093 1.74559 12.3425C1.55524 14.2756 1.84457 16.2259 2.58796 18.0206C3.33135 19.8152 4.50585 21.3988 6.00743 22.6311C7.50901 23.8635 9.29132 24.7065 11.1965 25.0855C13.1017 25.4645 15.0709 25.3678 16.9298 24.804C18.7887 24.2402 20.4799 23.2266 21.8535 21.8531L23.0466 23.0462C21.4768 24.6169 19.5438 25.7761 17.4188 26.4212C15.2939 27.0662 13.0427 27.1772 10.8646 26.7443C8.68656 26.3114 6.6489 25.3479 4.93219 23.9393C3.21548 22.5306 1.87273 20.7203 1.0229 18.6686C0.173076 16.617 -0.157585 14.3874 0.0602174 12.1775C0.278019 9.96749 1.03756 7.84536 2.27154 5.99909C3.50552 4.15283 5.17584 2.63944 7.13451 1.593C9.09318 0.546573 11.2797 -0.000588486 13.5004 4.74961e-07V1.6875Z" fill="white"/>
<path fill-rule="evenodd" clip-rule="evenodd" d="M12.6562 5.0625C12.88 5.0625 13.0946 5.15139 13.2529 5.30963C13.4111 5.46786 13.5 5.68247 13.5 5.90625V14.6981L18.981 17.8301C19.1697 17.9439 19.3063 18.127 19.3618 18.3402C19.4172 18.5535 19.3871 18.7799 19.2777 18.9712C19.1684 19.1625 18.9886 19.3034 18.7768 19.3639C18.5649 19.4244 18.3378 19.3996 18.144 19.2949L12.2377 15.9199C12.1086 15.8461 12.0013 15.7395 11.9266 15.6109C11.8519 15.4823 11.8125 15.3362 11.8125 15.1875V5.90625C11.8125 5.68247 11.9014 5.46786 12.0596 5.30963C12.2179 5.15139 12.4325 5.0625 12.6562 5.0625Z" fill="white"/>
</g>
<defs>
<clipPath id="clip0">
<rect width="27" height="27" fill="white"/>
</clipPath>
</defs>
</svg>
