<svg width="51" height="51" viewBox="0 0 51 51" fill="none" xmlns="http://www.w3.org/2000/svg">
<g filter="url(#filter0_d)">
<circle cx="25.5" cy="21.5" r="21.5" fill="#FF455D"/>
<g clip-path="url(#clip0)">
<path d="M37.3691 12.2451C37.3231 12.1288 37.2172 12.0469 37.0931 12.0317C36.9693 12.0166 36.8465 12.0705 36.7739 12.1723C36.3428 12.7768 35.777 12.9783 35.1216 13.2117C34.5931 13.3999 34.0466 13.5944 33.456 14.0185C32.6207 14.6181 32.2386 15.4356 32.4292 16.2103L32.4088 16.2364C32.06 15.7304 31.6805 15.2624 31.28 14.8445C29.4062 12.8894 26.788 11.7139 24.0964 11.6197C23.9778 11.6155 23.8573 11.6134 23.7382 11.6134C20.7327 11.6134 17.8559 12.957 15.8457 15.2995C13.8459 17.6299 12.9596 20.6636 13.414 23.6226C13.452 23.8699 13.4995 24.1198 13.5554 24.3655C14.2945 27.6187 16.1823 30.0936 18.7347 31.1551C19.3639 31.4169 19.9986 31.5495 20.6208 31.5495C22.1668 31.5495 23.5171 30.7226 24.3257 29.2809C24.633 28.7323 24.8313 28.165 24.9149 27.5946C24.9641 27.2579 24.9305 26.9215 24.8978 26.5955C24.8642 26.2599 24.8325 25.9428 24.8832 25.6235C24.9997 24.8916 25.5109 24.4546 26.2509 24.4546C26.4614 24.4546 26.6764 24.4893 26.8913 24.5577C26.6398 25.0189 26.4114 25.4593 26.2118 25.8676C25.7888 26.7327 25.4971 27.4492 25.3444 27.9969C25.2502 28.3347 25.0002 29.2323 25.61 29.6555C25.8036 29.7899 26.0491 29.8373 26.3047 29.7898C26.5349 29.747 27.2356 29.6168 29.2267 27.3502C29.761 26.7419 30.3369 26.038 30.9388 25.2576C32.4839 24.7372 33.6863 23.4422 34.0044 21.9541C34.084 21.5821 34.1172 21.184 34.103 20.7704C34.6816 19.8764 35.189 19.0422 35.6996 18.1454C35.7094 18.1281 35.719 18.1097 35.7286 18.0908C36.4697 17.8878 37.108 17.3111 37.4826 16.5046C38.0297 15.3275 37.9893 13.8147 37.3691 12.2451ZM29.0161 17.8189C28.748 18.2445 28.2873 18.4987 27.7835 18.4987C27.5099 18.4987 27.2423 18.4213 27.0097 18.2748C26.6809 18.0677 26.4522 17.7449 26.3661 17.366C26.2801 16.987 26.3465 16.5972 26.5537 16.2683C26.8218 15.8426 27.2826 15.5884 27.7864 15.5884C28.06 15.5884 28.3276 15.6658 28.5601 15.8124C28.889 16.0194 29.1176 16.3422 29.2037 16.7212C29.2897 17.1002 29.2231 17.49 29.0161 17.8189ZM30.9046 20.4551C31.6402 19.3713 32.4181 18.2939 33.157 17.3356C33.2768 17.4438 33.4107 17.5495 33.5558 17.6501C33.7962 17.8169 34.0477 17.9459 34.3045 18.0342C33.6807 19.101 33.0099 20.158 32.1978 21.3542C30.8634 23.3203 29.4759 25.1467 28.2909 26.4968C27.629 27.251 27.0498 27.8332 26.6034 28.1938C26.7757 27.6427 27.1049 26.8864 27.5631 25.9903C28.3825 24.3878 29.5692 22.422 30.9046 20.4551ZM17.9897 20.4457C17.716 20.4457 17.4485 20.3683 17.2158 20.2218C16.887 20.0147 16.6584 19.6921 16.5723 19.313C16.4862 18.934 16.5528 18.5442 16.76 18.2153C17.0279 17.7896 17.4887 17.5355 17.9925 17.5355C18.2662 17.5355 18.5338 17.6129 18.7664 17.7594C19.4452 18.187 19.6497 19.0871 19.2224 19.7658C18.9542 20.1916 18.4934 20.4457 17.9897 20.4457ZM16.4644 23.6497C16.7325 23.2239 17.1932 22.9698 17.697 22.9698C17.9706 22.9698 18.2381 23.0472 18.4709 23.1937C18.7997 23.4008 19.0283 23.7235 19.1144 24.1025C19.2005 24.4814 19.1339 24.8712 18.9266 25.2002C18.6587 25.6258 18.1979 25.88 17.6941 25.88C17.4205 25.88 17.1529 25.8026 16.9202 25.656C16.5913 25.4489 16.3628 25.1262 16.2768 24.7472C16.1908 24.3684 16.2575 23.9785 16.4644 23.6497ZM21.1241 15.0082C21.3922 14.5825 21.853 14.3284 22.3567 14.3284C22.6302 14.3284 22.8978 14.4058 23.1304 14.5523C23.8093 14.9797 24.0138 15.8799 23.5865 16.5587C23.3183 16.9845 22.8576 17.2386 22.3538 17.2386C22.0802 17.2386 21.8126 17.1612 21.58 17.0147C21.2512 16.8077 21.0227 16.485 20.9366 16.1059C20.8504 15.727 20.9171 15.3372 21.1241 15.0082Z" fill="white"/>
</g>
</g>
<defs>
<filter id="filter0_d" x="0" y="0" width="51" height="51" filterUnits="userSpaceOnUse" color-interpolation-filters="sRGB">
<feFlood flood-opacity="0" result="BackgroundImageFix"/>
<feColorMatrix in="SourceAlpha" type="matrix" values="0 0 0 0 0 0 0 0 0 0 0 0 0 0 0 0 0 0 127 0"/>
<feOffset dy="4"/>
<feGaussianBlur stdDeviation="2"/>
<feColorMatrix type="matrix" values="0 0 0 0 0 0 0 0 0 0 0 0 0 0 0 0 0 0 0.25 0"/>
<feBlend mode="normal" in2="BackgroundImageFix" result="effect1_dropShadow"/>
<feBlend mode="normal" in="SourceGraphic" in2="effect1_dropShadow" result="shape"/>
</filter>
<clipPath id="clip0">
<rect width="24.5681" height="24.5681" fill="white" transform="translate(13.2973 9.2973)"/>
</clipPath>
</defs>
</svg>
