<svg width="51" height="51" viewBox="0 0 51 51" fill="none" xmlns="http://www.w3.org/2000/svg">
<g filter="url(#filter0_d)">
<circle cx="25.5" cy="21.5" r="21.5" fill="#FF5BBE"/>
<g clip-path="url(#clip0)">
<path d="M26.0796 9.2973C21.7568 9.2973 18.2528 12.8013 18.2528 17.124C18.2528 22.0531 22.936 27.6976 22.936 27.6976H29.4998C29.4998 27.6976 33.9092 22.0531 33.9092 17.124C33.9063 12.8013 30.4023 9.2973 26.0796 9.2973ZM28.3904 22.4974C27.9964 22.911 27.4655 23.196 26.8564 23.3273V23.5369C26.8564 23.9001 26.5602 24.1963 26.1969 24.1963H25.9119C25.5487 24.1963 25.2525 23.9001 25.2525 23.5369V23.3133C24.9311 23.2435 24.6293 23.1373 24.3499 22.992C23.9783 22.802 23.6569 22.4918 23.3915 22.0727C23.2154 21.7961 23.0869 21.4719 23.0086 21.1115C22.9696 20.9354 23.0059 20.7594 23.1064 20.6085C23.2071 20.4604 23.3663 20.357 23.5424 20.3263L23.8274 20.276C23.8637 20.2704 23.9028 20.2648 23.942 20.2648C24.2437 20.2648 24.5064 20.4688 24.5791 20.7622C24.6545 21.0584 24.7551 21.2875 24.878 21.4468C25.1547 21.8017 25.6157 22.014 26.1075 22.014C26.1914 22.014 26.2752 22.0084 26.3562 21.9945C26.7083 21.9414 27.0184 21.7765 27.2364 21.5306C27.4655 21.2707 27.5829 20.9382 27.5829 20.547C27.5829 20.2201 27.5046 19.9574 27.3509 19.7675C27.0548 19.4042 26.5323 19.2477 26.06 19.1387C25.4369 18.9962 24.8724 18.8537 24.3024 18.5352C23.9224 18.3228 23.629 18.0266 23.4222 17.6522C23.2182 17.2805 23.1177 16.8586 23.1177 16.3919C23.1177 15.5648 23.4166 14.883 24.0062 14.3661C24.3304 14.0839 24.7607 13.8799 25.2553 13.7737V13.4524C25.2553 13.0891 25.5515 12.7929 25.9147 12.7929H26.1998C26.563 12.7929 26.8592 13.0891 26.8592 13.4524V13.7821C27.3175 13.8855 27.717 14.0727 28.0244 14.327C28.3765 14.6204 28.6363 14.9948 28.7957 15.4391C28.8627 15.6235 28.8431 15.8247 28.7426 15.9952C28.642 16.1656 28.4687 16.2802 28.2731 16.3109L27.9965 16.3528C27.963 16.3584 27.9322 16.3612 27.8987 16.3612C27.6165 16.3612 27.365 16.1824 27.2756 15.9141C27.2141 15.7353 27.1331 15.5872 27.0353 15.4782C26.8089 15.2239 26.4485 15.0786 26.0489 15.0786C25.6186 15.0786 25.2162 15.2435 24.9703 15.5201C24.7719 15.7437 24.6741 16.0035 24.6741 16.3109C24.6741 16.6155 24.7579 16.8698 24.9228 17.0682C25.2804 17.4985 25.8924 17.6214 26.4847 17.7416C26.8508 17.8142 27.228 17.8925 27.5633 18.0378C27.921 18.1943 28.22 18.3926 28.4491 18.6218C28.681 18.8537 28.8627 19.1331 28.9856 19.4517C29.1086 19.7675 29.17 20.1112 29.17 20.4772C29.1645 21.2791 28.9046 21.9581 28.3904 22.4974Z" fill="white"/>
<path d="M29.3739 28.6229H22.7822V30.3246H29.3739V28.6229Z" fill="white"/>
<path d="M22.7822 31.5979C22.799 33.4058 24.266 34.8645 26.0767 34.8645C27.8874 34.8645 29.3572 33.4058 29.3711 31.5979V31.2151H22.7822V31.5979Z" fill="white"/>
</g>
</g>
<defs>
<filter id="filter0_d" x="0" y="0" width="51" height="51" filterUnits="userSpaceOnUse" color-interpolation-filters="sRGB">
<feFlood flood-opacity="0" result="BackgroundImageFix"/>
<feColorMatrix in="SourceAlpha" type="matrix" values="0 0 0 0 0 0 0 0 0 0 0 0 0 0 0 0 0 0 127 0"/>
<feOffset dy="4"/>
<feGaussianBlur stdDeviation="2"/>
<feColorMatrix type="matrix" values="0 0 0 0 0 0 0 0 0 0 0 0 0 0 0 0 0 0 0.25 0"/>
<feBlend mode="normal" in2="BackgroundImageFix" result="effect1_dropShadow"/>
<feBlend mode="normal" in="SourceGraphic" in2="effect1_dropShadow" result="shape"/>
</filter>
<clipPath id="clip0">
<rect width="25.5676" height="25.5676" fill="white" transform="translate(13.2973 9.2973)"/>
</clipPath>
</defs>
</svg>
