<svg width="51" height="51" viewBox="0 0 51 51" fill="none" xmlns="http://www.w3.org/2000/svg">
<g filter="url(#filter0_d)">
<circle cx="25.5" cy="21.5" r="19.5" fill="white"/>
<circle cx="25.5" cy="21.5" r="21.5" fill="#05CDE1"/>
<g clip-path="url(#clip0)">
<path d="M27.6914 26.8621C27.2541 27.1303 26.694 27.278 26.1144 27.278C25.5347 27.278 24.9746 27.1303 24.5373 26.8621L17.3974 22.4831C17.3974 22.4831 16.7529 22.0881 16.7529 22.9829C16.7529 23.9991 16.7529 27.0477 16.7529 27.0477C16.7529 27.0883 16.7529 27.2924 16.7529 27.3556C16.7529 29.6591 20.9441 32.1424 26.1142 32.1424C31.2842 32.1424 35.4754 29.6592 35.4754 27.3556C35.4754 27.2924 35.4754 27.0883 35.4754 27.0477C35.4754 27.0477 35.4754 23.8142 35.4754 22.7364C35.4754 22.0181 35.0173 22.3691 35.0173 22.3691L27.6914 26.8621Z" fill="white"/>
<path d="M37.9885 19.0002C38.5371 18.6638 38.5371 18.1132 37.9885 17.7767L27.1117 12.3376C26.5631 12.0012 25.6654 12.0012 25.1167 12.3376L14.24 17.7767C13.6914 18.1131 13.6914 18.6637 14.24 19.0002L25.1167 25.671C25.6654 26.0075 26.5631 26.0075 27.1117 25.671" fill="white"/>
<path d="M37.5389 28.8879C37.5389 27.046 37.5389 21.5205 37.5389 21.5205C37.5389 21.5205 37.544 21.1715 37.3369 21.2868C37.1708 21.3792 36.7637 21.6062 36.6202 21.7309C36.4546 21.8749 36.4919 22.1979 36.4919 22.1979C36.4919 22.1979 36.4919 27.2154 36.4919 28.8879C36.4919 28.9828 36.4103 29.0282 36.3714 29.0511C35.9954 29.2721 35.7426 29.6801 35.7426 30.1479C35.7426 30.8508 36.3124 31.4207 37.0154 31.4207C37.7184 31.4207 38.2882 30.8508 38.2882 30.1479C38.2882 29.6783 38.0335 29.269 37.6551 29.0486C37.6175 29.0266 37.5389 28.9828 37.5389 28.8879Z" fill="white"/>
</g>
</g>
<defs>
<filter id="filter0_d" x="0" y="0" width="51" height="51" filterUnits="userSpaceOnUse" color-interpolation-filters="sRGB">
<feFlood flood-opacity="0" result="BackgroundImageFix"/>
<feColorMatrix in="SourceAlpha" type="matrix" values="0 0 0 0 0 0 0 0 0 0 0 0 0 0 0 0 0 0 127 0"/>
<feOffset dy="4"/>
<feGaussianBlur stdDeviation="2"/>
<feColorMatrix type="matrix" values="0 0 0 0 0 0 0 0 0 0 0 0 0 0 0 0 0 0 0.25 0"/>
<feBlend mode="normal" in2="BackgroundImageFix" result="effect1_dropShadow"/>
<feBlend mode="normal" in="SourceGraphic" in2="effect1_dropShadow" result="shape"/>
</filter>
<clipPath id="clip0">
<rect width="24.5714" height="24.5714" fill="white" transform="translate(13.8286 9.82852)"/>
</clipPath>
</defs>
</svg>
