<svg width="51" height="51" viewBox="0 0 51 51" fill="none" xmlns="http://www.w3.org/2000/svg">
<g filter="url(#filter0_d)">
<circle cx="25.5" cy="21.5" r="21.5" fill="#FFD101"/>
<g clip-path="url(#clip0)">
<path d="M23.4293 15.858C25.062 15.858 26.3904 14.5296 26.3904 12.8968C26.3904 11.264 25.0621 9.93559 23.4293 9.93559C21.7968 9.93559 20.4687 11.2639 20.4687 12.8968C20.4687 14.5296 21.7968 15.858 23.4293 15.858Z" fill="white"/>
<path d="M32.7335 12.1462C32.7152 12.1462 32.6965 12.1479 32.678 12.1514L27.6031 13.0948C27.4433 13.1246 27.2753 13.2678 27.2205 13.4209L26.789 14.6307C26.7608 14.7097 26.7662 14.7931 26.8041 14.8653C26.8421 14.9375 26.9077 14.9891 26.9889 15.0107L27.1689 15.0585C27.4709 15.7313 27.747 16.4795 27.91 17.0658C27.3981 16.9283 26.7797 16.7141 26.2433 16.4866C26.125 16.4364 25.9107 16.3844 25.7766 16.3844H21.2816C20.1839 15.4015 19.1393 14.4169 18.7603 13.9717C18.8638 13.5244 19.3566 12.5562 19.871 11.7978C20.0603 11.5195 20.1299 11.184 20.0669 10.8533C20.0039 10.5226 19.8159 10.2363 19.5376 10.047C19.3277 9.90408 19.083 9.82857 18.83 9.82857C18.4117 9.82857 18.0218 10.0348 17.7869 10.3802C17.7678 10.4083 17.3138 11.0767 16.9064 11.8768C16.1899 13.284 16.0413 14.2502 16.4248 15.0099C16.5405 15.2389 16.7557 15.6651 18.877 17.6064C19.4638 18.1435 20.0294 18.644 20.3958 18.9654V33.0716C20.3958 33.804 20.9917 34.4 21.7242 34.4C22.4566 34.4 23.0526 33.804 23.0526 33.0716V25.4599H23.8126V33.0716C23.8126 33.804 24.4085 34.4 25.141 34.4C25.8734 34.4 26.4694 33.804 26.4694 33.0716L26.4634 19.2593C26.6351 19.317 26.8162 19.3746 27.0005 19.4285C27.5748 19.5965 28.0486 19.6912 28.449 19.7181C28.5233 19.7232 28.5964 19.7257 28.6664 19.7257C29.7379 19.7257 30.1844 19.1583 30.3552 18.8201C30.6887 18.1595 30.6374 17.2637 30.1778 15.8575L32.6785 16.5216C32.7038 16.5284 32.7292 16.5318 32.754 16.5318C32.8942 16.5318 32.9959 16.4248 32.9959 16.2774V12.4155C32.9959 12.262 32.8831 12.1462 32.7335 12.1462Z" fill="white"/>
<path d="M34.1675 13.0106C34.2095 13.0106 34.2523 13.0031 34.294 12.9877L35.7728 12.4378C35.9609 12.3679 36.0566 12.1588 35.9867 11.9707C35.9168 11.7826 35.7075 11.6869 35.5196 11.7568L34.0408 12.3065C33.8527 12.3765 33.757 12.5856 33.8269 12.7737C33.8812 12.9201 34.02 13.0106 34.1675 13.0106Z" fill="white"/>
<path d="M34.1672 14.6162H35.6459C35.8465 14.6162 36.0092 14.4536 36.0092 14.2529C36.0092 14.0523 35.8465 13.8897 35.6459 13.8897H34.1672C33.9666 13.8897 33.804 14.0523 33.804 14.2529C33.804 14.4536 33.9666 14.6162 34.1672 14.6162Z" fill="white"/>
<path d="M35.7725 16.0674L34.2938 15.5176C34.1057 15.4477 33.8965 15.5434 33.8267 15.7315C33.7568 15.9195 33.8525 16.1287 34.0406 16.1986L35.5193 16.7485C35.5611 16.7639 35.6039 16.7713 35.6459 16.7713C35.7934 16.7713 35.9321 16.6808 35.9865 16.5345C36.0563 16.3465 35.9606 16.1373 35.7725 16.0674Z" fill="white"/>
</g>
</g>
<defs>
<filter id="filter0_d" x="0" y="0" width="51" height="51" filterUnits="userSpaceOnUse" color-interpolation-filters="sRGB">
<feFlood flood-opacity="0" result="BackgroundImageFix"/>
<feColorMatrix in="SourceAlpha" type="matrix" values="0 0 0 0 0 0 0 0 0 0 0 0 0 0 0 0 0 0 127 0"/>
<feOffset dy="4"/>
<feGaussianBlur stdDeviation="2"/>
<feColorMatrix type="matrix" values="0 0 0 0 0 0 0 0 0 0 0 0 0 0 0 0 0 0 0.25 0"/>
<feBlend mode="normal" in2="BackgroundImageFix" result="effect1_dropShadow"/>
<feBlend mode="normal" in="SourceGraphic" in2="effect1_dropShadow" result="shape"/>
</filter>
<clipPath id="clip0">
<rect width="24.5714" height="24.5714" fill="white" transform="translate(13.8286 9.82857)"/>
</clipPath>
</defs>
</svg>
