<svg width="51" height="51" viewBox="0 0 51 51" fill="none" xmlns="http://www.w3.org/2000/svg">
<g filter="url(#filter0_d)">
<circle cx="25.5" cy="21.5" r="21.5" fill="#FE9844"/>
<g clip-path="url(#clip0)">
<path d="M16.6208 13.9479C16.5538 14.026 16.4955 14.1085 16.4294 14.1883C16.2986 14.3491 16.1682 14.5105 16.0465 14.6772C15.9751 14.7758 15.9104 14.8782 15.8423 14.9786C15.7374 15.1323 15.6333 15.2861 15.5353 15.4445C15.4682 15.5545 15.4068 15.6678 15.3431 15.7788C15.2558 15.933 15.1688 16.0873 15.089 16.2453C15.0288 16.364 14.9737 16.4846 14.9178 16.6054C14.845 16.7622 14.7735 16.9197 14.7089 17.0799C14.6574 17.2052 14.6101 17.3307 14.5634 17.4585C14.504 17.6195 14.4466 17.7815 14.3962 17.9454C14.3544 18.0753 14.3162 18.2062 14.2791 18.3374C14.2326 18.5045 14.1899 18.6718 14.1507 18.839C14.1195 18.973 14.0897 19.1073 14.0634 19.2426C14.0497 19.3124 14.0397 19.383 14.0275 19.4516C16.233 19.0577 18.2762 18.0309 19.9083 16.4961L16.9761 13.5638C16.8552 13.6926 16.7328 13.8166 16.6208 13.9479Z" fill="white"/>
<path d="M22.8391 10.1495C22.672 10.1914 22.5048 10.233 22.3377 10.2787C22.2067 10.3154 22.0765 10.3542 21.9473 10.3948C21.7826 10.4475 21.6196 10.5048 21.458 10.5646C21.3325 10.6113 21.2072 10.6581 21.0817 10.7091C20.9213 10.7752 20.7629 10.8466 20.6054 10.9181C20.4854 10.9742 20.365 11.0289 20.2468 11.0887C20.0883 11.1689 19.9338 11.2558 19.7791 11.3435C19.6675 11.407 19.5542 11.4688 19.4446 11.5354C19.2863 11.6323 19.1322 11.7376 18.9783 11.8425C18.8779 11.9106 18.7761 11.9751 18.6773 12.0465C18.5102 12.1682 18.3494 12.2973 18.188 12.4298C18.1082 12.4941 18.0257 12.5551 17.9482 12.6208C17.8168 12.7328 17.6927 12.8553 17.5662 12.9734L20.4982 15.9057C22.0322 14.274 23.0585 12.2312 23.4523 10.0267C23.3821 10.0387 23.3115 10.0487 23.2433 10.0626C23.1074 10.0889 22.9725 10.1185 22.8391 10.1495V10.1495Z" fill="white"/>
<path d="M33.5035 12.9701C31.3542 10.951 28.5159 9.82741 25.5671 9.82843C25.1481 9.83067 24.7296 9.85496 24.3133 9.90108C23.9306 12.3756 22.806 14.6757 21.0884 16.4974L25.5316 20.942L33.5035 12.9701Z" fill="white"/>
<path d="M16.9702 29.5038L24.9411 21.5329L20.4963 17.0883C18.6745 18.8064 16.3741 19.9308 13.8992 20.313C13.5316 23.6781 14.6534 27.0356 16.9702 29.5038Z" fill="white"/>
<path d="M34.4423 29.118C34.5092 29.0398 34.5675 28.9576 34.6337 28.8778C34.7645 28.7168 34.8949 28.5556 35.0165 28.3889C35.0879 28.2901 35.1528 28.1878 35.2208 28.0874C35.3257 27.9336 35.4297 27.7799 35.5277 27.6216C35.5948 27.5116 35.6563 27.3983 35.7199 27.2871C35.8073 27.1328 35.8942 26.9787 35.974 26.8208C36.0342 26.702 36.0893 26.5812 36.1454 26.4604C36.2181 26.3037 36.2895 26.1461 36.3544 25.9862C36.4056 25.8607 36.4529 25.7354 36.4997 25.6074C36.559 25.4466 36.6164 25.2844 36.6668 25.1205C36.7086 24.9905 36.7468 24.8597 36.7839 24.7285C36.8303 24.5614 36.8729 24.3942 36.9123 24.2271C36.9435 24.0928 36.9733 23.9587 36.9996 23.8232C37.0133 23.7535 37.0233 23.6828 37.0355 23.6143C34.83 24.0081 32.7869 25.0352 31.1547 26.57L34.087 29.5022C34.2078 29.3735 34.3302 29.2494 34.4423 29.118V29.118Z" fill="white"/>
<path d="M34.0933 13.5622L26.1224 21.5329L30.5672 25.9777C32.3889 24.2597 34.6893 23.1353 37.1643 22.7529C37.5316 19.388 36.4098 16.0304 34.0933 13.5622V13.5622Z" fill="white"/>
<path d="M28.2239 32.9166C28.3911 32.8768 28.5582 32.8329 28.7253 32.7874C28.8563 32.7507 28.9865 32.7119 29.1157 32.6713C29.2804 32.6185 29.4434 32.5613 29.6051 32.5015C29.7306 32.4548 29.8559 32.4079 29.9814 32.3568C30.1418 32.2909 30.3001 32.2195 30.4576 32.1479C30.5776 32.092 30.698 32.0373 30.8162 31.9775C30.9748 31.8973 31.1292 31.8103 31.2839 31.7226C31.3955 31.6589 31.5088 31.5971 31.6184 31.5308C31.7767 31.4336 31.9308 31.3283 32.0847 31.2234C32.1851 31.1553 32.2869 31.091 32.3857 31.0196C32.5528 30.898 32.7136 30.7688 32.875 30.6363C32.9548 30.5719 33.0373 30.5108 33.1148 30.4453C33.2462 30.3333 33.3703 30.2109 33.4968 30.0925L30.5648 27.1605C29.03 28.7924 28.0029 30.8357 27.6091 33.0411C27.6793 33.029 27.7499 33.0188 27.818 33.0052C27.9556 32.9772 28.0905 32.9474 28.2239 32.9166V32.9166Z" fill="white"/>
<path d="M26.7515 33.1661C27.1335 30.6911 28.2581 28.3906 29.9762 26.5687L25.5316 22.1239L17.5607 30.0948C20.0291 32.4108 23.3864 33.5328 26.7515 33.1661V33.1661Z" fill="white"/>
</g>
</g>
<defs>
<filter id="filter0_d" x="0" y="0" width="51" height="51" filterUnits="userSpaceOnUse" color-interpolation-filters="sRGB">
<feFlood flood-opacity="0" result="BackgroundImageFix"/>
<feColorMatrix in="SourceAlpha" type="matrix" values="0 0 0 0 0 0 0 0 0 0 0 0 0 0 0 0 0 0 127 0"/>
<feOffset dy="4"/>
<feGaussianBlur stdDeviation="2"/>
<feColorMatrix type="matrix" values="0 0 0 0 0 0 0 0 0 0 0 0 0 0 0 0 0 0 0.25 0"/>
<feBlend mode="normal" in2="BackgroundImageFix" result="effect1_dropShadow"/>
<feBlend mode="normal" in="SourceGraphic" in2="effect1_dropShadow" result="shape"/>
</filter>
<clipPath id="clip0">
<rect width="23.4059" height="23.4059" fill="white" transform="translate(13.8284 9.82844)"/>
</clipPath>
</defs>
</svg>
