<svg width="51" height="51" viewBox="0 0 51 51" fill="none" xmlns="http://www.w3.org/2000/svg">
<g filter="url(#filter0_d)">
<circle cx="25.5" cy="21.5" r="21.5" fill="#BB7CF5"/>
<g clip-path="url(#clip0)">
<path d="M32.2614 20.3491L32.8069 19.804C32.8586 19.7515 32.8793 19.6747 32.8579 19.6039C32.8357 19.5337 32.7767 19.4804 32.7052 19.4652L30.3523 18.9901C30.2859 18.9766 30.2179 18.9976 30.17 19.0451C30.1234 19.0932 30.1012 19.1616 30.1151 19.2273L30.5901 21.579C30.6057 21.6511 30.6583 21.7107 30.728 21.7319C30.7993 21.7537 30.8772 21.7337 30.9297 21.6807L31.4736 21.1364L32.7486 22.4105C32.8265 22.4894 32.9545 22.4894 33.0325 22.411L33.5363 21.9082C33.5738 21.8705 33.5953 21.8191 33.5953 21.7659C33.5953 21.7125 33.5738 21.6612 33.5363 21.6235L32.2614 20.3491Z" fill="white"/>
<path d="M38.2783 30.3937L37.0059 26.7146C36.8803 26.3529 36.5399 26.1099 36.1567 26.1099H35.9631C36.6663 25.8872 37.1806 25.2362 37.1806 24.4601V12.6266C37.1806 11.6679 36.4004 10.8881 35.4421 10.8881H16.7866C15.8283 10.8881 15.048 11.6679 15.048 12.6266V24.46C15.048 25.236 15.5625 25.8871 16.2656 26.1098H16.0728C15.6897 26.1098 15.3491 26.3527 15.2236 26.7145L13.9511 30.3937C13.7156 31.0726 13.824 31.8228 14.2407 32.4082C14.6575 32.9931 15.3311 33.3406 16.0498 33.3406H36.1789C36.8976 33.3406 37.5711 32.9931 37.9879 32.4082C38.4047 31.8232 38.513 31.0726 38.2783 30.3937ZM26.1148 11.2894C26.3568 11.2894 26.5538 11.4863 26.5538 11.7283C26.5538 11.9708 26.3568 12.1672 26.1148 12.1672C25.8727 12.1672 25.6758 11.9707 25.6758 11.7283C25.6757 11.4863 25.8727 11.2894 26.1148 11.2894ZM16.7866 12.5684L35.5004 12.6266V24.5173L16.7283 24.46L16.7866 12.5684ZM29.4974 31.6387C29.4514 31.7068 29.3743 31.7474 29.2923 31.7474H22.9374C22.8552 31.7474 22.7782 31.7068 22.7322 31.6387C22.6871 31.5707 22.678 31.4844 22.7084 31.4087L23.3213 29.8921C23.446 29.5848 23.7446 29.3834 24.0761 29.3834H28.1537C28.485 29.3834 28.7837 29.5848 28.9083 29.8921L29.5212 31.4087C29.5515 31.4845 29.5425 31.5706 29.4974 31.6387Z" fill="white"/>
</g>
</g>
<defs>
<filter id="filter0_d" x="0" y="0" width="51" height="51" filterUnits="userSpaceOnUse" color-interpolation-filters="sRGB">
<feFlood flood-opacity="0" result="BackgroundImageFix"/>
<feColorMatrix in="SourceAlpha" type="matrix" values="0 0 0 0 0 0 0 0 0 0 0 0 0 0 0 0 0 0 127 0"/>
<feOffset dy="4"/>
<feGaussianBlur stdDeviation="2"/>
<feColorMatrix type="matrix" values="0 0 0 0 0 0 0 0 0 0 0 0 0 0 0 0 0 0 0.25 0"/>
<feBlend mode="normal" in2="BackgroundImageFix" result="effect1_dropShadow"/>
<feBlend mode="normal" in="SourceGraphic" in2="effect1_dropShadow" result="shape"/>
</filter>
<clipPath id="clip0">
<rect width="24.5714" height="24.5714" fill="white" transform="translate(13.8286 9.82857)"/>
</clipPath>
</defs>
</svg>
