<svg width="38" height="38" viewBox="0 0 38 38" fill="none" xmlns="http://www.w3.org/2000/svg">
<path fill-rule="evenodd" clip-rule="evenodd" d="M19 0C24.0391 0 28.8718 2.00178 32.435 5.56497C35.9982 9.12816 38 13.9609 38 19C38 24.0391 35.9982 28.8718 32.435 32.435C28.8718 35.9982 24.0391 38 19 38C13.9609 38 9.12816 35.9982 5.56497 32.435C2.00178 28.8718 0 24.0391 0 19C0 13.9609 2.00178 9.12816 5.56497 5.56497C9.12816 2.00178 13.9609 0 19 0ZM25.2843 18.1593C25.5072 17.9363 25.8097 17.811 26.125 17.811C26.4403 17.811 26.7428 17.9363 26.9657 18.1593C27.1887 18.3822 27.314 18.6847 27.314 19C27.314 19.3153 27.1887 19.6178 26.9657 19.8407L19.8407 26.9657C19.7304 27.0763 19.5994 27.1641 19.4551 27.2239C19.3109 27.2838 19.1562 27.3146 19 27.3146C18.8438 27.3146 18.6891 27.2838 18.5449 27.2239C18.4006 27.1641 18.2696 27.0763 18.1593 26.9657L11.0343 19.8407C10.9238 19.7303 10.8363 19.5993 10.7765 19.455C10.7168 19.3108 10.686 19.1561 10.686 19C10.686 18.8439 10.7168 18.6892 10.7765 18.545C10.8363 18.4007 10.9238 18.2697 11.0343 18.1593C11.1447 18.0488 11.2757 17.9613 11.42 17.9015C11.5642 17.8418 11.7189 17.811 11.875 17.811C12.0311 17.811 12.1858 17.8418 12.33 17.9015C12.4743 17.9613 12.6053 18.0488 12.7157 18.1593L17.8125 23.2584V11.875C17.8125 11.5601 17.9376 11.258 18.1603 11.0353C18.383 10.8126 18.6851 10.6875 19 10.6875C19.3149 10.6875 19.617 10.8126 19.8397 11.0353C20.0624 11.258 20.1875 11.5601 20.1875 11.875V23.2584L25.2843 18.1593Z" fill="#C4C4C4"/>
</svg>
