<svg width="68" height="68" viewBox="0 0 68 68" fill="none" xmlns="http://www.w3.org/2000/svg">
<circle cx="34" cy="34" r="31" stroke="#FF5BBE" stroke-width="5"/>
<mask id="path-2-outside-1" maskUnits="userSpaceOnUse" x="16.8672" y="14.469" width="37" height="35" fill="black">
<rect fill="white" x="16.8672" y="14.469" width="37" height="35"/>
<path d="M43.9458 47.9444C43.4915 47.9439 43.0478 47.8079 42.6713 47.5538L35.0041 42.4149C34.9663 42.3888 34.9215 42.3749 34.8756 42.3749C34.8297 42.3749 34.7849 42.3888 34.7472 42.4149L27.0799 47.5538C26.6949 47.8109 26.2408 47.9448 25.7779 47.9377C25.315 47.9305 24.8652 47.7828 24.4883 47.514C24.1113 47.2453 23.8251 46.8682 23.6675 46.4329C23.5099 45.9976 23.4885 45.5246 23.606 45.0769L26.1241 36.1969C26.136 36.1522 26.1346 36.105 26.1199 36.0612C26.1053 36.0174 26.0782 35.9788 26.0419 35.9502L18.7858 30.246C18.4038 29.9615 18.1204 29.5645 17.9754 29.1108C17.8305 28.657 17.8311 28.1693 17.9773 27.716C18.1235 27.2626 18.4079 26.8664 18.7907 26.5829C19.1734 26.2993 19.6353 26.1427 20.1116 26.1349L29.3616 25.7855C29.4071 25.7823 29.4507 25.7661 29.4871 25.7388C29.5236 25.7114 29.5514 25.6741 29.5672 25.6313L32.7533 16.9671C32.9139 16.5279 33.2056 16.1486 33.5888 15.8807C33.9721 15.6127 34.4285 15.469 34.8962 15.469C35.3639 15.469 35.8202 15.6127 36.2035 15.8807C36.5868 16.1486 36.8785 16.5279 37.0391 16.9671L40.2252 25.6313C40.241 25.6741 40.2687 25.7114 40.3052 25.7388C40.3417 25.7661 40.3853 25.7823 40.4308 25.7855L49.6808 26.1349C50.157 26.1427 50.6189 26.2993 51.0017 26.5829C51.3844 26.8664 51.6688 27.2626 51.815 27.716C51.9612 28.1693 51.9619 28.657 51.8169 29.1108C51.6719 29.5645 51.3886 29.9615 51.0066 30.246L43.7505 35.9502C43.7131 35.9778 43.6851 36.0164 43.6704 36.0605C43.6557 36.1047 43.6549 36.1523 43.6683 36.1969L46.1863 45.0769C46.2747 45.4175 46.2835 45.7739 46.2119 46.1184C46.1404 46.4629 45.9905 46.7864 45.7739 47.0637C45.5572 47.3409 45.2796 47.5646 44.9626 47.7173C44.6456 47.8701 44.2976 47.9477 43.9458 47.9444ZM34.8808 40.3182C35.3359 40.3322 35.7763 40.4826 36.1449 40.7499L43.8122 45.8888C43.851 45.9183 43.8984 45.9345 43.9472 45.9349C43.996 45.9353 44.0436 45.9199 44.0829 45.8909C44.1222 45.862 44.1512 45.8212 44.1653 45.7745C44.1795 45.7278 44.1782 45.6777 44.1616 45.6319L41.6435 36.7519C41.5196 36.3162 41.5288 35.8535 41.6698 35.4232C41.8108 34.9928 42.0773 34.6144 42.4349 34.3366L49.691 28.6324C49.7306 28.6046 49.7603 28.5648 49.7756 28.519C49.7909 28.4731 49.7911 28.4235 49.7761 28.3775C49.7612 28.3315 49.7319 28.2915 49.6925 28.2634C49.6531 28.2353 49.6058 28.2205 49.5574 28.2213L40.3074 27.8719C39.8545 27.8542 39.4171 27.702 39.051 27.4348C38.6849 27.1675 38.4067 26.7973 38.2519 26.3713L35.0658 17.7071C35.0514 17.6611 35.0227 17.6209 34.9839 17.5924C34.9451 17.5638 34.8981 17.5484 34.8499 17.5484C34.8017 17.5484 34.7548 17.5638 34.716 17.5924C34.6772 17.6209 34.6485 17.6611 34.6341 17.7071L31.4788 26.361C31.324 26.787 31.0458 27.1573 30.6797 27.4245C30.3136 27.6918 29.8762 27.8439 29.4233 27.8616L20.1733 28.211C20.1249 28.2102 20.0776 28.225 20.0382 28.2531C19.9988 28.2812 19.9695 28.3212 19.9546 28.3672C19.9396 28.4132 19.9398 28.4628 19.9551 28.5087C19.9704 28.5546 20.0001 28.5943 20.0397 28.6221L27.306 34.3366C27.6626 34.6153 27.9283 34.9937 28.0692 35.4238C28.2101 35.8539 28.2199 36.3162 28.0974 36.7519L25.5897 45.6319C25.5747 45.6763 25.5746 45.7245 25.5894 45.769C25.6043 45.8135 25.6332 45.8519 25.6719 45.8785C25.7091 45.9104 25.7565 45.9279 25.8055 45.9279C25.8545 45.9279 25.9019 45.9104 25.9391 45.8785L33.6063 40.7396C33.981 40.4911 34.4208 40.3588 34.8705 40.3594L34.8808 40.3182Z"/>
</mask>
<path d="M43.9458 47.9444C43.4915 47.9439 43.0478 47.8079 42.6713 47.5538L35.0041 42.4149C34.9663 42.3888 34.9215 42.3749 34.8756 42.3749C34.8297 42.3749 34.7849 42.3888 34.7472 42.4149L27.0799 47.5538C26.6949 47.8109 26.2408 47.9448 25.7779 47.9377C25.315 47.9305 24.8652 47.7828 24.4883 47.514C24.1113 47.2453 23.8251 46.8682 23.6675 46.4329C23.5099 45.9976 23.4885 45.5246 23.606 45.0769L26.1241 36.1969C26.136 36.1522 26.1346 36.105 26.1199 36.0612C26.1053 36.0174 26.0782 35.9788 26.0419 35.9502L18.7858 30.246C18.4038 29.9615 18.1204 29.5645 17.9754 29.1108C17.8305 28.657 17.8311 28.1693 17.9773 27.716C18.1235 27.2626 18.4079 26.8664 18.7907 26.5829C19.1734 26.2993 19.6353 26.1427 20.1116 26.1349L29.3616 25.7855C29.4071 25.7823 29.4507 25.7661 29.4871 25.7388C29.5236 25.7114 29.5514 25.6741 29.5672 25.6313L32.7533 16.9671C32.9139 16.5279 33.2056 16.1486 33.5888 15.8807C33.9721 15.6127 34.4285 15.469 34.8962 15.469C35.3639 15.469 35.8202 15.6127 36.2035 15.8807C36.5868 16.1486 36.8785 16.5279 37.0391 16.9671L40.2252 25.6313C40.241 25.6741 40.2687 25.7114 40.3052 25.7388C40.3417 25.7661 40.3853 25.7823 40.4308 25.7855L49.6808 26.1349C50.157 26.1427 50.6189 26.2993 51.0017 26.5829C51.3844 26.8664 51.6688 27.2626 51.815 27.716C51.9612 28.1693 51.9619 28.657 51.8169 29.1108C51.6719 29.5645 51.3886 29.9615 51.0066 30.246L43.7505 35.9502C43.7131 35.9778 43.6851 36.0164 43.6704 36.0605C43.6557 36.1047 43.6549 36.1523 43.6683 36.1969L46.1863 45.0769C46.2747 45.4175 46.2835 45.7739 46.2119 46.1184C46.1404 46.4629 45.9905 46.7864 45.7739 47.0637C45.5572 47.3409 45.2796 47.5646 44.9626 47.7173C44.6456 47.8701 44.2976 47.9477 43.9458 47.9444ZM34.8808 40.3182C35.3359 40.3322 35.7763 40.4826 36.1449 40.7499L43.8122 45.8888C43.851 45.9183 43.8984 45.9345 43.9472 45.9349C43.996 45.9353 44.0436 45.9199 44.0829 45.8909C44.1222 45.862 44.1512 45.8212 44.1653 45.7745C44.1795 45.7278 44.1782 45.6777 44.1616 45.6319L41.6435 36.7519C41.5196 36.3162 41.5288 35.8535 41.6698 35.4232C41.8108 34.9928 42.0773 34.6144 42.4349 34.3366L49.691 28.6324C49.7306 28.6046 49.7603 28.5648 49.7756 28.519C49.7909 28.4731 49.7911 28.4235 49.7761 28.3775C49.7612 28.3315 49.7319 28.2915 49.6925 28.2634C49.6531 28.2353 49.6058 28.2205 49.5574 28.2213L40.3074 27.8719C39.8545 27.8542 39.4171 27.702 39.051 27.4348C38.6849 27.1675 38.4067 26.7973 38.2519 26.3713L35.0658 17.7071C35.0514 17.6611 35.0227 17.6209 34.9839 17.5924C34.9451 17.5638 34.8981 17.5484 34.8499 17.5484C34.8017 17.5484 34.7548 17.5638 34.716 17.5924C34.6772 17.6209 34.6485 17.6611 34.6341 17.7071L31.4788 26.361C31.324 26.787 31.0458 27.1573 30.6797 27.4245C30.3136 27.6918 29.8762 27.8439 29.4233 27.8616L20.1733 28.211C20.1249 28.2102 20.0776 28.225 20.0382 28.2531C19.9988 28.2812 19.9695 28.3212 19.9546 28.3672C19.9396 28.4132 19.9398 28.4628 19.9551 28.5087C19.9704 28.5546 20.0001 28.5943 20.0397 28.6221L27.306 34.3366C27.6626 34.6153 27.9283 34.9937 28.0692 35.4238C28.2101 35.8539 28.2199 36.3162 28.0974 36.7519L25.5897 45.6319C25.5747 45.6763 25.5746 45.7245 25.5894 45.769C25.6043 45.8135 25.6332 45.8519 25.6719 45.8785C25.7091 45.9104 25.7565 45.9279 25.8055 45.9279C25.8545 45.9279 25.9019 45.9104 25.9391 45.8785L33.6063 40.7396C33.981 40.4911 34.4208 40.3588 34.8705 40.3594L34.8808 40.3182Z" fill="#FF5BBE"/>
<path d="M42.6713 47.5538L43.2308 46.725L43.2281 46.7231L42.6713 47.5538ZM35.0041 42.4149L34.4359 43.2379L34.4473 43.2456L35.0041 42.4149ZM34.8756 42.3749V43.3749V42.3749ZM34.7472 42.4149L35.304 43.2457L35.3153 43.2378L34.7472 42.4149ZM27.0799 47.5538L27.6352 48.3854L27.6367 48.3845L27.0799 47.5538ZM23.606 45.0769L22.644 44.804L22.6413 44.8135L22.6388 44.8229L23.606 45.0769ZM26.1241 36.1969L27.0862 36.4697L27.0883 36.4621L27.0903 36.4545L26.1241 36.1969ZM26.0419 35.9502L26.6603 35.1643L26.6599 35.164L26.0419 35.9502ZM18.7858 30.246L19.4038 29.4599L19.3936 29.4518L19.3832 29.4441L18.7858 30.246ZM20.1116 26.1349L20.1279 27.1348L20.1386 27.1346L20.1493 27.1342L20.1116 26.1349ZM29.3616 25.7855L29.3993 26.7848L29.4149 26.7842L29.4305 26.7831L29.3616 25.7855ZM29.5672 25.6313L30.5056 25.9768L30.5057 25.9764L29.5672 25.6313ZM32.7533 16.9671L33.6918 17.3123L33.6925 17.3105L32.7533 16.9671ZM34.8962 15.469V16.469V15.469ZM37.0391 16.9671L36.0999 17.3105L36.1005 17.3123L37.0391 16.9671ZM40.2252 25.6313L39.2867 25.9764L39.2868 25.9768L40.2252 25.6313ZM40.4308 25.7855L40.3619 26.7831L40.3774 26.7842L40.393 26.7848L40.4308 25.7855ZM49.6808 26.1349L49.643 27.1342L49.6537 27.1346L49.6644 27.1348L49.6808 26.1349ZM51.0066 30.246L50.4092 29.4441L50.3988 29.4518L50.3886 29.4599L51.0066 30.246ZM43.7505 35.9502L44.3449 36.7544L44.3568 36.7455L44.3685 36.7364L43.7505 35.9502ZM43.6683 36.1969L44.6303 35.924L44.6284 35.9171L44.6263 35.9101L43.6683 36.1969ZM46.1863 45.0769L47.1543 44.8257L47.1514 44.8148L47.1484 44.804L46.1863 45.0769ZM34.8808 40.3182L34.9113 39.3187L34.106 39.2941L33.9106 40.0757L34.8808 40.3182ZM36.1449 40.7499L35.5578 41.5594L35.5728 41.5703L35.5882 41.5806L36.1449 40.7499ZM43.8122 45.8888L44.4173 45.0927L44.3936 45.0747L44.3689 45.0581L43.8122 45.8888ZM44.1616 45.6319L43.1995 45.9047L43.2092 45.9388L43.2213 45.9721L44.1616 45.6319ZM41.6435 36.7519L42.6056 36.479L42.6054 36.4783L41.6435 36.7519ZM42.4349 34.3366L43.0484 35.1263L43.0529 35.1227L42.4349 34.3366ZM49.691 28.6324L49.1163 27.8141L49.0942 27.8296L49.073 27.8462L49.691 28.6324ZM49.5574 28.2213L49.5197 29.2206L49.5466 29.2216L49.5736 29.2212L49.5574 28.2213ZM40.3074 27.8719L40.2685 28.8711L40.2697 28.8711L40.3074 27.8719ZM38.2519 26.3713L39.1917 26.0297L39.1904 26.0262L38.2519 26.3713ZM35.0658 17.7071L34.1112 18.0052L34.1186 18.0289L34.1272 18.0523L35.0658 17.7071ZM34.8499 17.5484V16.5484V17.5484ZM34.6341 17.7071L35.5736 18.0497L35.5816 18.0276L35.5886 18.0052L34.6341 17.7071ZM31.4788 26.361L30.5393 26.0185L30.539 26.0194L31.4788 26.361ZM29.4233 27.8616L29.461 28.8609L29.4622 28.8608L29.4233 27.8616ZM20.1733 28.211L20.1571 29.2109L20.1841 29.2113L20.211 29.2103L20.1733 28.211ZM20.0397 28.6221L20.6578 27.8361L20.6366 27.8194L20.6144 27.8038L20.0397 28.6221ZM27.306 34.3366L26.6879 35.1226L26.6902 35.1245L27.306 34.3366ZM28.0974 36.7519L29.0598 37.0236L29.0601 37.0225L28.0974 36.7519ZM25.5897 45.6319L26.5374 45.9509L26.5453 45.9274L26.552 45.9036L25.5897 45.6319ZM25.6719 45.8785L26.3219 45.1186L26.282 45.0844L26.2387 45.0547L25.6719 45.8785ZM25.9391 45.8785L25.3823 45.0478L25.3336 45.0805L25.2891 45.1186L25.9391 45.8785ZM33.6063 40.7396L33.0535 39.9063L33.0496 39.909L33.6063 40.7396ZM34.8705 40.3594L34.8692 41.3594L35.651 41.3604L35.8406 40.6019L34.8705 40.3594ZM43.9467 46.9444C43.6916 46.9441 43.4423 46.8677 43.2308 46.725L42.1118 48.3826C42.6533 48.7481 43.2915 48.9437 43.9448 48.9444L43.9467 46.9444ZM43.2281 46.7231L35.5609 41.5842L34.4473 43.2456L42.1146 48.3845L43.2281 46.7231ZM35.5723 41.592C35.3675 41.4506 35.1245 41.3749 34.8756 41.3749V43.3749C34.7185 43.3749 34.5652 43.3271 34.4359 43.2378L35.5723 41.592ZM34.8756 41.3749C34.6268 41.3749 34.3838 41.4506 34.179 41.592L35.3153 43.2378C35.1861 43.3271 35.0327 43.3749 34.8756 43.3749V41.3749ZM34.1904 41.5842L26.5232 46.7231L27.6367 48.3845L35.3039 43.2456L34.1904 41.5842ZM26.5246 46.7222C26.3084 46.8666 26.0533 46.9418 25.7933 46.9378L25.7626 48.9375C26.4283 48.9478 27.0815 48.7552 27.6352 48.3854L26.5246 46.7222ZM25.7933 46.9378C25.5332 46.9338 25.2806 46.8508 25.0688 46.6998L23.9077 48.3283C24.4499 48.7148 25.0968 48.9273 25.7626 48.9375L25.7933 46.9378ZM25.0688 46.6998C24.8571 46.5488 24.6963 46.337 24.6078 46.0925L22.7272 46.7733C22.9538 47.3994 23.3656 47.9417 23.9077 48.3283L25.0688 46.6998ZM24.6078 46.0925C24.5193 45.848 24.5072 45.5823 24.5733 45.3308L22.6388 44.8229C22.4697 45.4669 22.5006 46.1472 22.7272 46.7733L24.6078 46.0925ZM24.5681 45.3497L27.0862 36.4697L25.162 35.924L22.644 44.804L24.5681 45.3497ZM27.0903 36.4545C27.1526 36.2209 27.1451 35.9743 27.0686 35.745L25.1713 36.3774C25.1241 36.2358 25.1194 36.0835 25.1579 35.9392L27.0903 36.4545ZM27.0686 35.745C26.9922 35.5157 26.8502 35.3138 26.6603 35.1643L25.4235 36.736C25.3061 36.6437 25.2185 36.519 25.1713 36.3774L27.0686 35.745ZM26.6599 35.164L19.4038 29.4599L18.1677 31.0322L25.4239 36.7364L26.6599 35.164ZM19.3832 29.4441C19.1686 29.2842 19.0094 29.0612 18.928 28.8064L17.0229 29.4151C17.2314 30.0677 17.6389 30.6387 18.1884 31.048L19.3832 29.4441ZM18.928 28.8064C18.8466 28.5515 18.8469 28.2775 18.9291 28.0229L17.0256 27.409C16.8153 28.061 16.8144 28.7625 17.0229 29.4151L18.928 28.8064ZM18.9291 28.0229C19.0112 27.7682 19.1709 27.5457 19.3859 27.3864L18.1954 25.7793C17.6449 26.1871 17.2359 26.757 17.0256 27.409L18.9291 28.0229ZM19.3859 27.3864C19.6009 27.2271 19.8604 27.1391 20.1279 27.1348L20.0953 25.135C19.4103 25.1462 18.7459 25.3715 18.1954 25.7793L19.3859 27.3864ZM20.1493 27.1342L29.3993 26.7848L29.3238 24.7862L20.0738 25.1356L20.1493 27.1342ZM29.4305 26.7831C29.6683 26.7667 29.8964 26.6818 30.0871 26.5388L28.8871 24.9388C29.005 24.8504 29.1458 24.798 29.2927 24.7878L29.4305 26.7831ZM30.0871 26.5388C30.2779 26.3957 30.4232 26.2005 30.5056 25.9768L28.6287 25.2858C28.6796 25.1477 28.7693 25.0271 28.8871 24.9388L30.0871 26.5388ZM30.5057 25.9764L33.6918 17.3123L31.8147 16.622L28.6286 25.2862L30.5057 25.9764ZM33.6925 17.3105C33.7827 17.0638 33.9465 16.8508 34.1618 16.7002L33.0159 15.0611C32.4646 15.4465 32.0451 15.992 31.8141 16.6237L33.6925 17.3105ZM34.1618 16.7002C34.3771 16.5497 34.6335 16.469 34.8962 16.469V14.469C34.2235 14.469 33.5671 14.6757 33.0159 15.0611L34.1618 16.7002ZM34.8962 16.469C35.1589 16.469 35.4152 16.5497 35.6305 16.7002L36.7765 15.0611C36.2252 14.6757 35.5688 14.469 34.8962 14.469V16.469ZM35.6305 16.7002C35.8458 16.8508 36.0097 17.0638 36.0999 17.3105L37.9783 16.6237C37.7473 15.992 37.3278 15.4465 36.7765 15.0611L35.6305 16.7002ZM36.1005 17.3123L39.2867 25.9764L41.1638 25.2862L37.9776 16.622L36.1005 17.3123ZM39.2868 25.9768C39.3691 26.2005 39.5145 26.3957 39.7052 26.5388L40.9052 24.9388C41.023 25.0271 41.1128 25.1476 41.1636 25.2858L39.2868 25.9768ZM39.7052 26.5388C39.896 26.6818 40.124 26.7667 40.3619 26.7831L40.4996 24.7878C40.6465 24.798 40.7874 24.8504 40.9052 24.9388L39.7052 26.5388ZM40.393 26.7848L49.643 27.1342L49.7185 25.1356L40.4685 24.7862L40.393 26.7848ZM49.6644 27.1348C49.932 27.1391 50.1914 27.2271 50.4064 27.3864L51.5969 25.7793C51.0464 25.3715 50.3821 25.1462 49.6971 25.135L49.6644 27.1348ZM50.4064 27.3864C50.6214 27.5457 50.7812 27.7682 50.8633 28.0229L52.7668 27.409C52.5565 26.757 52.1474 26.1871 51.5969 25.7793L50.4064 27.3864ZM50.8633 28.0229C50.9454 28.2775 50.9458 28.5515 50.8644 28.8064L52.7695 29.4151C52.978 28.7625 52.9771 28.061 52.7668 27.409L50.8633 28.0229ZM50.8644 28.8064C50.7829 29.0613 50.6238 29.2842 50.4092 29.4441L51.604 31.048C52.1534 30.6387 52.5609 30.0677 52.7695 29.4151L50.8644 28.8064ZM50.3886 29.4599L43.1325 35.164L44.3685 36.7364L51.6246 31.0322L50.3886 29.4599ZM43.1561 35.146C42.9532 35.296 42.8015 35.5049 42.7217 35.7443L44.6191 36.3768C44.5687 36.5278 44.4729 36.6597 44.3449 36.7544L43.1561 35.146ZM42.7217 35.7443C42.6419 35.9837 42.6379 36.2418 42.7103 36.4836L44.6263 35.9101C44.6719 36.0627 44.6694 36.2257 44.6191 36.3768L42.7217 35.7443ZM42.7062 36.4697L45.2243 45.3497L47.1484 44.804L44.6303 35.924L42.7062 36.4697ZM45.2184 45.328C45.2682 45.52 45.2731 45.7209 45.2328 45.9151L47.1911 46.3217C47.2938 45.8268 47.2812 45.3149 47.1543 44.8257L45.2184 45.328ZM45.2328 45.9151C45.1925 46.1093 45.108 46.2917 44.9859 46.448L46.5618 47.6794C46.873 47.2811 47.0883 46.8165 47.1911 46.3217L45.2328 45.9151ZM44.9859 46.448C44.8637 46.6043 44.7073 46.7304 44.5286 46.8164L45.3966 48.6183C45.8519 48.3989 46.2507 48.0776 46.5618 47.6794L44.9859 46.448ZM44.5286 46.8164C44.3499 46.9025 44.1538 46.9463 43.9554 46.9444L43.9361 48.9443C44.4415 48.9492 44.9413 48.8376 45.3966 48.6183L44.5286 46.8164ZM34.8502 41.3178C35.1049 41.3256 35.3515 41.4098 35.5578 41.5594L36.7321 39.9404C36.2012 39.5554 35.5668 39.3388 34.9113 39.3187L34.8502 41.3178ZM35.5882 41.5806L43.2554 46.7195L44.3689 45.0581L36.7017 39.9192L35.5882 41.5806ZM43.207 46.6849C43.4177 46.8451 43.6746 46.9328 43.9392 46.9349L43.9551 44.9349C44.1222 44.9362 44.2843 44.9916 44.4173 45.0927L43.207 46.6849ZM43.9392 46.9349C44.2039 46.937 44.4621 46.8534 44.6753 46.6966L43.4905 45.0853C43.6251 44.9864 43.7881 44.9336 43.9551 44.9349L43.9392 46.9349ZM44.6753 46.6966C44.8885 46.5398 45.0453 46.3183 45.1222 46.065L43.2085 45.4839C43.257 45.3241 43.356 45.1842 43.4905 45.0853L44.6753 46.6966ZM45.1222 46.065C45.1991 45.8118 45.192 45.5405 45.1019 45.2916L43.2213 45.9721C43.1644 45.815 43.1599 45.6438 43.2085 45.4839L45.1222 46.065ZM45.1237 45.359L42.6056 36.479L40.6815 37.0247L43.1995 45.9047L45.1237 45.359ZM42.6054 36.4783C42.536 36.2344 42.5411 35.9754 42.6201 35.7345L40.7195 35.1118C40.5164 35.7316 40.5032 36.3981 40.6817 37.0255L42.6054 36.4783ZM42.6201 35.7345C42.699 35.4936 42.8482 35.2818 43.0484 35.1263L41.8215 33.5468C41.3064 33.947 40.9226 34.4919 40.7195 35.1118L42.6201 35.7345ZM43.0529 35.1227L50.3091 29.4186L49.073 27.8462L41.8169 33.5504L43.0529 35.1227ZM50.2658 29.4507C50.4804 29.3 50.6411 29.0844 50.7241 28.8355L48.827 28.2024C48.8794 28.0453 48.9808 27.9092 49.1163 27.8141L50.2658 29.4507ZM50.7241 28.8355C50.8072 28.5867 50.8082 28.3178 50.7272 28.0684L48.8251 28.6866C48.7739 28.5291 48.7746 28.3594 48.827 28.2024L50.7241 28.8355ZM50.7272 28.0684C50.6461 27.8189 50.4871 27.6021 50.2737 27.4496L49.1113 29.0771C48.9766 28.9809 48.8763 28.8441 48.8251 28.6866L50.7272 28.0684ZM50.2737 27.4496C50.0603 27.2972 49.8036 27.2172 49.5413 27.2214L49.5736 29.2212C49.408 29.2238 49.246 29.1734 49.1113 29.0771L50.2737 27.4496ZM49.5952 27.222L40.3452 26.8726L40.2697 28.8711L49.5197 29.2206L49.5952 27.222ZM40.3464 26.8726C40.092 26.8627 39.8463 26.7772 39.6406 26.6271L38.4614 28.2425C38.9879 28.6269 39.6171 28.8457 40.2685 28.8711L40.3464 26.8726ZM39.6406 26.6271C39.435 26.477 39.2787 26.269 39.1917 26.0297L37.312 26.7129C37.5347 27.3256 37.9348 27.8581 38.4614 28.2425L39.6406 26.6271ZM39.1904 26.0262L36.0043 17.362L34.1272 18.0523L37.3133 26.7164L39.1904 26.0262ZM36.0203 17.4091C35.9424 17.1596 35.7869 16.9416 35.5763 16.7867L34.3915 18.398C34.2586 18.3003 34.1604 18.1626 34.1112 18.0052L36.0203 17.4091ZM35.5763 16.7867C35.3658 16.6319 35.1113 16.5484 34.8499 16.5484V18.5484C34.685 18.5484 34.5243 18.4957 34.3915 18.398L35.5763 16.7867ZM34.8499 16.5484C34.5886 16.5484 34.3341 16.6319 34.1236 16.7867L35.3084 18.398C35.1755 18.4957 35.0149 18.5484 34.8499 18.5484V16.5484ZM34.1236 16.7867C33.913 16.9416 33.7575 17.1596 33.6796 17.4091L35.5886 18.0052C35.5395 18.1627 35.4413 18.3003 35.3084 18.398L34.1236 16.7867ZM33.6946 17.3646L30.5393 26.0185L32.4183 26.7036L35.5736 18.0497L33.6946 17.3646ZM30.539 26.0194C30.452 26.2587 30.2957 26.4667 30.0901 26.6168L31.2693 28.2322C31.7958 27.8478 32.196 27.3153 32.4187 26.7026L30.539 26.0194ZM30.0901 26.6168C29.8844 26.767 29.6387 26.8524 29.3843 26.8623L29.4622 28.8608C30.1136 28.8354 30.7427 28.6166 31.2693 28.2322L30.0901 26.6168ZM29.3855 26.8623L20.1355 27.2117L20.211 29.2103L29.461 28.8609L29.3855 26.8623ZM20.1894 27.2112C19.9271 27.2069 19.6704 27.2869 19.457 27.4394L20.6194 29.0669C20.4847 29.1631 20.3227 29.2136 20.1571 29.2109L20.1894 27.2112ZM19.457 27.4394C19.2435 27.5918 19.0846 27.8087 19.0035 28.0581L20.9056 28.6763C20.8544 28.8338 20.7541 28.9706 20.6194 29.0669L19.457 27.4394ZM19.0035 28.0581C18.9225 28.3076 18.9235 28.5765 19.0066 28.8253L20.9037 28.1921C20.9561 28.3491 20.9568 28.5189 20.9056 28.6763L19.0035 28.0581ZM19.0066 28.8253C19.0896 29.0741 19.2502 29.2897 19.4649 29.4404L20.6144 27.8038C20.7499 27.899 20.8513 28.0351 20.9037 28.1921L19.0066 28.8253ZM19.4215 29.4082L26.6879 35.1226L27.9242 33.5505L20.6578 27.8361L19.4215 29.4082ZM26.6902 35.1245C26.8905 35.281 27.0397 35.4936 27.1189 35.7352L29.0195 35.1125C28.8168 34.4939 28.4347 33.9496 27.9219 33.5487L26.6902 35.1245ZM27.1189 35.7352C27.198 35.9768 27.2036 36.2365 27.1348 36.4812L29.0601 37.0225C29.2363 36.3959 29.2221 35.731 29.0195 35.1125L27.1189 35.7352ZM27.1351 36.4801L24.6273 45.3601L26.552 45.9036L29.0598 37.0236L27.1351 36.4801ZM24.6419 45.3129C24.5576 45.5633 24.5572 45.8345 24.6408 46.0852L26.5381 45.4527C26.592 45.6144 26.5918 45.7893 26.5374 45.9509L24.6419 45.3129ZM24.6408 46.0852C24.7243 46.3359 24.8873 46.5526 25.1051 46.7024L26.2387 45.0547C26.3791 45.1513 26.4842 45.291 26.5381 45.4527L24.6408 46.0852ZM25.0219 46.6385C25.2402 46.8252 25.5181 46.9279 25.8055 46.9279V44.9279C25.9948 44.9279 26.178 44.9955 26.3219 45.1186L25.0219 46.6385ZM25.8055 46.9279C26.0928 46.9279 26.3707 46.8252 26.5891 46.6385L25.2891 45.1186C25.433 44.9955 25.6161 44.9279 25.8055 44.9279V46.9279ZM26.4958 46.7092L34.1631 41.5703L33.0496 39.909L25.3823 45.0478L26.4958 46.7092ZM34.1591 41.573C34.3696 41.4333 34.6166 41.359 34.8692 41.3594L34.8718 39.3594C34.225 39.3585 33.5925 39.5488 33.0535 39.9063L34.1591 41.573ZM35.8406 40.6019L35.8509 40.5608L33.9106 40.0757L33.9003 40.1168L35.8406 40.6019Z" fill="#FF5BBE" mask="url(#path-2-outside-1)"/>
</svg>
