<svg width="70" height="70" viewBox="0 0 70 70" fill="none" xmlns="http://www.w3.org/2000/svg">
<path d="M35 0.875C28.2507 0.875 21.653 2.8764 16.0412 6.6261C10.4294 10.3758 6.05547 15.7054 3.47263 21.9409C0.889786 28.1765 0.213997 35.0379 1.53072 41.6575C2.84744 48.2771 6.09753 54.3576 10.87 59.13C15.6425 63.9025 21.723 67.1526 28.3426 68.4693C34.9622 69.786 41.8236 69.1102 48.0591 66.5274C54.2946 63.9445 59.6242 59.5707 63.3739 53.9588C67.1236 48.347 69.125 41.7493 69.125 35C69.125 25.9495 65.5297 17.2697 59.13 10.87C52.7304 4.4703 44.0505 0.875 35 0.875V0.875ZM54.5 56.7401V55.2581C54.5678 51.9343 53.3292 48.7165 51.0504 46.296C48.7716 43.8754 45.6343 42.4452 42.3125 42.3125H27.6875C24.3685 42.4458 21.2345 43.8768 18.9598 46.2973C16.685 48.7179 15.4514 51.9347 15.5244 55.2556C15.5244 55.2824 15.5 55.3093 15.5 55.3361V56.762C11.0782 52.8149 7.95921 47.618 6.55601 41.8593C5.15281 36.1005 5.53151 30.0514 7.64199 24.5126C9.75248 18.9738 13.4952 14.2065 18.3748 10.8417C23.2544 7.47694 29.0408 5.67333 34.9681 5.66963C40.8953 5.66592 46.684 7.4623 51.5678 10.821C56.4516 14.1797 60.2003 18.9423 62.3177 24.4784C64.4351 30.0146 64.8214 36.0632 63.4254 41.8237C62.0294 47.5842 58.9169 52.785 54.5 56.7376V56.7401Z" fill="#05CDE1"/>
<path d="M35 13.0625C32.5896 13.0625 30.2332 13.7773 28.229 15.1165C26.2248 16.4556 24.6627 18.3591 23.7402 20.586C22.8178 22.813 22.5764 25.2635 23.0467 27.6277C23.5169 29.9918 24.6777 32.1634 26.3821 33.8679C28.0866 35.5723 30.2582 36.7331 32.6223 37.2033C34.9865 37.6736 37.437 37.4322 39.664 36.5098C41.8909 35.5873 43.7944 34.0252 45.1336 32.021C46.4727 30.0168 47.1875 27.6605 47.1875 25.25C47.1875 22.0177 45.9035 18.9177 43.6179 16.6321C41.3323 14.3465 38.2323 13.0625 35 13.0625V13.0625Z" fill="#05CDE1"/>
</svg>
