<svg width="70" height="70" viewBox="0 0 70 70" fill="none" xmlns="http://www.w3.org/2000/svg">
<path d="M67.25 35C67.25 17.1953 52.8047 2.75 35 2.75C17.1953 2.75 2.75 17.1953 2.75 35C2.75 52.8047 17.1953 67.25 35 67.25C52.8047 67.25 67.25 52.8047 67.25 35Z" stroke="#BB7CF5" stroke-width="5" stroke-miterlimit="10"/>
<path d="M41.8143 38.1694L35 45.0636L28.1857 38.1694C23.0786 38.3935 19 42.621 19 47.8386V48.5323C19 50.4474 20.5357 52.0011 22.4286 52.0011H47.5714C49.4643 52.0011 51 50.4474 51 48.5323V47.8386C51 42.621 46.9214 38.3935 41.8143 38.1694V38.1694ZM19.9714 20.7679L20.4286 20.8763V25.0966C19.9286 25.4001 19.5714 25.9276 19.5714 26.5636C19.5714 27.1706 19.9 27.6765 20.3643 27.9872L19.25 32.4894C19.1286 32.988 19.4 33.5011 19.7929 33.5011H22.7786C23.1714 33.5011 23.4429 32.988 23.3214 32.4894L22.2071 27.9872C22.6714 27.6765 23 27.1706 23 26.5636C23 25.9276 22.6429 25.4001 22.1429 25.0966V21.2954L26.8571 22.4444C26.2429 23.6874 25.8571 25.0749 25.8571 26.5636C25.8571 31.6728 29.95 35.8136 35 35.8136C40.05 35.8136 44.1429 31.6728 44.1429 26.5636C44.1429 25.0749 43.7643 23.6874 43.1429 22.4444L50.0214 20.7679C51.3214 20.4499 51.3214 18.8095 50.0214 18.4915L36.4214 15.1673C35.4929 14.9433 34.5143 14.9433 33.5857 15.1673L19.9714 18.4843C18.6786 18.8022 18.6786 20.4499 19.9714 20.7679V20.7679Z" fill="#BB7CF5"/>
</svg>
