<?xml version="1.0" encoding="UTF-8"?>
<svg width="22px" height="19px" viewBox="0 0 22 19" version="1.1" xmlns="http://www.w3.org/2000/svg" xmlns:xlink="http://www.w3.org/1999/xlink">
    <title>export_icon</title>
    <g id="Page-1" stroke="none" stroke-width="1" fill="none" fill-rule="evenodd">
        <g id="export_icon" fill="#FFFFFF" fill-rule="nonzero">
            <path d="M13.31,14.38 L12,15.64 L12,10 C12,9.7348 11.8946,9.4804 11.7071,9.2929 C11.5196,9.1054 11.2652,9 11,9 C10.7348,9 10.4804,9.1054 10.2929,9.2929 C10.1054,9.4804 10,9.7348 10,10 L10,15.59 L8.71,14.29 C8.6168,14.1968 8.5061,14.1228 8.3843,14.0723 C8.2624,14.0219 8.1319,13.9959 8,13.9959 C7.8681,13.9959 7.7376,14.0219 7.6158,14.0723 C7.4939,14.1228 7.3832,14.1968 7.29,14.29 C7.1968,14.3832 7.1228,14.4939 7.0723,14.6158 C7.0219,14.7376 6.9959,14.8681 6.9959,15 C6.9959,15.1319 7.0219,15.2624 7.0723,15.3842 C7.1228,15.5061 7.1968,15.6168 7.29,15.71 L10.29,18.71 C10.3834,18.8027 10.4943,18.876 10.6161,18.9258 C10.7379,18.9755 10.8684,19.0008 11,19.0000184 C11.2575,18.999 11.5046,18.8987 11.69,18.72 L14.69,15.82 C14.7961,15.7324 14.883,15.6239 14.9453,15.5013 C15.0075,15.3786 15.0438,15.2444 15.0518,15.107 C15.0599,14.9697 15.0395,14.8322 14.9919,14.7031 C14.9444,14.574 14.8707,14.4561 14.7755,14.3568 C14.6803,14.2575 14.5657,14.1788 14.4387,14.1259 C14.3118,14.0729 14.1753,14.0466 14.0377,14.0488 C13.9002,14.051 13.7645,14.0815 13.6393,14.1385 C13.5141,14.1955 13.402,14.2777 13.31,14.38 L13.31,14.38 Z" id="Path"></path>
            <path d="M16.67,5 C16.262,3.8211 15.4966,2.7986 14.4803,2.075 C13.4641,1.3513 12.2476,0.96242 11,0.96242 C9.7524,0.96242 8.5359,1.3513 7.5197,2.075 C6.5034,2.7986 5.738,3.8211 5.33,5 C4.4316,5.1203 3.5827,5.4827 2.8743,6.0482 C2.1659,6.6137 1.6245,7.3612 1.3082,8.2107 C0.9918,9.0602 0.91231,9.9797 1.0782,10.8708 C1.2441,11.762 1.6491,12.5913 2.25,13.27 C2.3226,13.3978 2.4225,13.5081 2.5425,13.593 C2.6626,13.6778 2.7998,13.7351 2.9446,13.7609 C3.0893,13.7866 3.238,13.7801 3.3799,13.7418 C3.5218,13.7036 3.6536,13.6345 3.7658,13.5395 C3.878,13.4445 3.9679,13.3259 4.029,13.1922 C4.0902,13.0586 4.1211,12.913 4.1196,12.766 C4.1181,12.619 4.0842,12.4742 4.0203,12.3418 C3.9564,12.2094 3.8641,12.0927 3.75,12 C3.3631,11.5675 3.11,11.032 3.0213,10.4585 C2.9326,9.885 3.0121,9.2981 3.2503,8.7689 C3.4884,8.2397 3.8749,7.7909 4.363,7.4769 C4.851,7.163 5.4197,6.9973 6,7 L6.1,7 C6.3339,7.0047 6.5621,6.9272 6.7449,6.7811 C6.9276,6.6349 7.0532,6.4293 7.1,6.2 C7.2836,5.2958 7.7742,4.4828 8.4886,3.8989 C9.203,3.315 10.0973,2.996 11.02,2.996 C11.9427,2.996 12.837,3.315 13.5514,3.8989 C14.2658,4.4828 14.7564,5.2958 14.94,6.2 C14.9868,6.4293 15.1124,6.6349 15.2951,6.7811 C15.4779,6.9272 15.7061,7.0047 15.94,7 L16,7 C16.5803,6.9973 17.149,7.163 17.637,7.4769 C18.1251,7.7909 18.5116,8.2397 18.7497,8.7689 C18.9879,9.2981 19.0674,9.885 18.9787,10.4585 C18.89,11.032 18.6369,11.5675 18.25,12 C18.1619,12.0988 18.0943,12.2141 18.0511,12.3392 C18.0079,12.4643 17.99,12.5967 17.9984,12.7288 C18.0067,12.8609 18.0412,12.99 18.0999,13.1087 C18.1585,13.2273 18.2401,13.3331 18.34,13.42 C18.5223,13.5808 18.7569,13.6697 19,13.67 C19.142,13.6698 19.2823,13.6394 19.4116,13.5808 C19.5409,13.5222 19.6563,13.4367 19.75,13.33 C20.3675,12.6524 20.7869,11.8182 20.9622,10.9183 C21.1376,10.0185 21.0622,9.0878 20.7442,8.228 C20.4263,7.3681 19.8781,6.6122 19.1596,6.0429 C18.441,5.4736 17.5798,5.1128 16.67,5 L16.67,5 Z" id="Path"></path>
        </g>
    </g>
</svg>