<svg width="38" height="46" viewBox="0 0 38 46" fill="none" xmlns="http://www.w3.org/2000/svg">
<path fill-rule="evenodd" clip-rule="evenodd" d="M0 9.75758C0 5.90832 3.15059 2.78788 7.03704 2.78788H30.963C34.8494 2.78788 38 5.90832 38 9.75758V39.0303C38 42.8796 34.8494 46 30.963 46H7.03704C3.15059 46 0 42.8796 0 39.0303V9.75758ZM7.03704 5.57576C4.70517 5.57576 2.81481 7.44802 2.81481 9.75758V39.0303C2.81481 41.3399 4.70517 43.2121 7.03704 43.2121H30.963C33.2948 43.2121 35.1852 41.3399 35.1852 39.0303V9.75758C35.1852 7.44802 33.2948 5.57576 30.963 5.57576H7.03704Z" fill="white"/>
<path d="M11.2593 1.39394C11.2593 0.624088 11.8894 0 12.6667 0H25.3333C26.1106 0 26.7407 0.624088 26.7407 1.39394V5.57576C26.7407 6.34561 26.1106 6.9697 25.3333 6.9697H12.6667C11.8894 6.9697 11.2593 6.34561 11.2593 5.57576V1.39394Z" fill="white"/>
<line x1="8.5" y1="16.5" x2="30.5" y2="16.5" stroke="white" stroke-linecap="round"/>
<line x1="8.5" y1="20.5" x2="30.5" y2="20.5" stroke="white" stroke-linecap="round"/>
<line x1="8.5" y1="24.5" x2="30.5" y2="24.5" stroke="white" stroke-linecap="round"/>
<line x1="8.5" y1="28.5" x2="30.5" y2="28.5" stroke="white" stroke-linecap="round"/>
<line x1="8.5" y1="32.5" x2="22.5" y2="32.5" stroke="white" stroke-linecap="round"/>
</svg>
