<svg width="40" height="36" viewBox="0 0 40 36" fill="none" xmlns="http://www.w3.org/2000/svg">
<path d="M26.8726 5.66471C26.9262 3.85169 28.4229 2.39107 30.2576 2.39107C32.1273 2.39107 33.6473 3.90269 33.6473 5.76209C33.6473 7.62148 32.1273 9.13311 30.2576 9.13311C29.4697 9.13311 28.7423 8.86185 28.1665 8.40975C28.318 8.97545 28.4159 9.56434 28.4486 10.1695C29.0081 10.3967 29.6165 10.5242 30.2576 10.5242C32.899 10.5242 35.0461 8.38657 35.0461 5.76209C35.0484 3.13761 32.899 1 30.2576 1C28.1222 1 26.3108 2.3957 25.6953 4.32001C26.1313 4.72574 26.5276 5.17784 26.8726 5.66471Z" fill="white" stroke="white"/>
<path d="M38.8602 17.6556C38.7343 17.4887 35.7199 13.5751 30.1598 13.6679C29.3135 13.6818 28.5326 13.7815 27.8122 13.9415C27.5581 14.5582 27.234 15.1401 26.8494 15.678C27.8005 15.3279 28.9126 15.0821 30.1831 15.0613C30.2391 15.0613 30.295 15.0589 30.3486 15.0589C34.4587 15.0589 36.9951 17.6371 37.6013 18.3256V25.325C37.6013 25.4294 37.515 25.5151 37.4101 25.5151H33.0343V26.9062H37.4101C38.2867 26.9062 39 26.1968 39 25.325V17.8434L38.8602 17.6556Z" fill="white" stroke="white"/>
<path d="M9.74232 10.5265C10.1783 10.5265 10.6002 10.4639 11.0036 10.3526C11.0222 9.824 11.0875 9.30467 11.197 8.80389C10.7564 9.01255 10.2645 9.13543 9.74232 9.13543C7.87263 9.13543 6.35263 7.6238 6.35263 5.76441C6.35263 3.90501 7.87263 2.39107 9.74232 2.39107C11.3696 2.39107 12.731 3.53638 13.0574 5.0596C13.3955 4.66083 13.7685 4.29219 14.1718 3.96065C13.4561 2.22414 11.7402 1 9.74232 1C7.10097 1 4.95386 3.13761 4.95386 5.76209C4.95386 8.38889 7.10097 10.5265 9.74232 10.5265Z" fill="white" stroke="white"/>
<path d="M6.42258 25.5128H2.58994C2.48503 25.5128 2.39877 25.427 2.39877 25.3227V18.321C2.98393 17.644 5.4411 15.1308 9.66773 15.059C10.6865 15.0427 11.6097 15.1865 12.4326 15.4206C12.0993 14.9152 11.8172 14.375 11.5934 13.8047C10.9826 13.7073 10.3321 13.6563 9.64442 13.6679C4.09828 13.7629 1.25644 17.5003 1.13755 17.6602L1 17.8457V25.325C1 26.1968 1.71337 26.9062 2.58994 26.9062H6.42258V25.5128Z" fill="white" stroke="white"/>
<path d="M28.0033 35H11.4558C10.5023 35 9.72601 34.228 9.72601 33.2798V24.6644L9.86356 24.4813C9.99877 24.2981 13.2579 20.0159 19.6177 19.907C25.9984 19.805 29.4487 24.2842 29.5933 24.4766L29.7331 24.6621V33.2798C29.7331 34.228 28.9568 35 28.0033 35ZM11.1271 25.142V33.2798C11.1271 33.4606 11.274 33.609 11.4582 33.609H28.0056C28.1875 33.609 28.3367 33.4629 28.3367 33.2798V25.142C27.6676 24.37 24.6253 21.2099 19.6456 21.298C14.673 21.3838 11.7729 24.3932 11.1271 25.142ZM19.7296 16.056C16.7362 16.056 14.3 13.6333 14.3 10.6564C14.3 7.67949 16.7362 5.25439 19.7296 5.25439C22.7229 5.25439 25.1591 7.67717 25.1591 10.6541C25.1591 13.6309 22.7229 16.056 19.7296 16.056ZM19.7296 6.64546C17.5055 6.64546 15.6988 8.44458 15.6988 10.6541C15.6988 12.8635 17.5079 14.6626 19.7296 14.6626C21.9513 14.6626 23.7604 12.8635 23.7604 10.6541C23.7604 8.44458 21.9536 6.64546 19.7296 6.64546Z" fill="white" stroke="white"/>
</svg>
