<svg width="39" height="39" viewBox="0 0 39 39" fill="none" xmlns="http://www.w3.org/2000/svg">
<path d="M34.5083 35.9333V3C34.5083 1.34315 33.1652 0 31.5083 0H7.99167C6.33481 0 4.99167 1.34315 4.99167 3V35.9333H1.78333C1.07457 35.9333 0.5 36.5079 0.5 37.2167C0.5 37.9254 1.07457 38.5 1.78333 38.5H37.7167C38.4254 38.5 39 37.9254 39 37.2167C39 36.5079 38.4254 35.9333 37.7167 35.9333H34.5083ZM31.9417 35.9333H21.0333V31.3C21.0333 31.0239 20.8095 30.8 20.5333 30.8H18.9667C18.6905 30.8 18.4667 31.0239 18.4667 31.3V35.9333H7.55833V2.56667H31.9417V35.9333Z" fill="white"/>
<path d="M12.05 23.6001C12.05 23.324 12.2738 23.1001 12.55 23.1001H14.1167C14.3928 23.1001 14.6167 23.324 14.6167 23.6001V25.1668C14.6167 25.4429 14.3928 25.6668 14.1167 25.6668H12.55C12.2738 25.6668 12.05 25.4429 12.05 25.1668V23.6001Z" fill="white"/>
<path d="M18.4667 23.6001C18.4667 23.324 18.6905 23.1001 18.9667 23.1001H20.5333C20.8095 23.1001 21.0333 23.324 21.0333 23.6001V25.1668C21.0333 25.4429 20.8095 25.6668 20.5333 25.6668H18.9667C18.6905 25.6668 18.4667 25.4429 18.4667 25.1668V23.6001Z" fill="white"/>
<path d="M24.8833 23.6001C24.8833 23.324 25.1072 23.1001 25.3833 23.1001H26.95C27.2261 23.1001 27.45 23.324 27.45 23.6001V25.1668C27.45 25.4429 27.2261 25.6668 26.95 25.6668H25.3833C25.1072 25.6668 24.8833 25.4429 24.8833 25.1668V23.6001Z" fill="white"/>
<path d="M12.05 15.8999C12.05 15.6238 12.2738 15.3999 12.55 15.3999H14.1167C14.3928 15.3999 14.6167 15.6238 14.6167 15.8999V17.4666C14.6167 17.7428 14.3928 17.9666 14.1167 17.9666H12.55C12.2738 17.9666 12.05 17.7428 12.05 17.4666V15.8999Z" fill="white"/>
<path d="M18.4667 15.8999C18.4667 15.6238 18.6905 15.3999 18.9667 15.3999H20.5333C20.8095 15.3999 21.0333 15.6238 21.0333 15.8999V17.4666C21.0333 17.7428 20.8095 17.9666 20.5333 17.9666H18.9667C18.6905 17.9666 18.4667 17.7428 18.4667 17.4666V15.8999Z" fill="white"/>
<path d="M24.8833 15.8999C24.8833 15.6238 25.1072 15.3999 25.3833 15.3999H26.95C27.2261 15.3999 27.45 15.6238 27.45 15.8999V17.4666C27.45 17.7428 27.2261 17.9666 26.95 17.9666H25.3833C25.1072 17.9666 24.8833 17.7428 24.8833 17.4666V15.8999Z" fill="white"/>
<path d="M12.05 8.19995C12.05 7.92381 12.2738 7.69995 12.55 7.69995H14.1167C14.3928 7.69995 14.6167 7.92381 14.6167 8.19995V9.7666C14.6167 10.0427 14.3928 10.2666 14.1167 10.2666H12.55C12.2738 10.2666 12.05 10.0427 12.05 9.7666V8.19995Z" fill="white"/>
<path d="M18.4667 8.19995C18.4667 7.92381 18.6905 7.69995 18.9667 7.69995H20.5333C20.8095 7.69995 21.0333 7.92381 21.0333 8.19995V9.7666C21.0333 10.0427 20.8095 10.2666 20.5333 10.2666H18.9667C18.6905 10.2666 18.4667 10.0427 18.4667 9.7666V8.19995Z" fill="white"/>
<path d="M24.8833 8.19995C24.8833 7.92381 25.1072 7.69995 25.3833 7.69995H26.95C27.2261 7.69995 27.45 7.92381 27.45 8.19995V9.7666C27.45 10.0427 27.2261 10.2666 26.95 10.2666H25.3833C25.1072 10.2666 24.8833 10.0427 24.8833 9.7666V8.19995Z" fill="white"/>
</svg>
