<svg width="38" height="33" viewBox="0 0 38 33" fill="none" xmlns="http://www.w3.org/2000/svg">
<rect x="9.89999" y="29.7" width="18.15" height="3.3" rx="1" fill="white"/>
<path fill-rule="evenodd" clip-rule="evenodd" d="M3 0C1.34315 0 0 1.34314 0 3V23.4C0 25.0569 1.34315 26.4 3 26.4H34.95C36.6069 26.4 37.95 25.0569 37.95 23.4V3C37.95 1.34315 36.6068 0 34.95 0H3ZM21.12 16.1714C22.6581 15.3786 23.76 13.2395 23.76 10.725C23.76 7.53555 21.987 4.95 19.8 4.95C17.613 4.95 15.84 7.53555 15.84 10.725C15.84 13.2395 16.9419 15.3786 18.48 16.1714V18.2325C15.4674 18.6147 13.2 20.2794 13.2 22.275C13.2 24.1241 15.1466 24.0585 17.8288 23.9682C18.4513 23.9473 19.1134 23.925 19.8 23.925C20.4866 23.925 21.1487 23.9473 21.7712 23.9682C24.4534 24.0585 26.4 24.1241 26.4 22.275C26.4 20.2794 24.1326 18.6147 21.12 18.2325V16.1714ZM32.175 4.95C31.7194 4.95 31.35 5.31936 31.35 5.775V7.425C31.35 7.88063 31.7194 8.25 32.175 8.25H33.825C34.2806 8.25 34.65 7.88063 34.65 7.425V5.775C34.65 5.31936 34.2806 4.95 33.825 4.95H32.175ZM32.175 11.55C31.7194 11.55 31.35 11.9194 31.35 12.375V14.025C31.35 14.4806 31.7194 14.85 32.175 14.85H33.825C34.2806 14.85 34.65 14.4806 34.65 14.025V12.375C34.65 11.9194 34.2806 11.55 33.825 11.55H32.175ZM31.35 18.975C31.35 18.5194 31.7194 18.15 32.175 18.15H33.825C34.2806 18.15 34.65 18.5194 34.65 18.975V20.625C34.65 21.0806 34.2806 21.45 33.825 21.45H32.175C31.7194 21.45 31.35 21.0806 31.35 20.625V18.975Z" fill="white"/>
</svg>
