<svg width="37" height="34" viewBox="0 0 37 34" fill="none" xmlns="http://www.w3.org/2000/svg">
<path d="M27.5731 25.002L18.3821 30.1719L9.19104 25.002V19.5397L6.56503 18.0808V24.7832C6.56503 25.867 7.14962 26.8665 8.09425 27.3979L16.9113 32.3575C17.8245 32.8712 18.9396 32.8712 19.8528 32.3575L28.6699 27.3979C29.6145 26.8665 30.1991 25.867 30.1991 24.7832V18.0808L27.5731 19.5397V25.002Z" fill="white"/>
<path d="M19.763 0.716046C18.8971 0.267065 17.867 0.267066 17.0011 0.716047L1.0267 8.99905C0.395939 9.32611 0 9.97742 0 10.6879C0 11.3788 0.37458 12.0154 0.978543 12.351L16.9251 21.2099C17.8312 21.7133 18.9329 21.7133 19.8389 21.2099L34.1381 13.2662V19.2046C34.1381 19.9297 34.7259 20.5176 35.4511 20.5176C36.1762 20.5176 36.7641 19.9297 36.7641 19.2046V11.3552C36.7641 10.2347 36.1397 9.20767 35.145 8.69191L19.763 0.716046ZM31.5121 11.7211L28.8861 13.1799L18.382 19.0158L7.87802 13.1799L5.25201 11.7211L3.43194 10.7099L18.382 2.95803L33.3321 10.7099L31.5121 11.7211Z" fill="white"/>
</svg>
