<svg width="39" height="39" viewBox="0 0 39 39" fill="none" xmlns="http://www.w3.org/2000/svg">
<path d="M35.9531 1.21875H3.04688C2.5622 1.21931 2.09754 1.4121 1.75482 1.75482C1.4121 2.09754 1.21931 2.5622 1.21875 3.04688V15.2344H3.65625V3.65625H35.3438V35.3438H3.65625V23.1562H1.21875V35.9531C1.21931 36.4378 1.4121 36.9025 1.75482 37.2452C2.09754 37.5879 2.5622 37.7807 3.04688 37.7812H35.9531C36.4378 37.7807 36.9025 37.5879 37.2452 37.2452C37.5879 36.9025 37.7807 36.4378 37.7812 35.9531V3.04688C37.7807 2.5622 37.5879 2.09754 37.2452 1.75482C36.9025 1.4121 36.4378 1.21931 35.9531 1.21875Z" fill="white"/>
<path d="M15.9486 27.6736L17.6722 29.3972L27.9267 19.1427L17.6722 8.88818L15.9486 10.6116L23.2609 17.924H1.21875V20.3615H23.2608L15.9486 27.6736Z" fill="white"/>
</svg>
