<svg width="38" height="38" viewBox="0 0 38 38" fill="none" xmlns="http://www.w3.org/2000/svg">
<path fill-rule="evenodd" clip-rule="evenodd" d="M38 19C38 24.0391 35.9982 28.8718 32.435 32.435C28.8718 35.9982 24.0391 38 19 38C13.9609 38 9.12816 35.9982 5.56497 32.435C2.00178 28.8718 0 24.0391 0 19C0 13.9609 2.00178 9.12816 5.56497 5.56497C9.12816 2.00178 13.9609 0 19 0C24.0391 0 28.8718 2.00178 32.435 5.56497C35.9982 9.12816 38 13.9609 38 19ZM19.8407 25.2843C20.0637 25.5072 20.189 25.8097 20.189 26.125C20.189 26.4403 20.0637 26.7428 19.8407 26.9657C19.6178 27.1887 19.3153 27.314 19 27.314C18.6847 27.314 18.3822 27.1887 18.1593 26.9657L11.0343 19.8407C10.9237 19.7304 10.8359 19.5994 10.7761 19.4551C10.7162 19.3109 10.6854 19.1562 10.6854 19C10.6854 18.8438 10.7162 18.6891 10.7761 18.5449C10.8359 18.4006 10.9237 18.2696 11.0343 18.1593L18.1593 11.0343C18.2697 10.9238 18.4007 10.8363 18.545 10.7765C18.6892 10.7168 18.8439 10.686 19 10.686C19.1561 10.686 19.3108 10.7168 19.455 10.7765C19.5993 10.8363 19.7303 10.9238 19.8407 11.0343C19.9512 11.1447 20.0387 11.2757 20.0985 11.42C20.1582 11.5642 20.189 11.7189 20.189 11.875C20.189 12.0311 20.1582 12.1858 20.0985 12.33C20.0387 12.4743 19.9512 12.6053 19.8407 12.7157L14.7416 17.8125H26.125C26.4399 17.8125 26.742 17.9376 26.9647 18.1603C27.1874 18.383 27.3125 18.6851 27.3125 19C27.3125 19.3149 27.1874 19.617 26.9647 19.8397C26.742 20.0624 26.4399 20.1875 26.125 20.1875H14.7416L19.8407 25.2843Z" fill="#455A64" fill-opacity="0.5"/>
</svg>
