<svg width="130" height="24" viewBox="0 0 130 24" fill="none" xmlns="http://www.w3.org/2000/svg">
<path d="M57.8325 4.89358C61.5382 4.89358 64.5508 7.95819 64.5508 11.7219C64.5508 15.4856 61.5356 18.5502 57.8325 18.5502C54.1295 18.5502 51.1142 15.4856 51.1142 11.7219C51.1142 7.95819 54.1268 4.89358 57.8325 4.89358ZM57.8325 2.99683C53.0924 2.99683 49.248 6.90414 49.248 11.7219C49.248 16.5396 53.0924 20.4469 57.8325 20.4469C62.5727 20.4469 66.417 16.5396 66.417 11.7219C66.417 6.90414 62.5727 2.99683 57.8325 2.99683Z" fill="#333333"/>
<path d="M57.8592 12.7841C58.6249 12.7841 59.2455 12.1533 59.2455 11.3751C59.2455 10.5969 58.6249 9.96606 57.8592 9.96606C57.0936 9.96606 56.4729 10.5969 56.4729 11.3751C56.4729 12.1533 57.0936 12.7841 57.8592 12.7841Z" fill="#333333"/>
<path d="M59.3094 8.12631L61.1623 3.62288C61.157 3.62017 61.149 3.61746 61.1436 3.61475L59.2908 8.11818C59.2961 8.12089 59.3014 8.1236 59.3094 8.12631Z" fill="#F15A29"/>
<path d="M56.3342 8.06676L54.5133 3.55249C52.3859 4.44938 50.8076 6.12936 49.9598 8.13721L53.4923 9.74945C53.9348 9.94996 54.4547 9.80364 54.7293 9.3972C55.1159 8.82275 55.6624 8.35398 56.3342 8.06676Z" fill="#EF485F"/>
<path d="M54.5401 3.54168C54.5294 3.54439 54.5214 3.54981 54.5134 3.55523L56.3343 8.0695C56.345 8.06679 56.353 8.06137 56.361 8.05595C57.334 7.6495 58.3844 7.70641 59.2909 8.11827L61.1437 3.61484C59.1043 2.72066 56.7395 2.62311 54.5401 3.54168Z" fill="#FFD107"/>
<path d="M59.3094 8.12623C59.9599 8.427 60.5331 8.91203 60.949 9.5488C61.2103 9.94712 61.7195 10.088 62.1567 9.90647L65.7585 8.40533C64.8574 6.16987 63.1671 4.51157 61.1623 3.6228L59.3094 8.12623Z" fill="#36C2D8"/>
<path d="M57.6965 10.6164L62.7299 6.80396L58.603 11.6109L57.6965 10.6164Z" fill="#333333"/>
<path d="M8.21584 12.3641C9.10628 13.0469 9.5515 13.9926 9.5515 15.1984C9.5515 16.4042 9.12227 17.3525 8.26649 18.0435C7.41071 18.7344 6.21902 19.0813 4.69674 19.0813C3.17446 19.0813 1.92944 18.8428 0.964355 18.3659V16.2524C2.27069 16.8811 3.56103 17.1954 4.8407 17.1954C5.69115 17.1954 6.32565 17.0301 6.74688 16.7022C7.16811 16.3743 7.37872 15.9381 7.37872 15.3907C7.37872 14.8461 7.1921 14.3963 6.81886 14.0495C6.44562 13.6999 5.64849 13.2745 4.4328 12.7732C3.21711 12.2719 2.35867 11.6975 1.86279 11.0472C1.36692 10.3969 1.11898 9.62462 1.11898 8.72501C1.11898 7.58425 1.51888 6.68736 2.31601 6.03433C3.11581 5.38131 4.16621 5.05615 5.47254 5.05615C6.77887 5.05615 8.07188 5.34338 9.35688 5.91511L8.65306 7.7387C7.4507 7.22658 6.38697 6.97187 5.46188 6.97187C4.76872 6.97187 4.23552 7.12632 3.85962 7.43251C3.48638 7.7387 3.29976 8.15599 3.29976 8.68166C3.29976 9.04204 3.37174 9.34823 3.51304 9.60294C3.67566 9.86578 3.9236 10.1042 4.25152 10.3183C4.5821 10.5323 5.21127 10.8358 6.13904 11.2314C7.0668 11.6298 7.75996 12.0064 8.21584 12.3641Z" fill="#333333"/>
<path d="M14.6462 18.8945H12.4547V5.25415H14.6462V11.7627C15.2913 10.9607 15.8858 10.2453 16.4297 9.61668L20.0608 5.25415H22.5588C20.3567 7.8798 18.6745 9.8741 17.5121 11.2343L22.6921 18.8945H20.1541L15.9418 12.7165L14.6462 13.795V18.8945Z" fill="#333333"/>
<path d="M26.9605 18.8945H24.769V5.25415H26.9605V18.8945Z" fill="#333333"/>
<path d="M38.6748 18.8945H30.8021V5.25415H32.9936V16.9869H38.6748V18.8945Z" fill="#333333"/>
<path d="M49.1654 18.8945H41.2927V5.25415H43.4842V16.9869H49.1654V18.8945Z" fill="#333333"/>
<path d="M70.9518 12.2613V18.8945H68.963V5.25415H72.0529L75.7746 16.1063H75.8359L79.6723 5.25415H82.7728V18.8945H80.6614V12.1475C80.6614 11.5947 80.6774 10.7439 80.712 9.59229C80.7467 8.44069 80.776 7.75244 80.8027 7.52483H80.72L76.6917 18.8945H74.7535L70.8719 7.50316H70.7999C70.9012 9.19669 70.9518 10.7818 70.9518 12.2613Z" fill="#333333"/>
<path d="M94.1992 16.9978V18.8945H86.6118V5.25415H94.1992V7.14006H88.8033V10.8496H93.8606V12.7138H88.8033V16.995H94.1992V16.9978Z" fill="#333333"/>
<path d="M102.037 7.17258V18.8945H99.8458V7.17258H95.9001V5.25415H105.986V7.17258H102.037Z" fill="#333333"/>
<path d="M115.935 16.9978V18.8945H108.348V5.25415H115.935V7.14006H110.539V10.8496H115.596V12.7138H110.539V16.995H115.935V16.9978Z" fill="#333333"/>
<path d="M121.334 13.4427V18.8945H119.142V5.25415H122.925C124.653 5.25415 125.932 5.58202 126.77 6.23775C127.607 6.89349 128.025 7.89335 128.025 9.23191C128.025 10.9254 127.156 12.1339 125.415 12.8601L129.209 18.8918H126.711L123.498 13.44H121.334V13.4427ZM121.334 7.14277V11.6001H122.853C123.858 11.6001 124.594 11.4132 125.061 11.0365C125.527 10.6599 125.759 10.0882 125.759 9.32133C125.759 8.5545 125.517 7.99902 125.029 7.65761C124.541 7.31619 123.794 7.14548 122.781 7.14548H121.334V7.14277Z" fill="#333333"/>
</svg>
