<svg width="315" height="58" viewBox="0 0 315 58" fill="none" xmlns="http://www.w3.org/2000/svg">
<path d="M139.682 11.8265C148.784 11.8265 156.184 19.2326 156.184 28.3282C156.184 37.4238 148.778 44.83 139.682 44.83C130.586 44.83 123.18 37.4238 123.18 28.3282C123.18 19.2326 130.58 11.8265 139.682 11.8265ZM139.682 7.24268C128.039 7.24268 118.596 16.6853 118.596 28.3282C118.596 39.9711 128.039 49.4138 139.682 49.4138C151.325 49.4138 160.768 39.9711 160.768 28.3282C160.768 16.6853 151.325 7.24268 139.682 7.24268Z" fill="#333333"/>
<path d="M139.747 30.8952C141.628 30.8952 143.153 29.3707 143.153 27.4901C143.153 25.6095 141.628 24.085 139.747 24.085C137.867 24.085 136.342 25.6095 136.342 27.4901C136.342 29.3707 137.867 30.8952 139.747 30.8952Z" fill="#333333"/>
<path d="M143.31 19.6388L147.861 8.75548C147.848 8.74894 147.828 8.74239 147.815 8.73584L143.264 19.6191C143.277 19.6257 143.29 19.6322 143.31 19.6388Z" fill="#F15A29"/>
<path d="M136.002 19.4944L131.529 8.58496C126.304 10.7525 122.427 14.8124 120.345 19.6647L129.021 23.561C130.108 24.0455 131.385 23.6919 132.06 22.7097C133.009 21.3214 134.352 20.1886 136.002 19.4944Z" fill="#EF485F"/>
<path d="M131.595 8.55877C131.569 8.56532 131.549 8.57842 131.529 8.59151L136.002 19.501C136.028 19.4945 136.048 19.4814 136.067 19.4683C138.457 18.486 141.038 18.6235 143.264 19.6189L147.815 8.73558C142.806 6.57463 136.997 6.3389 131.595 8.55877Z" fill="#FFD107"/>
<path d="M143.31 19.6387C144.908 20.3655 146.316 21.5377 147.337 23.0765C147.979 24.0391 149.23 24.3796 150.303 23.9409L159.15 20.3131C156.937 14.9108 152.785 10.9032 147.861 8.75537L143.31 19.6387Z" fill="#36C2D8"/>
<path d="M139.348 25.6563L151.711 16.4429L141.575 28.0596L139.348 25.6563Z" fill="#333333"/>
<path d="M17.8114 29.88C19.9985 31.5302 21.0921 33.8156 21.0921 36.7296C21.0921 39.6436 20.0378 41.9355 17.9358 43.6053C15.8338 45.2751 12.9067 46.1133 9.16764 46.1133C5.42855 46.1133 2.37049 45.5371 0 44.3845V39.2769C3.20867 40.7961 6.37806 41.5557 9.52125 41.5557C11.6102 41.5557 13.1687 41.1562 14.2033 40.3639C15.2379 39.5715 15.7552 38.5173 15.7552 37.1945C15.7552 35.8783 15.2969 34.7913 14.3801 33.9531C13.4633 33.1084 11.5054 32.0803 8.51935 30.8688C5.53332 29.6574 3.42477 28.2692 2.20678 26.6976C0.988795 25.126 0.379802 23.2597 0.379802 21.0857C0.379802 18.3288 1.36205 16.1613 3.31999 14.5832C5.28449 13.005 7.86452 12.2192 11.0732 12.2192C14.2819 12.2192 17.4578 12.9134 20.6141 14.2951L18.8853 18.7021C15.932 17.4644 13.3193 16.8489 11.047 16.8489C9.34444 16.8489 8.03478 17.2221 7.11147 17.9621C6.1947 18.7021 5.73632 19.7105 5.73632 20.9809C5.73632 21.8518 5.91313 22.5918 6.26019 23.2073C6.65963 23.8425 7.26863 24.4187 8.07407 24.9361C8.88606 25.4534 10.4315 26.1868 12.7103 27.1428C14.9891 28.1054 16.6916 29.0157 17.8114 29.88Z" fill="#333333"/>
<path d="M33.6059 45.6615H28.2231V12.6973H33.6059V28.4263C35.1905 26.488 36.6508 24.7593 37.9867 23.24L46.9055 12.6973H53.0412C47.6323 19.0426 43.5004 23.8621 40.6453 27.1494L53.3687 45.6615H47.1347L36.7883 30.7313L33.6059 33.3375V45.6615Z" fill="#333333"/>
<path d="M63.8526 45.6615H58.4699V12.6973H63.8526V45.6615Z" fill="#333333"/>
<path d="M92.6259 45.6615H73.2887V12.6973H78.6714V41.0515H92.6259V45.6615Z" fill="#333333"/>
<path d="M118.393 45.6615H99.0563V12.6973H104.439V41.0515H118.393V45.6615Z" fill="#333333"/>
<path d="M171.906 29.6312V45.6615H167.021V12.6973H174.611L183.752 38.9233H183.903L193.326 12.6973H200.941V45.6615H195.755V29.3562C195.755 28.0203 195.795 25.9641 195.88 23.1811C195.965 20.3981 196.037 18.7348 196.102 18.1848H195.899L186.005 45.6615H181.244L171.71 18.1324H171.533C171.782 22.2251 171.906 26.0558 171.906 29.6312Z" fill="#333333"/>
<path d="M229.008 41.0777V45.6615H210.371V12.6973H229.008V17.2549H215.754V26.2195H228.176V30.7248H215.754V41.0711H229.008V41.0777Z" fill="#333333"/>
<path d="M248.26 17.3335V45.6615H242.877V17.3335H233.185V12.6973H257.958V17.3335H248.26Z" fill="#333333"/>
<path d="M282.396 41.0777V45.6615H263.759V12.6973H282.396V17.2549H269.142V26.2195H281.564V30.7248H269.142V41.0711H282.396V41.0777Z" fill="#333333"/>
<path d="M295.656 32.4863V45.6615H290.274V12.6973H299.566C303.809 12.6973 306.952 13.4896 309.008 15.0743C311.065 16.659 312.093 19.0753 312.093 22.3102C312.093 26.4029 309.958 29.3234 305.682 31.0784L315 45.6549H308.864L300.974 32.4797H295.656V32.4863ZM295.656 17.2614V28.0334H299.389C301.858 28.0334 303.665 27.5816 304.811 26.6714C305.957 25.7611 306.527 24.3795 306.527 22.5263C306.527 20.6731 305.931 19.3307 304.732 18.5056C303.534 17.6805 301.7 17.268 299.212 17.268H295.656V17.2614Z" fill="#333333"/>
</svg>
