<svg width="12" height="11" viewBox="0 0 12 11" fill="none" xmlns="http://www.w3.org/2000/svg">
<path fill-rule="evenodd" clip-rule="evenodd" d="M8.14592 3.64604C8.19236 3.59948 8.24754 3.56253 8.30828 3.53733C8.36903 3.51212 8.43415 3.49915 8.49992 3.49915C8.56568 3.49915 8.63081 3.51212 8.69155 3.53733C8.7523 3.56253 8.80747 3.59948 8.85392 3.64604L11.8539 6.64604C11.9005 6.69248 11.9374 6.74766 11.9626 6.80841C11.9878 6.86915 12.0008 6.93427 12.0008 7.00004C12.0008 7.06581 11.9878 7.13093 11.9626 7.19167C11.9374 7.25242 11.9005 7.30759 11.8539 7.35404L8.85392 10.354C8.76003 10.4479 8.63269 10.5007 8.49992 10.5007C8.36714 10.5007 8.2398 10.4479 8.14592 10.354C8.05203 10.2602 7.99929 10.1328 7.99929 10C7.99929 9.86726 8.05203 9.73993 8.14592 9.64604L10.7929 7.00004L8.14592 4.35404C8.09935 4.30759 8.06241 4.25242 8.0372 4.19167C8.012 4.13093 7.99902 4.06581 7.99902 4.00004C7.99902 3.93427 8.012 3.86915 8.0372 3.80841C8.06241 3.74766 8.09935 3.69248 8.14592 3.64604Z" fill="#9E9E9E"/>
<path fill-rule="evenodd" clip-rule="evenodd" d="M1 0.5C0.867392 0.5 0.740215 0.552679 0.646447 0.646447C0.552679 0.740215 0.5 0.867392 0.5 1V5C0.5 5.66304 0.763392 6.29893 1.23223 6.76777C1.70107 7.23661 2.33696 7.5 3 7.5H11.5C11.6326 7.5 11.7598 7.44732 11.8536 7.35355C11.9473 7.25979 12 7.13261 12 7C12 6.86739 11.9473 6.74021 11.8536 6.64645C11.7598 6.55268 11.6326 6.5 11.5 6.5H3C2.60218 6.5 2.22064 6.34196 1.93934 6.06066C1.65804 5.77936 1.5 5.39782 1.5 5V1C1.5 0.867392 1.44732 0.740215 1.35355 0.646447C1.25979 0.552679 1.13261 0.5 1 0.5Z" fill="#9E9E9E"/>
</svg>
