<svg width="24" height="29" viewBox="0 0 24 29" fill="none" xmlns="http://www.w3.org/2000/svg">
<path d="M12 28.1667C13.5583 28.1667 14.8333 26.8918 14.8333 25.3334H9.16663C9.16663 26.8918 10.4416 28.1667 12 28.1667ZM20.5 19.6667V12.5834C20.5 8.23425 18.1908 4.59341 14.125 3.63008V2.66675C14.125 1.49091 13.1758 0.541748 12 0.541748C10.8241 0.541748 9.87496 1.49091 9.87496 2.66675V3.63008C5.82329 4.59341 3.49996 8.22008 3.49996 12.5834V19.6667L0.666626 22.5001V23.9167H23.3333V22.5001L20.5 19.6667ZM17.6666 21.0834H6.33329V12.5834C6.33329 9.07008 8.47246 6.20842 12 6.20842C15.5275 6.20842 17.6666 9.07008 17.6666 12.5834V21.0834Z" fill="#494949"/>
</svg>
