<svg width="68" height="68" viewBox="0 0 68 68" fill="none" xmlns="http://www.w3.org/2000/svg">
<circle cx="34" cy="34" r="31" stroke="#FF455D" stroke-width="5"/>
<path d="M35.2913 52.625L38.8747 50.8333L42.458 52.625V40.0833H35.2913V52.625ZM42.458 31.125V27.5417L38.8747 29.3333L35.2913 27.5417V31.125L31.708 32.9167L35.2913 34.7083V38.2917L38.8747 36.5L42.458 38.2917V34.7083L46.0413 32.9167L42.458 31.125ZM47.833 20.375H19.1663C18.216 20.375 17.3045 20.7525 16.6325 21.4245C15.9605 22.0965 15.583 23.008 15.583 23.9583V41.875C15.583 42.8254 15.9605 43.7368 16.6325 44.4088C17.3045 45.0808 18.216 45.4583 19.1663 45.4583H31.708V41.875H19.1663V23.9583H47.833V41.875H46.0413V45.4583H47.833C48.7834 45.4583 49.6948 45.0808 50.3668 44.4088C51.0388 43.7368 51.4163 42.8254 51.4163 41.875V23.9583C51.4163 23.008 51.0388 22.0965 50.3668 21.4245C49.6948 20.7525 48.7834 20.375 47.833 20.375ZM31.708 29.3333H20.958V25.75H31.708V29.3333ZM28.1247 34.7083H20.958V31.125H28.1247V34.7083ZM31.708 40.0833H20.958V36.5H31.708V40.0833Z" fill="#FF455D"/>
</svg>
