<svg width="70" height="70" viewBox="0 0 70 70" fill="none" xmlns="http://www.w3.org/2000/svg">
<path d="M67.25 35C67.25 17.1953 52.8047 2.75 35 2.75C17.1953 2.75 2.75 17.1953 2.75 35C2.75 52.8047 17.1953 67.25 35 67.25C52.8047 67.25 67.25 52.8047 67.25 35Z" stroke="#25E775" stroke-width="5" stroke-miterlimit="10"/>
<path d="M22.5886 23.0939L23.7496 28.0389L22.5886 32.9624L26.9101 35.6284L29.5546 39.9499L34.4996 38.7889L39.4446 39.9499L42.0891 35.6284L46.4106 32.9624L45.2496 28.0389L46.4106 23.0939L42.1106 20.4279L39.4446 16.1064L34.4996 17.2889L29.5761 16.1279L26.8886 20.4279L22.5886 23.0939ZM34.5211 36.7249C32.2402 36.7249 30.0528 35.8188 28.44 34.206C26.8272 32.5932 25.9211 30.4058 25.9211 28.1249C25.9211 25.844 26.8272 23.6566 28.44 22.0438C30.0528 20.431 32.2402 19.5249 34.5211 19.5249C39.2511 19.5249 43.0996 23.3734 43.0996 28.1034C43.0996 32.8764 39.2511 36.7249 34.5211 36.7249ZM34.4781 34.5749C30.9091 34.5749 28.0496 31.6939 28.0496 28.1249C28.0496 24.5774 30.9091 21.6749 34.4781 21.6749C38.0471 21.6749 40.9496 24.5774 40.9496 28.1249C40.9496 31.6939 38.0471 34.5749 34.4781 34.5749ZM42.7341 36.9399L39.9821 41.7559L35.5101 40.7454L40.9496 53.2799L43.9596 48.5499H49.3346L42.7341 36.9399ZM26.1791 37.0904L28.8666 41.9279L33.4461 40.8314L28.0496 53.2799L25.0396 48.5499H19.6646L26.1791 37.0904Z" fill="#24E775"/>
</svg>
