<svg width="69" height="69" viewBox="0 0 69 69" fill="none" xmlns="http://www.w3.org/2000/svg">
<path d="M44.5731 44.0019L35.382 49.1719L26.191 44.0019V38.5397L23.565 37.0808V43.7831C23.565 44.8669 24.1496 45.8665 25.0942 46.3978L33.9113 51.3574C34.8245 51.8711 35.9396 51.8711 36.8528 51.3574L45.6699 46.3979C46.6145 45.8665 47.1991 44.8669 47.1991 43.7831V37.0808L44.5731 38.5397V44.0019Z" fill="#05CDE1" stroke="#05CDE1" stroke-width="2"/>
<path d="M36.763 19.716C35.8971 19.2671 34.867 19.2671 34.0011 19.716L18.0267 27.9991C17.3959 28.3261 17 28.9774 17 29.6879V29.6879C17 30.3788 17.3746 31.0154 17.9785 31.351L33.9251 40.2099C34.8312 40.7133 35.9329 40.7133 36.8389 40.2099L51.1381 32.2662V38.2046C51.1381 38.9297 51.7259 39.5176 52.4511 39.5176V39.5176C53.1762 39.5176 53.7641 38.9297 53.7641 38.2046V30.3552C53.7641 29.2347 53.1397 28.2077 52.145 27.6919L36.763 19.716ZM48.5121 30.7211L45.8861 32.1799L35.382 38.0158L24.878 32.1799L22.252 30.7211L20.4319 29.7099L35.382 21.958L50.3321 29.7099L48.5121 30.7211Z" fill="#05CDE1" stroke="#05CDE1" stroke-width="2"/>
<circle cx="34.5" cy="34.5" r="32" stroke="#05CDE1" stroke-width="5"/>
</svg>
