<svg width="70" height="70" viewBox="0 0 70 70" fill="none" xmlns="http://www.w3.org/2000/svg">
<path d="M67.5 35.25C67.5 17.4453 53.0547 3 35.25 3C17.4453 3 3 17.4453 3 35.25C3 53.0547 17.4453 67.5 35.25 67.5C53.0547 67.5 67.5 53.0547 67.5 35.25Z" stroke="#BB7CF5" stroke-width="5" stroke-miterlimit="10"/>
<g clip-path="url(#clip0)">
<path d="M19.5192 19.25C18.8199 19.25 18.25 19.8199 18.25 20.5192V38.2885C18.25 39.677 19.3999 40.8269 20.7885 40.8269H32.8855C33.2221 40.8269 33.545 40.6932 33.783 40.4552C34.021 40.2171 34.1547 39.8943 34.1547 39.5577C34.1547 39.2211 34.021 38.8982 33.783 38.6602C33.545 38.4222 33.2221 38.2885 32.8855 38.2885H20.7885V25.5962H48.7115V38.2885H44.2692C43.9326 38.2885 43.6098 38.4222 43.3717 38.6602C43.1337 38.8982 43 39.2211 43 39.5577C43 39.8943 43.1337 40.2171 43.3717 40.4552C43.6098 40.6932 43.9326 40.8269 44.2692 40.8269H48.7115C50.1001 40.8269 51.25 39.677 51.25 38.2885V20.5192C51.25 19.8199 50.6801 19.25 49.9808 19.25H19.5192ZM23.6049 28.1346C23.2683 28.1819 22.9642 28.361 22.7596 28.6325C22.555 28.9039 22.4667 29.2456 22.514 29.5822C22.5613 29.9188 22.7404 30.2228 23.0118 30.4274C23.2833 30.632 23.6249 30.7204 23.9615 30.6731H34.1154C34.452 30.6731 34.7748 30.5394 35.0129 30.3013C35.2509 30.0633 35.3846 29.7405 35.3846 29.4038C35.3846 29.0672 35.2509 28.7444 35.0129 28.5064C34.7748 28.2683 34.452 28.1346 34.1154 28.1346H23.9615C23.9218 28.1327 23.882 28.1327 23.8422 28.1346C23.8029 28.1328 23.7635 28.1328 23.7242 28.1346C23.6844 28.1328 23.6446 28.1328 23.6049 28.1346ZM40.1049 28.1346C39.7683 28.1819 39.4642 28.361 39.2596 28.6325C39.055 28.9039 38.9667 29.2456 39.014 29.5822C39.0613 29.9188 39.2404 30.2228 39.5118 30.4274C39.7833 30.632 40.1249 30.7204 40.4615 30.6731H45.5385C45.8751 30.6731 46.1979 30.5394 46.4359 30.3013C46.674 30.0633 46.8077 29.7405 46.8077 29.4038C46.8077 29.0672 46.674 28.7444 46.4359 28.5064C46.1979 28.2683 45.8751 28.1346 45.5385 28.1346H40.4615C40.4218 28.1327 40.382 28.1327 40.3422 28.1346C40.3029 28.1328 40.2635 28.1328 40.2242 28.1346C40.1844 28.1328 40.1446 28.1328 40.1049 28.1346ZM23.6049 31.9423C23.4382 31.9657 23.2778 32.0217 23.1327 32.1072C22.9877 32.1926 22.8609 32.3057 22.7596 32.4402C22.555 32.7116 22.4667 33.0532 22.514 33.3899C22.5374 33.5565 22.5934 33.717 22.6788 33.862C22.7643 34.007 22.8774 34.1338 23.0118 34.2351C23.2833 34.4397 23.6249 34.5281 23.9615 34.4808H34.1154C34.452 34.4808 34.7748 34.347 35.0129 34.109C35.2509 33.871 35.3846 33.5482 35.3846 33.2115C35.3846 32.8749 35.2509 32.5521 35.0129 32.3141C34.7748 32.076 34.452 31.9423 34.1154 31.9423H23.9615C23.9218 31.9404 23.882 31.9404 23.8422 31.9423C23.8029 31.9405 23.7635 31.9405 23.7242 31.9423C23.6844 31.9404 23.6446 31.9404 23.6049 31.9423V31.9423ZM44.7058 32.5769C44.6112 32.6222 44.5292 32.6902 44.4672 32.7749L43.7539 33.4895C42.4162 33.6634 40.0668 35.1547 39.4703 35.75L32.7268 42.4934L35.7019 45.4672L42.4453 38.7251C42.9442 38.225 44.5434 35.6815 44.6665 34.3221L45.3392 33.6482C45.433 33.5527 45.4942 33.4301 45.5142 33.2978C45.5341 33.1655 45.5117 33.0303 45.4502 32.9115C45.3887 32.7927 45.2912 32.6963 45.1716 32.6362C45.0521 32.5762 44.9166 32.5554 44.7845 32.5769C44.7583 32.5753 44.7321 32.5753 44.7058 32.5769V32.5769ZM31.5376 43.6433L26.6587 48.521C26.0494 49.1302 25.7613 50.798 26.5787 51.6154C27.3948 52.4328 28.8874 52.2411 29.6337 51.4961L34.5127 46.6184L31.5376 43.6433V43.6433ZM37.2098 44.872C36.9805 44.9065 36.77 45.0185 36.6132 45.1893L31.4982 50.2662C31.3867 50.3554 31.2953 50.4671 31.2299 50.594C31.1645 50.7209 31.1266 50.8602 31.1187 51.0027C31.1107 51.1453 31.133 51.2879 31.1839 51.4213C31.2348 51.5546 31.3133 51.6758 31.4142 51.7768C31.5151 51.8778 31.6362 51.9564 31.7695 52.0074C31.9028 52.0584 32.0454 52.0808 32.188 52.073C32.3306 52.0652 32.4699 52.0274 32.5968 51.9621C32.7238 51.8968 32.8356 51.8055 32.9248 51.6941L38.0424 46.6172C38.1989 46.4697 38.3045 46.2763 38.3441 46.0649C38.3837 45.8535 38.3551 45.635 38.2625 45.4409C38.1699 45.2468 38.018 45.0872 37.8288 44.9849C37.6397 44.8826 37.4229 44.8431 37.2098 44.872Z" fill="#BB7CF5"/>
</g>
<defs>
<clipPath id="clip0">
<rect width="33" height="33" fill="white" transform="translate(18.25 19.25)"/>
</clipPath>
</defs>
</svg>
