<svg width="68" height="68" viewBox="0 0 68 68" fill="none" xmlns="http://www.w3.org/2000/svg">
<circle cx="34" cy="34" r="31" stroke="#FF5BBE" stroke-width="5"/>
<path d="M47.8119 27.7584L38.6378 26.4251L34.5367 18.111C34.4247 17.8833 34.2404 17.699 34.0128 17.587C33.4419 17.3052 32.7481 17.5401 32.4627 18.111L28.3616 26.4251L19.1875 27.7584C18.9346 27.7945 18.7033 27.9138 18.5263 28.0944C18.3122 28.3144 18.1943 28.6104 18.1983 28.9173C18.2024 29.2243 18.3282 29.517 18.548 29.7313L25.1855 36.2027L23.6174 45.3406C23.5806 45.5532 23.6041 45.7718 23.6853 45.9717C23.7664 46.1716 23.902 46.3447 24.0765 46.4715C24.2511 46.5983 24.4576 46.6736 24.6728 46.689C24.888 46.7043 25.1032 46.659 25.2939 46.5583L33.4997 42.2441L41.7055 46.5583C41.9295 46.6776 42.1896 46.7173 42.439 46.6739C43.0677 46.5655 43.4904 45.9694 43.382 45.3406L41.8139 36.2027L48.4515 29.7313C48.6321 29.5542 48.7514 29.323 48.7875 29.07C48.8851 28.4377 48.4442 27.8524 47.8119 27.7584Z" fill="#FF5BBE"/>
</svg>
