<svg width="68" height="68" viewBox="0 0 68 68" fill="none" xmlns="http://www.w3.org/2000/svg">
<circle cx="34" cy="34" r="31" stroke="#FE9844" stroke-width="5"/>
<path d="M48.9999 42H45.6666V37C45.6666 36.558 45.491 36.1341 45.1784 35.8215C44.8659 35.5089 44.4419 35.3333 43.9999 35.3333H35.6666V30.8167L37.5499 31.8C37.8246 31.9437 38.1338 32.0079 38.443 31.9855C38.7521 31.9631 39.0489 31.8549 39.3 31.6731C39.551 31.4913 39.7464 31.2431 39.8642 30.9564C39.9819 30.6697 40.0174 30.3558 39.9666 30.05L39.2999 26.1L42.1666 23.2833C42.3837 23.0713 42.5388 22.804 42.6152 22.5103C42.6915 22.2166 42.6863 21.9076 42.5999 21.6167C42.5033 21.3205 42.3256 21.0573 42.087 20.8569C41.8484 20.6566 41.5584 20.5272 41.2499 20.4833L37.3332 19.8667L35.4999 16.2667C35.3634 15.9849 35.1503 15.7472 34.8851 15.581C34.6198 15.4147 34.313 15.3265 33.9999 15.3265C33.6868 15.3265 33.3801 15.4147 33.1148 15.581C32.8495 15.7472 32.6364 15.9849 32.4999 16.2667L30.6666 19.8667L26.6832 20.45C26.3748 20.4938 26.0848 20.6233 25.8462 20.8236C25.6075 21.0239 25.4298 21.2871 25.3332 21.5833C25.2469 21.8743 25.2416 22.1833 25.318 22.477C25.3943 22.7707 25.5495 23.038 25.7666 23.25L28.6999 26.1L28.0332 30.05C27.9824 30.3558 28.0179 30.6697 28.1357 30.9564C28.2534 31.2431 28.4488 31.4913 28.6999 31.6731C28.9509 31.8549 29.2477 31.9631 29.5568 31.9855C29.866 32.0079 30.1753 31.9437 30.4499 31.8L32.3332 30.8167V35.3333H23.9999C23.5579 35.3333 23.134 35.5089 22.8214 35.8215C22.5088 36.1341 22.3332 36.558 22.3332 37V42H18.9999C18.5579 42 18.134 42.1756 17.8214 42.4882C17.5088 42.8007 17.3332 43.2246 17.3332 43.6667V47C17.3332 47.442 17.5088 47.866 17.8214 48.1785C18.134 48.4911 18.5579 48.6667 18.9999 48.6667C19.4419 48.6667 19.8659 48.4911 20.1784 48.1785C20.491 47.866 20.6666 47.442 20.6666 47V45.3333H27.3332V47C27.3332 47.442 27.5088 47.866 27.8214 48.1785C28.134 48.4911 28.5579 48.6667 28.9999 48.6667C29.4419 48.6667 29.8659 48.4911 30.1784 48.1785C30.491 47.866 30.6666 47.442 30.6666 47V43.6667C30.6666 43.2246 30.491 42.8007 30.1784 42.4882C29.8659 42.1756 29.4419 42 28.9999 42H25.6666V38.6667H42.3332V42H38.9999C38.5579 42 38.134 42.1756 37.8214 42.4882C37.5088 42.8007 37.3332 43.2246 37.3332 43.6667V47C37.3332 47.442 37.5088 47.866 37.8214 48.1785C38.134 48.4911 38.5579 48.6667 38.9999 48.6667C39.4419 48.6667 39.8659 48.4911 40.1784 48.1785C40.491 47.866 40.6666 47.442 40.6666 47V45.3333H47.3332V47C47.3332 47.442 47.5088 47.866 47.8214 48.1785C48.134 48.4911 48.5579 48.6667 48.9999 48.6667C49.4419 48.6667 49.8659 48.4911 50.1784 48.1785C50.491 47.866 50.6666 47.442 50.6666 47V43.6667C50.6666 43.2246 50.491 42.8007 50.1784 42.4882C49.8659 42.1756 49.4419 42 48.9999 42ZM33.9999 26.3833C33.7263 26.3847 33.4573 26.4534 33.2166 26.5833L31.8832 27.2833L32.1332 25.7833C32.177 25.518 32.1559 25.246 32.0717 24.9906C31.9875 24.7352 31.8428 24.504 31.6499 24.3167L30.5666 23.25L32.0666 23.0333C32.3349 22.9975 32.5905 22.8968 32.8112 22.74C33.0319 22.5832 33.2111 22.3749 33.3332 22.1333L33.9999 20.7667L34.6666 22.1333C34.7887 22.3749 34.9679 22.5832 35.1886 22.74C35.4093 22.8968 35.6649 22.9975 35.9332 23.0333L37.4332 23.25L36.3499 24.3167C36.157 24.504 36.0123 24.7352 35.9281 24.9906C35.844 25.246 35.8228 25.518 35.8666 25.7833L36.1166 27.2833L34.7832 26.5833C34.5425 26.4534 34.2735 26.3847 33.9999 26.3833Z" fill="#FE9844"/>
</svg>
