<svg width="33" height="33" viewBox="0 0 33 33" fill="none" xmlns="http://www.w3.org/2000/svg">
<path d="M32.4579 29.8554L26.2266 23.6424C28.237 21.081 29.3279 17.9181 29.3239 14.6619C29.3239 11.7621 28.464 8.92735 26.8529 6.51621C25.2418 4.10507 22.9519 2.22581 20.2728 1.11608C17.5937 0.00635274 14.6457 -0.284003 11.8015 0.281732C8.95741 0.847466 6.3449 2.24388 4.29439 4.29439C2.24388 6.3449 0.847466 8.95741 0.281732 11.8015C-0.284003 14.6457 0.00635274 17.5937 1.11608 20.2728C2.22581 22.9519 4.10507 25.2418 6.51621 26.8529C8.92735 28.464 11.7621 29.3239 14.6619 29.3239C17.9181 29.3279 21.081 28.237 23.6424 26.2266L29.8554 32.4579C30.0258 32.6297 30.2285 32.766 30.4518 32.8591C30.6751 32.9521 30.9147 33 31.1566 33C31.3986 33 31.6381 32.9521 31.8615 32.8591C32.0848 32.766 32.2875 32.6297 32.4579 32.4579C32.6297 32.2875 32.766 32.0848 32.8591 31.8615C32.9521 31.6381 33 31.3986 33 31.1566C33 30.9147 32.9521 30.6751 32.8591 30.4518C32.766 30.2285 32.6297 30.0258 32.4579 29.8554ZM3.66549 14.6619C3.66549 12.4871 4.31042 10.361 5.51873 8.55264C6.72703 6.74429 8.44445 5.33484 10.4538 4.50255C12.4631 3.67025 14.6741 3.45248 16.8072 3.87679C18.9404 4.30109 20.8997 5.3484 22.4376 6.88628C23.9755 8.42416 25.0228 10.3835 25.4471 12.5166C25.8714 14.6497 25.6536 16.8608 24.8213 18.8701C23.9891 20.8794 22.5796 22.5969 20.7713 23.8052C18.9629 25.0135 16.8368 25.6584 14.6619 25.6584C11.7455 25.6584 8.94851 24.4999 6.88628 22.4376C4.82404 20.3754 3.66549 17.5784 3.66549 14.6619Z" fill="white"/>
</svg>
