<svg width="36" height="36" viewBox="0 0 36 36" fill="none" xmlns="http://www.w3.org/2000/svg">
<path d="M18 0C8.0749 0 0 8.0749 0 18C0 27.9251 8.0749 36 18 36C27.9251 36 36 27.9251 36 18C36 8.0749 27.9251 0 18 0ZM22.1703 10.5075L24.2559 12.33L17.8858 19.6079L15.8002 17.6123L22.1703 10.5075ZM12.4555 25.4968L6.34933 19.3846L8.30769 17.4263L14.4147 23.5385L12.4555 25.4968ZM18.0805 25.5652L11.9034 19.3846L13.8626 17.4271L17.9438 21.5126L27.5608 10.5075L29.6463 12.33L18.0805 25.5652Z" fill="#FF455D"/>
</svg>
