<svg width="31" height="31" viewBox="0 0 31 31" fill="none" xmlns="http://www.w3.org/2000/svg">
<path d="M15.5 0C6.95339 0 0 6.95339 0 15.5C0 24.0466 6.95339 31 15.5 31C24.0466 31 31 24.0466 31 15.5C31 6.95339 24.0466 0 15.5 0ZM19.0911 9.04813L20.887 10.6175L15.4016 16.8846L13.6057 15.1662L19.0911 9.04813ZM10.7256 21.9556L5.46748 16.6923L7.15385 15.0059L12.4127 20.2692L10.7256 21.9556ZM15.5693 22.0145L10.2501 16.6923L11.9372 15.0067L15.4516 18.5247L23.7329 9.04813L25.5288 10.6175L15.5693 22.0145Z" fill="#C4C4C4"/>
</svg>
