<svg width="441" height="427" viewBox="0 0 441 427" fill="none" xmlns="http://www.w3.org/2000/svg">
<g clip-path="url(#clip0)">
<g style="mix-blend-mode:multiply">
<path d="M220.5 427.009C342.279 427.009 441 370.097 441 299.892C441 229.688 342.279 172.775 220.5 172.775C98.7212 172.775 0 229.688 0 299.892C0 370.097 98.7212 427.009 220.5 427.009Z" fill="url(#paint0_radial)"/>
</g>
<g style="mix-blend-mode:multiply">
<path d="M347.132 344C332.673 335.664 332.673 322.152 347.132 313.816C361.592 305.481 385.035 305.481 399.494 313.816C413.953 322.152 413.953 335.664 399.494 344C385.035 352.335 361.592 352.335 347.132 344Z" fill="#E0E0E0"/>
</g>
<g style="mix-blend-mode:multiply">
<path d="M53.0451 345.149L15.0114 323.226C12.8683 321.993 12.8683 319.984 15.0114 318.75L236.241 191.213C238.385 189.979 241.866 189.979 244.009 191.213L282.043 213.136C284.186 214.369 284.186 216.378 282.043 217.612L60.8128 345.149C58.6697 346.392 55.1882 346.392 53.0451 345.149Z" fill="#E0E0E0"/>
</g>
<g opacity="0.3">
<path opacity="0.3" d="M189.757 306.079L222.456 287.202C225.825 285.259 227.51 282.717 227.51 280.166C227.51 277.615 227.528 275.624 227.528 275.624L193.603 256.523C191.806 255.486 190.346 252.963 190.346 250.898V210.65L133.24 243.6V283.848C133.24 285.922 134.699 288.436 136.496 289.473L165.359 306.079C172.087 309.957 183.018 309.957 189.757 306.079Z" fill="black"/>
</g>
<path d="M189.757 306.079L222.456 287.202C225.825 285.259 227.51 282.717 227.51 280.166C227.51 277.615 227.528 275.624 227.528 275.624L193.603 256.523C191.806 255.486 190.346 252.963 190.346 250.898V210.65L133.24 243.6V283.848C133.24 285.922 134.699 288.436 136.496 289.473L165.359 306.079C172.087 309.957 183.018 309.957 189.757 306.079Z" fill="#F72B4D"/>
<path opacity="0.3" d="M146.95 290.968V295.491L136.487 289.464C134.699 288.436 133.24 285.913 133.24 283.838V243.59L144.124 237.32C144.348 240.077 144.592 242.927 144.816 245.711L137.189 250.122V281.567C137.189 283.651 138.639 286.165 140.436 287.193L146.95 290.968Z" fill="black"/>
<path d="M137.17 281.577C137.17 283.651 138.63 286.165 140.427 287.202L165.34 301.528C172.078 305.415 183.009 305.415 189.757 301.528L222.465 282.651C229.204 278.764 229.204 272.465 222.465 268.578L197.534 254.234C195.737 253.197 194.277 250.673 194.277 248.608V217.154L137.17 250.103V281.577Z" fill="#27DEBF"/>
<path d="M137.17 281.577C137.17 283.651 138.63 286.165 140.427 287.202L165.34 301.528C172.078 305.415 183.009 305.415 189.757 301.528L222.465 282.651C229.204 278.764 229.204 272.465 222.465 268.578L197.534 254.234C195.737 253.197 194.277 250.673 194.277 248.608V217.154L137.17 250.103V281.577Z" fill="#FF455D"/>
<path opacity="0.5" d="M204.169 258.075L197.543 254.253C195.746 253.215 194.286 250.692 194.286 248.627V217.173L137.179 250.122V281.577C137.179 283.651 138.639 286.165 140.436 287.202L146.95 290.959L204.169 258.075Z" fill="black"/>
<path d="M227.519 275.624C227.519 275.624 227.519 277.615 227.519 280.166C227.519 282.717 225.825 285.249 222.465 287.202L189.766 306.069C186.537 307.948 182.345 308.882 178.115 308.957V304.434C182.345 304.378 186.537 303.406 189.766 301.547L222.465 282.661C225.825 280.727 227.519 278.175 227.519 275.624Z" fill="#FF455D"/>
<path opacity="0.5" d="M227.519 275.624C227.519 275.624 227.519 277.615 227.519 280.166C227.519 282.717 225.825 285.249 222.465 287.202L189.766 306.069C186.537 307.948 182.345 308.882 178.115 308.957V304.434C182.345 304.378 186.537 303.406 189.766 301.547L222.465 282.661C225.825 280.727 227.519 278.175 227.519 275.624Z" fill="black"/>
<path d="M45.4739 320.668C47.5796 321.883 51.1078 321.818 53.3632 320.519C81.4393 304.334 246.152 209.382 274.228 193.196C276.474 191.898 278.299 188.748 278.299 186.16V7.76819C278.299 5.17969 276.587 2.09591 274.481 0.881092C272.375 -0.333728 268.847 -0.268314 266.592 1.03061L45.7265 128.344C43.4805 129.643 41.6555 132.792 41.6555 135.38V313.781C41.6555 316.37 43.3682 319.454 45.4739 320.668Z" fill="#FF455D"/>
<path d="M53.3633 320.516L274.228 193.194C276.474 191.895 278.299 188.746 278.299 186.157V7.75626C278.299 5.16776 276.474 4.1118 274.228 5.41072L53.3633 132.733C51.1172 134.032 49.2922 137.181 49.2922 139.77V318.171C49.2922 320.769 51.1172 321.815 53.3633 320.516Z" fill="#27DEBF"/>
<path d="M53.3633 320.516L274.228 193.194C276.474 191.895 278.299 188.746 278.299 186.157V7.75626C278.299 5.16776 276.474 4.1118 274.228 5.41072L53.3633 132.733C51.1172 134.032 49.2922 137.181 49.2922 139.77V318.171C49.2922 320.769 51.1172 321.815 53.3633 320.516Z" fill="#F72B4D"/>
<path d="M52.7643 325.161C50.5088 326.151 47.3924 326.114 45.4739 325.011C43.3682 323.787 41.6555 320.712 41.6555 318.105V301.864L49.2829 306.275V322.516C49.2829 324.871 50.7896 325.945 52.7643 325.161Z" fill="#FF455D"/>
<path opacity="0.5" d="M52.7643 325.161C50.5088 326.151 47.3924 326.114 45.4739 325.011C43.3682 323.787 41.6555 320.712 41.6555 318.105V301.864L49.2829 306.275V322.516C49.2829 324.871 50.7896 325.945 52.7643 325.161Z" fill="black"/>
<path d="M49.283 306.266L49.2923 322.507C49.2923 325.095 51.1173 326.151 53.3633 324.852L274.228 197.53C276.474 196.231 278.299 193.082 278.299 190.493V174.224L49.283 306.266Z" fill="#FF455D"/>
<path opacity="0.3" d="M49.2922 306.237V322.507C49.2922 325.095 51.1172 326.151 53.3633 324.852L274.228 197.53C276.474 196.231 278.299 193.082 278.299 190.493V174.224L49.2922 306.237Z" fill="black"/>
<path d="M56.9194 285.884V142.293C56.9194 140.742 58.0144 138.845 59.3621 138.069L268.211 17.6802C269.558 16.9046 270.653 17.5307 270.653 19.0912L270.662 162.683C270.662 164.234 269.568 166.131 268.22 166.907L59.3621 287.296C58.0144 288.071 56.9194 287.445 56.9194 285.884Z" fill="#27DEBF"/>
<path d="M56.9194 285.884V142.293C56.9194 140.742 58.0144 138.845 59.3621 138.069L268.211 17.6802C269.558 16.9046 270.653 17.5307 270.653 19.0912L270.662 162.683C270.662 164.234 269.568 166.131 268.22 166.907L59.3621 287.296C58.0144 288.071 56.9194 287.445 56.9194 285.884Z" fill="#263238"/>
<path d="M163.786 245.412C161.681 246.627 159.968 249.58 159.968 252.019C159.968 254.449 161.681 255.439 163.786 254.215C165.892 253 167.605 250.047 167.605 247.608C167.605 245.179 165.901 244.198 163.786 245.412Z" fill="#27DEBF"/>
<path opacity="0.7" d="M50.49 135.751C49.7601 137.032 49.3108 138.471 49.2921 139.77V306.266L41.6648 301.855V135.368C41.6648 134.069 42.1327 132.63 42.8627 131.35L50.49 135.751Z" fill="black"/>
<path opacity="0.3" d="M278.252 7.09265C277.962 4.99942 276.268 4.24249 274.219 5.41059L53.3632 132.733C52.2496 133.378 51.2388 134.471 50.4901 135.751L42.8628 131.35C43.6021 130.089 44.6129 128.976 45.7359 128.332L266.592 1.01855C268.847 -0.280377 272.366 -0.34579 274.481 0.878375C276.399 1.98106 277.99 4.66301 278.252 7.09265Z" fill="black"/>
<path d="M290.166 29.0454C289.633 28.7277 288.912 28.737 288.088 29.2136L79.6891 149.369C78.1169 150.275 76.8347 152.48 76.8347 154.293V297.007C76.8347 298.109 77.312 299.091 78.0326 299.483C78.5006 299.735 80.9432 301.156 81.6732 301.548C82.1411 301.801 82.712 301.81 83.3296 301.455L291.729 181.244C293.301 180.337 294.583 178.132 294.583 176.319V32.9141C294.583 31.9796 294.246 31.3255 293.704 31.0452C293.189 30.7742 290.69 29.3631 290.166 29.0454Z" fill="#27DEBF"/>
<path d="M82.3939 301.257C81.5984 301.257 80.9526 300.276 80.9526 299.07V156.357C80.9526 154.721 82.1506 152.647 83.5731 151.834L291.972 31.6694C292.347 31.4544 292.702 31.3423 293.011 31.3423C293.704 31.3423 294.125 31.931 294.125 32.9029V176.308C294.125 177.943 292.927 180.018 291.504 180.831L83.0958 301.051C82.8525 301.191 82.6185 301.257 82.3939 301.257Z" fill="#FAFAFA"/>
<path d="M293.011 31.8095C293.573 31.8095 293.657 32.501 293.657 32.9028V176.308C293.657 177.794 292.562 179.681 291.27 180.429L82.8712 300.64C82.6934 300.743 82.5343 300.789 82.3939 300.789C81.8698 300.789 81.4206 299.986 81.4206 299.07V156.357C81.4206 154.871 82.5155 152.983 83.807 152.236L292.206 32.0805C292.581 31.8562 292.852 31.8095 293.011 31.8095ZM293.011 30.875C292.627 30.875 292.197 30.9965 291.738 31.2675L83.3297 151.432C81.7575 152.338 80.4753 154.544 80.4753 156.366V299.079C80.4753 300.518 81.2708 301.733 82.3845 301.733C82.684 301.733 82.9928 301.649 83.3297 301.462L291.729 181.251C293.301 180.345 294.583 178.139 294.583 176.326V32.9122C294.583 31.6226 293.947 30.875 293.011 30.875Z" fill="#E0E0E0"/>
<path d="M78.0326 299.481C78.3415 299.649 80.5595 300.911 81.5328 301.462C80.8777 300.995 80.5314 300.191 80.4846 299.07V165.673L76.8347 163.543V297.014C76.8347 298.107 77.312 299.098 78.0326 299.481Z" fill="#F0F0F0"/>
<path d="M294.583 32.8935C294.574 31.0993 293.301 30.3704 291.738 31.2675L83.3297 151.432C81.7575 152.338 80.4753 154.544 80.4753 156.366V165.673L294.583 42.2382V32.8935Z" fill="#FF455D"/>
<path d="M291.738 31.2676L83.3297 151.432C82.553 151.89 81.8323 152.656 81.3176 153.544L77.6958 151.451C78.2105 150.572 78.9124 149.806 79.6798 149.376L288.098 29.2024C288.912 28.7258 289.642 28.7164 290.166 29.0342C290.681 29.3519 293.049 30.6882 293.647 31.0152C293.142 30.7723 292.468 30.847 291.738 31.2676Z" fill="#F95873"/>
<path d="M76.8347 163.552V154.301C76.8347 153.376 77.1716 152.357 77.7051 151.451L81.3363 153.535C80.8028 154.432 80.4846 155.441 80.4846 156.366V165.673L76.8347 163.552Z" fill="#F72B4D"/>
<path d="M250.635 140.471L125.818 212.425C124.667 213.089 123.731 214.705 123.731 216.032V251.767C123.731 253.094 124.667 254.701 125.818 255.365L129.468 257.458C130.619 258.121 132.482 258.121 133.633 257.458L258.44 185.512C259.591 184.849 260.527 183.232 260.527 181.905L260.546 146.162C260.546 144.835 259.61 143.227 258.459 142.564L254.809 140.471C253.648 139.798 251.786 139.807 250.635 140.471Z" fill="#FF455D"/>
<path opacity="0.5" d="M260.518 145.825C260.377 144.75 259.498 144.358 258.45 144.956L133.633 216.911C133.052 217.238 132.538 217.817 132.163 218.471L124.349 213.967C124.723 213.322 125.247 212.752 125.809 212.435L250.635 140.48C251.777 139.816 253.649 139.807 254.8 140.471L258.45 142.564C259.507 143.162 260.387 144.573 260.518 145.825Z" fill="white"/>
<path d="M133.277 257.617C132.126 258.103 130.507 258.047 129.468 257.458L125.818 255.365C124.667 254.701 123.731 253.084 123.731 251.758V216.032C123.731 215.36 123.975 214.621 124.349 213.967L132.163 218.471C131.78 219.126 131.546 219.854 131.546 220.518V256.252C131.546 257.439 132.294 257.99 133.277 257.617Z" fill="#394144"/>
<path d="M133.633 216.911L258.449 144.956C259.601 144.293 260.536 144.835 260.527 146.162L260.508 181.905C260.508 183.232 259.572 184.849 258.421 185.513L133.633 257.449C132.482 258.112 131.546 257.57 131.546 256.243V220.509C131.546 219.191 132.482 217.574 133.633 216.911Z" fill="#FF455D"/>
<path d="M217.543 159.543L125.809 212.425C125.238 212.752 124.723 213.322 124.349 213.958L132.163 218.462C132.538 217.808 133.062 217.229 133.633 216.901L225.348 164.029L217.543 159.543Z" fill="#585959"/>
<path d="M225.348 164.038L133.633 216.911C132.482 217.574 131.546 219.191 131.546 220.518V256.252C131.546 257.579 132.482 258.112 133.633 257.458L225.348 204.585V164.038Z" fill="#494949"/>
<path d="M154.783 212.566L202.11 185.279C204.076 184.148 205.666 184.952 205.666 187.073C205.666 189.194 204.076 191.83 202.11 192.96L154.793 220.238C152.827 221.368 151.236 220.565 151.236 218.444C151.227 216.332 152.818 213.696 154.783 212.566Z" fill="#FF455D"/>
<path d="M164.479 221.592C164.535 221.564 164.582 221.574 164.619 221.62C164.657 221.667 164.675 221.733 164.675 221.835V227.153C164.675 227.685 164.629 228.199 164.544 228.685C164.46 229.171 164.329 229.62 164.151 230.031C163.973 230.442 163.758 230.806 163.496 231.133C163.234 231.451 162.925 231.713 162.579 231.909C162.223 232.115 161.924 232.208 161.662 232.189C161.4 232.171 161.185 232.059 161.007 231.844C160.829 231.638 160.698 231.339 160.614 230.956C160.529 230.573 160.483 230.115 160.483 229.573V224.256C160.483 224.162 160.501 224.069 160.539 223.975C160.576 223.882 160.623 223.826 160.679 223.788L161.269 223.443C161.325 223.415 161.372 223.415 161.409 223.471C161.447 223.517 161.465 223.592 161.465 223.686V228.947C161.465 229.302 161.493 229.592 161.55 229.806C161.606 230.031 161.681 230.19 161.774 230.292C161.868 230.395 161.989 230.442 162.13 230.442C162.27 230.433 162.42 230.386 162.579 230.292C162.738 230.199 162.888 230.077 163.028 229.919C163.169 229.769 163.29 229.582 163.384 229.367C163.477 229.152 163.562 228.9 163.618 228.62C163.674 228.339 163.702 228.022 163.702 227.667V222.415C163.702 222.321 163.721 222.228 163.758 222.134C163.796 222.041 163.842 221.985 163.899 221.948L164.479 221.592Z" fill="#FAFAFA"/>
<path d="M168.148 226.629C168.148 226.536 168.129 226.47 168.091 226.424C168.054 226.386 167.998 226.358 167.914 226.358C167.829 226.358 167.717 226.368 167.577 226.396C167.436 226.424 167.258 226.461 167.034 226.498C166.819 226.536 166.641 226.526 166.5 226.48C166.36 226.433 166.248 226.349 166.163 226.218C166.079 226.097 166.023 225.928 165.986 225.732C165.948 225.536 165.939 225.302 165.939 225.041C165.939 224.779 165.976 224.508 166.042 224.218C166.107 223.929 166.21 223.648 166.341 223.377C166.472 223.106 166.631 222.863 166.809 222.63C166.996 222.405 167.202 222.219 167.446 222.078C167.689 221.938 167.895 221.863 168.082 221.854C168.269 221.835 168.428 221.873 168.559 221.957C168.69 222.041 168.793 222.153 168.868 222.321C168.943 222.48 168.98 222.667 168.99 222.863C168.999 222.957 168.98 223.05 168.934 223.144C168.896 223.237 168.84 223.303 168.793 223.331L168.232 223.658C168.157 223.704 168.101 223.704 168.063 223.686C168.026 223.658 167.988 223.63 167.942 223.592C167.895 223.555 167.839 223.536 167.764 223.536C167.689 223.527 167.586 223.574 167.436 223.658C167.287 223.742 167.165 223.854 167.053 223.994C166.94 224.134 166.884 224.312 166.884 224.508C166.884 224.601 166.893 224.676 166.922 224.723C166.95 224.77 166.996 224.798 167.071 224.807C167.146 224.816 167.249 224.807 167.389 224.788C167.52 224.77 167.698 224.732 167.914 224.686C168.344 224.601 168.653 224.676 168.831 224.929C169.009 225.171 169.102 225.564 169.102 226.078C169.102 226.34 169.065 226.611 168.99 226.9C168.915 227.19 168.812 227.47 168.672 227.741C168.531 228.012 168.363 228.274 168.157 228.508C167.951 228.741 167.726 228.928 167.474 229.078C167.212 229.227 166.987 229.302 166.791 229.311C166.594 229.321 166.426 229.274 166.294 229.18C166.154 229.087 166.051 228.956 165.976 228.779C165.901 228.601 165.864 228.414 165.855 228.209C165.845 228.115 165.864 228.022 165.911 227.928C165.948 227.835 165.995 227.769 166.051 227.741L166.613 227.414C166.688 227.377 166.744 227.368 166.781 227.414C166.819 227.452 166.856 227.498 166.903 227.554C166.95 227.61 167.015 227.639 167.099 227.648C167.184 227.657 167.305 227.62 167.474 227.526C167.549 227.48 167.623 227.433 167.698 227.368C167.773 227.302 167.848 227.237 167.914 227.162C167.979 227.087 168.035 227.003 168.082 226.91C168.129 226.816 168.148 226.723 168.148 226.629Z" fill="#FAFAFA"/>
<path d="M170.057 224.088C170.057 223.602 170.094 223.125 170.178 222.648C170.263 222.172 170.384 221.733 170.534 221.322C170.693 220.92 170.88 220.555 171.105 220.247C171.329 219.938 171.573 219.705 171.844 219.546C172.116 219.387 172.368 219.331 172.583 219.387C172.808 219.434 172.995 219.565 173.154 219.78C173.313 219.985 173.435 220.266 173.519 220.621C173.604 220.976 173.65 221.368 173.65 221.817V222.396C173.65 222.49 173.632 222.583 173.594 222.676C173.557 222.77 173.51 222.826 173.454 222.863L171.011 224.274C171.011 224.471 171.039 224.639 171.086 224.76C171.133 224.882 171.198 224.975 171.273 225.041C171.348 225.097 171.442 225.125 171.545 225.115C171.648 225.106 171.751 225.069 171.863 225.013C172.022 224.919 172.144 224.826 172.247 224.714C172.34 224.602 172.424 224.489 172.49 224.359C172.546 224.256 172.583 224.19 172.621 224.144C172.658 224.097 172.705 224.06 172.761 224.022L173.351 223.686C173.407 223.658 173.454 223.658 173.491 223.704C173.529 223.751 173.547 223.826 173.547 223.919C173.538 224.041 173.501 224.218 173.435 224.452C173.36 224.686 173.257 224.929 173.117 225.19C172.977 225.452 172.799 225.714 172.593 225.957C172.387 226.209 172.144 226.405 171.872 226.564C171.601 226.723 171.348 226.779 171.133 226.741C170.908 226.704 170.721 226.573 170.562 226.349C170.403 226.125 170.291 225.826 170.206 225.443C170.103 225.059 170.057 224.602 170.057 224.088ZM171.854 221.107C171.713 221.191 171.591 221.293 171.489 221.424C171.386 221.555 171.301 221.695 171.236 221.854C171.17 222.013 171.114 222.172 171.077 222.331C171.039 222.499 171.021 222.648 171.002 222.779L172.658 221.826C172.649 221.705 172.63 221.574 172.602 221.452C172.574 221.322 172.527 221.219 172.471 221.135C172.406 221.051 172.331 221.004 172.228 220.985C172.134 220.976 172.003 221.013 171.854 221.107Z" fill="#FAFAFA"/>
<path d="M176.589 218.509C176.299 218.677 176.084 218.91 175.953 219.219C175.822 219.527 175.756 219.938 175.756 220.452V223.826C175.756 223.919 175.737 224.013 175.7 224.106C175.662 224.2 175.616 224.256 175.559 224.293L175.007 224.611C174.951 224.639 174.904 224.63 174.867 224.583C174.83 224.536 174.811 224.461 174.811 224.368V218.322C174.811 218.228 174.83 218.135 174.867 218.041C174.904 217.948 174.951 217.892 175.007 217.855L175.559 217.537C175.616 217.509 175.662 217.509 175.7 217.565C175.737 217.612 175.756 217.686 175.756 217.78V218.079C175.887 217.798 176.018 217.555 176.158 217.369C176.299 217.172 176.486 217.004 176.729 216.873L177.057 216.686C177.113 216.658 177.16 216.668 177.197 216.714C177.235 216.761 177.253 216.836 177.253 216.929V217.789C177.253 217.883 177.235 217.976 177.197 218.069C177.16 218.163 177.113 218.219 177.057 218.256L176.589 218.509Z" fill="#FAFAFA"/>
<path d="M183.571 218.051C183.627 218.023 183.673 218.032 183.711 218.079C183.748 218.126 183.767 218.2 183.767 218.294V219.219C183.767 219.312 183.748 219.406 183.711 219.499C183.673 219.593 183.627 219.649 183.571 219.686L180.37 221.536C180.314 221.564 180.267 221.555 180.229 221.508C180.192 221.462 180.173 221.387 180.173 221.293V212.911C180.173 212.818 180.192 212.724 180.229 212.631C180.267 212.537 180.314 212.481 180.37 212.444L180.959 212.098C181.016 212.07 181.062 212.08 181.1 212.126C181.137 212.173 181.156 212.238 181.156 212.341V219.453L183.571 218.051Z" fill="#FAFAFA"/>
<path d="M186.444 211.136C186.715 210.977 186.958 210.911 187.174 210.939C187.389 210.958 187.576 211.052 187.735 211.229C187.894 211.397 188.025 211.622 188.119 211.921C188.212 212.21 188.269 212.556 188.287 212.939C188.287 213.014 188.297 213.107 188.297 213.238C188.297 213.36 188.297 213.481 188.297 213.603C188.297 213.724 188.297 213.846 188.297 213.958C188.297 214.07 188.297 214.173 188.287 214.257C188.269 214.668 188.212 215.07 188.119 215.472C188.025 215.873 187.904 216.247 187.745 216.593C187.585 216.939 187.398 217.247 187.183 217.518C186.968 217.789 186.724 218.004 186.453 218.154C186.182 218.303 185.938 218.378 185.723 218.35C185.508 218.331 185.321 218.238 185.162 218.069C185.002 217.911 184.881 217.677 184.787 217.387C184.694 217.098 184.637 216.752 184.619 216.369C184.609 216.294 184.609 216.201 184.609 216.079C184.609 215.967 184.609 215.845 184.609 215.724C184.609 215.602 184.609 215.481 184.609 215.36C184.609 215.238 184.619 215.135 184.619 215.051C184.637 214.64 184.694 214.238 184.787 213.836C184.881 213.434 185.012 213.061 185.171 212.706C185.33 212.35 185.517 212.042 185.732 211.771C185.929 211.5 186.172 211.295 186.444 211.136ZM187.323 213.547C187.305 213.285 187.277 213.089 187.22 212.939C187.164 212.799 187.099 212.696 187.015 212.64C186.93 212.584 186.846 212.565 186.743 212.584C186.65 212.603 186.547 212.64 186.444 212.696C186.341 212.752 186.247 212.836 186.144 212.93C186.051 213.023 185.957 213.145 185.873 213.304C185.789 213.453 185.723 213.64 185.667 213.846C185.611 214.051 185.573 214.294 185.564 214.575C185.564 214.649 185.555 214.733 185.555 214.846C185.555 214.948 185.555 215.06 185.555 215.173C185.555 215.285 185.555 215.397 185.555 215.5C185.555 215.602 185.564 215.687 185.564 215.752C185.583 216.014 185.611 216.21 185.667 216.359C185.723 216.509 185.789 216.602 185.873 216.658C185.957 216.714 186.041 216.733 186.144 216.714C186.238 216.696 186.341 216.658 186.444 216.602C186.547 216.546 186.65 216.472 186.743 216.369C186.837 216.275 186.93 216.154 187.015 215.995C187.099 215.845 187.164 215.659 187.22 215.453C187.277 215.247 187.314 215.004 187.323 214.724C187.323 214.659 187.333 214.575 187.333 214.462C187.333 214.35 187.333 214.238 187.333 214.126C187.333 214.014 187.333 213.902 187.333 213.799C187.333 213.696 187.333 213.612 187.323 213.547Z" fill="#FAFAFA"/>
<path d="M191.142 216.602C191.245 216.546 191.348 216.453 191.46 216.341C191.563 216.219 191.666 216.079 191.75 215.911C191.834 215.743 191.909 215.546 191.965 215.322C192.021 215.107 192.05 214.874 192.05 214.621V214.145C192.012 214.248 191.956 214.36 191.9 214.491C191.834 214.621 191.759 214.752 191.666 214.874C191.572 215.004 191.469 215.126 191.348 215.247C191.226 215.369 191.095 215.472 190.945 215.556C190.702 215.696 190.477 215.743 190.281 215.687C190.084 215.631 189.916 215.5 189.775 215.304C189.635 215.107 189.523 214.846 189.448 214.519C189.364 214.201 189.326 213.836 189.307 213.444C189.307 213.313 189.298 213.164 189.298 212.995C189.298 212.827 189.298 212.668 189.307 212.537C189.317 212.136 189.364 211.724 189.448 211.313C189.532 210.902 189.635 210.51 189.775 210.155C189.916 209.79 190.084 209.472 190.281 209.192C190.477 208.912 190.702 208.697 190.945 208.557C191.095 208.472 191.235 208.416 191.348 208.398C191.469 208.379 191.572 208.388 191.666 208.407C191.759 208.435 191.834 208.472 191.9 208.529C191.965 208.585 192.012 208.641 192.05 208.697V208.388C192.05 208.295 192.068 208.201 192.106 208.108C192.143 208.015 192.19 207.959 192.246 207.921L192.798 207.603C192.854 207.575 192.901 207.585 192.939 207.631C192.976 207.678 192.995 207.753 192.995 207.846V213.93C192.995 214.976 192.826 215.864 192.499 216.584C192.171 217.303 191.713 217.836 191.132 218.163C190.889 218.303 190.655 218.378 190.44 218.387C190.225 218.387 190.047 218.341 189.888 218.238C189.729 218.135 189.607 217.985 189.513 217.789C189.42 217.593 189.373 217.369 189.364 217.116C189.354 217.023 189.373 216.93 189.42 216.836C189.457 216.743 189.504 216.677 189.56 216.649L190.056 216.359C190.122 216.322 190.178 216.331 190.234 216.378C190.281 216.434 190.328 216.481 190.356 216.537C190.421 216.649 190.505 216.715 190.618 216.752C190.739 216.789 190.908 216.743 191.142 216.602ZM190.262 212.07C190.243 212.323 190.243 212.565 190.262 212.799C190.29 213.341 190.393 213.696 190.552 213.846C190.721 213.995 190.917 214.005 191.16 213.864C191.404 213.724 191.6 213.481 191.759 213.136C191.919 212.79 192.021 212.379 192.04 211.893C192.05 211.762 192.059 211.594 192.059 211.388C192.059 211.192 192.05 211.024 192.04 210.902C192.012 210.463 191.919 210.164 191.759 209.996C191.6 209.827 191.394 209.818 191.16 209.958C190.917 210.098 190.721 210.332 190.552 210.678C190.393 211.033 190.29 211.491 190.262 212.07Z" fill="#FAFAFA"/>
<path d="M195.166 203.772C195.222 203.744 195.269 203.744 195.306 203.791C195.344 203.837 195.362 203.912 195.362 204.006V205.015C195.362 205.108 195.344 205.202 195.306 205.295C195.269 205.389 195.222 205.445 195.166 205.482L194.539 205.847C194.483 205.875 194.436 205.865 194.398 205.819C194.361 205.772 194.342 205.697 194.342 205.604V204.594C194.342 204.501 194.361 204.408 194.398 204.314C194.436 204.221 194.483 204.165 194.539 204.127L195.166 203.772ZM195.325 212.547C195.325 212.64 195.306 212.734 195.269 212.827C195.231 212.921 195.185 212.977 195.128 213.014L194.576 213.332C194.52 213.36 194.473 213.35 194.436 213.304C194.398 213.257 194.38 213.192 194.38 213.089V207.043C194.38 206.949 194.398 206.856 194.436 206.762C194.473 206.669 194.52 206.613 194.576 206.575L195.128 206.258C195.185 206.23 195.231 206.239 195.269 206.286C195.306 206.333 195.325 206.398 195.325 206.501V212.547Z" fill="#FAFAFA"/>
<path d="M200.266 209.697C200.266 209.79 200.248 209.883 200.21 209.977C200.173 210.07 200.126 210.126 200.07 210.164L199.518 210.482C199.462 210.51 199.415 210.5 199.377 210.453C199.34 210.407 199.321 210.332 199.321 210.239V206.94C199.321 206.417 199.256 206.043 199.115 205.809C198.975 205.575 198.769 205.538 198.488 205.706C198.226 205.856 198.03 206.127 197.88 206.529C197.73 206.921 197.655 207.388 197.655 207.902V211.201C197.655 211.294 197.637 211.388 197.599 211.481C197.562 211.575 197.515 211.631 197.459 211.668L196.907 211.986C196.851 212.014 196.804 212.005 196.766 211.958C196.729 211.911 196.71 211.836 196.71 211.743V205.697C196.71 205.604 196.729 205.51 196.766 205.417C196.804 205.323 196.851 205.267 196.907 205.23L197.459 204.912C197.515 204.884 197.562 204.884 197.599 204.94C197.637 204.987 197.655 205.062 197.655 205.155V205.454C197.786 205.155 197.927 204.884 198.105 204.641C198.273 204.398 198.479 204.202 198.713 204.071C199.012 203.903 199.256 203.837 199.462 203.884C199.658 203.931 199.827 204.062 199.939 204.267C200.061 204.473 200.145 204.744 200.201 205.08C200.248 205.417 200.276 205.79 200.276 206.202V209.697H200.266Z" fill="#FAFAFA"/>
<path d="M247.481 182.494L238.394 187.737L239.807 175.009C238.721 174.439 238.029 173.019 238.029 170.991C238.029 167.374 240.228 163.178 242.942 161.609C245.656 160.039 247.855 161.702 247.855 165.318C247.855 167.346 247.163 169.561 246.077 171.383L247.481 182.494Z" fill="#585959"/>
<path d="M247.481 182.494L239.479 177.887L238.385 187.737L247.481 182.494Z" fill="#394144"/>
<path d="M242.933 161.608C241.155 162.636 239.601 164.786 238.74 167.169L246.068 171.392C247.154 169.561 247.846 167.355 247.846 165.328C247.846 161.711 245.647 160.048 242.933 161.608Z" fill="#394144"/>
<path d="M198.741 119.239C195.634 117.445 191.338 117.697 186.584 120.436C177.094 125.902 169.401 139.209 169.401 150.152C169.401 155.637 171.339 159.487 174.474 161.272C175.288 161.739 179.705 164.3 180.529 164.776C183.636 166.571 187.932 166.318 192.676 163.58C202.166 158.114 209.859 144.807 209.859 133.864C209.859 128.397 207.94 124.557 204.833 122.762" fill="#FF455D"/>
<path d="M192.676 123.958C183.187 129.434 175.494 142.732 175.494 153.675C175.494 164.617 183.187 169.047 192.676 163.58C202.166 158.114 209.868 144.807 209.859 133.864C209.85 122.921 202.157 118.482 192.676 123.958Z" fill="#FF455D"/>
<path d="M202.157 148.227V149.479C199.714 153.647 196.364 157.282 192.667 159.403C188.97 161.534 185.629 161.767 183.177 160.403V157.815C183.177 152.815 186.574 146.947 190.908 144.442L193.406 143.012C195.624 141.732 197.767 141.573 199.452 142.545C201.183 143.536 202.157 145.601 202.157 148.227Z" fill="#27DEBF"/>
<path opacity="0.4" d="M198.741 119.239L204.834 122.762C201.726 120.968 197.431 121.22 192.686 123.958C186.472 127.547 181.034 134.49 178.011 141.928L171.919 138.405C174.932 130.967 180.379 124.024 186.593 120.445C191.338 117.697 195.634 117.436 198.741 119.239Z" fill="white"/>
<path opacity="0.2" d="M180.304 164.636C179.228 164.019 175.232 161.692 174.474 161.263C171.348 159.478 169.401 155.628 169.401 150.142L175.494 153.665C175.494 159.011 177.328 162.795 180.304 164.636Z" fill="black"/>
<path opacity="0.1" d="M171.91 138.396L178.002 141.919C176.411 145.844 175.494 149.899 175.494 153.665L169.401 150.142C169.401 146.367 170.328 142.311 171.91 138.396Z" fill="black"/>
<path d="M190.515 142.424C189.916 142.424 189.364 142.283 188.858 141.994C187.698 141.33 187.061 140.003 187.061 138.275C187.061 135.107 189.214 131.378 191.965 129.79C193.463 128.92 194.923 128.818 196.092 129.481C197.253 130.145 197.889 131.472 197.889 133.2C197.889 136.368 195.737 140.097 192.985 141.685C192.134 142.181 191.291 142.424 190.515 142.424Z" fill="white"/>
<path d="M199.462 142.545C197.777 141.573 195.624 141.732 193.416 143.012L190.917 144.442C186.584 146.947 183.187 152.824 183.187 157.815V160.403C185.629 161.758 188.98 161.534 192.676 159.403C196.364 157.282 199.714 153.647 202.166 149.479V148.227C202.157 145.601 201.184 143.536 199.462 142.545Z" fill="white"/>
<path d="M391.857 304.21C391.857 304.21 393.102 293.295 398.54 284.829C403.977 276.362 411.445 271.073 418.417 270.522C425.39 269.971 431.014 276.372 423.555 280.773C416.096 285.175 402.845 289.66 396.752 306.107L391.857 304.21Z" fill="#FF455D"/>
<path opacity="0.1" d="M391.857 304.21C391.857 304.21 393.102 293.295 398.54 284.829C403.977 276.362 411.445 271.073 418.417 270.522C425.39 269.971 431.014 276.372 423.555 280.773C416.096 285.175 402.845 289.66 396.752 306.107L391.857 304.21Z" fill="black"/>
<path d="M393.907 301.378C393.879 301.378 393.86 301.369 393.832 301.36C393.645 301.285 393.551 301.07 393.626 300.874C400.982 282.782 414.983 275.232 421.365 273.765C421.562 273.718 421.768 273.839 421.815 274.045C421.861 274.241 421.74 274.447 421.534 274.493C415.282 275.933 401.562 283.352 394.319 301.154C394.253 301.313 394.075 301.406 393.907 301.378Z" fill="white"/>
<path d="M431.136 301.593C430.509 303.014 428.955 303.752 427.505 304.331C426.064 304.911 424.491 305.537 423.715 306.882C422.142 309.592 424.725 313.414 423.031 316.05C422.32 317.162 421.001 317.741 419.709 317.975C418.633 318.18 417.538 318.171 416.443 318.264C415.919 318.255 415.395 318.218 414.889 318.143C413.392 317.928 411.764 317.853 410.397 318.62C408.235 319.834 407.571 322.554 406.261 324.656C404.688 327.17 401.909 328.815 398.989 329.217C398.016 329.347 396.209 329.516 395.227 328.964C395.152 328.917 395.086 328.88 395.021 328.833C395.011 328.833 395.011 328.824 395.002 328.815C394.862 328.665 394.693 328.469 394.618 328.357C394.6 328.338 394.59 328.319 394.581 328.291C394.197 326.88 394.824 325.423 394.852 323.965C394.852 323.871 394.852 323.787 394.852 323.703C394.796 322.012 394.74 320.33 394.703 318.648C394.628 315.545 394.59 312.443 394.609 309.34C394.628 307.322 394.384 305.116 395.245 303.219C396.191 301.135 398.54 301.089 399.429 299.033C399.784 298.22 399.972 297.341 400.318 296.519C401.347 294.099 403.837 292.351 406.476 292.23C410.584 292.024 414.262 295.342 418.371 295.043C419.428 294.959 420.467 294.641 421.515 294.445C424.838 293.818 428.684 294.772 430.556 297.575C431.333 298.753 431.716 300.304 431.136 301.593Z" fill="#FF455D"/>
<path d="M394.244 321.844C394.235 321.844 394.225 321.844 394.216 321.834C394.029 321.787 393.916 321.591 393.973 321.404C399.644 300.154 422.077 297.08 427.318 297.454C427.505 297.472 427.654 297.631 427.645 297.827C427.636 298.024 427.467 298.164 427.271 298.155C422.142 297.781 400.205 300.79 394.646 321.582C394.6 321.769 394.422 321.881 394.244 321.844Z" fill="white"/>
<path d="M419.166 311.078C419.101 311.069 419.035 311.032 418.979 310.985C418.923 310.929 413.205 305.294 403.715 306.696C403.528 306.724 403.35 306.593 403.313 306.396C403.285 306.21 403.416 306.032 403.612 305.995C413.467 304.546 419.419 310.424 419.475 310.49C419.615 310.63 419.606 310.845 419.475 310.985C419.391 311.06 419.279 311.097 419.166 311.078Z" fill="white"/>
<path d="M359.308 184.204C355.377 190.839 351.596 196.605 348.938 199.371C343.894 201.716 332.046 205.314 327.414 205.912C326.59 206.015 325.766 205.809 325.083 205.361C323.258 204.165 321.854 203.978 319.927 203.314C318.42 202.791 317.783 202.081 317.503 202.352C317.138 202.707 316.745 203.698 317.662 204.735C318.12 205.258 318.963 205.819 320.039 206.51C320.039 206.51 316.726 207.389 313.769 206.613C309.754 205.557 307.863 207.492 310.577 211.837C311.551 213.397 315.378 215.892 323.127 215.22C325.364 215.023 328.583 214.837 331.363 214.248C338.803 212.659 347.067 211.127 352.149 209.613C353.431 209.23 355.724 207.753 357.081 206.193C365.625 196.465 368.461 189.531 372.204 183.233L371.877 172.935C365.831 172.757 362.593 178.654 359.308 184.204Z" fill="#FFA8A7"/>
<path d="M372.934 172.757C372.934 172.757 367.646 171.636 363.669 176.71C359.504 182.027 352.148 194.792 352.148 194.792C352.148 194.792 354.563 201.193 361.058 202.249L371.493 188.176C371.493 188.176 376.434 178.439 372.934 172.757Z" fill="#F72B4D"/>
<path d="M395.498 316.255H388.694V328.366H395.498V316.255Z" fill="#FFA8A7"/>
<path d="M371.914 315.61L365.12 315.853L364.773 303.032L371.914 302.789V315.61Z" fill="#FFA8A7"/>
<path d="M396.453 211.416C396.453 218.173 395.461 272.531 395.461 272.531C395.62 274.475 397.37 278.054 396.995 285.52C396.481 295.659 395.798 322.311 395.798 322.311C395.798 322.311 392.494 324.32 388.226 322.47C388.226 322.47 382.714 285.128 381.498 275.082C380.431 266.307 377.707 237.217 377.707 237.217L374.02 271.55C374.02 271.55 375.274 276.783 374.862 282.792C374.544 287.436 372.354 311.648 372.354 311.648C372.354 311.648 369.153 313.91 364.502 312.274C364.502 312.274 360.637 275.82 360.553 271.55C360.459 266.691 362.818 211.351 362.818 211.351L396.453 211.416Z" fill="#37474F"/>
<path d="M388.694 324.871V323.862C388.039 324.161 386.532 330.16 383.837 332.721C381.694 334.758 378.765 337.104 378.025 339.374C377.249 341.739 382.096 343.038 384.109 342.664C386.439 342.234 390.472 340.533 391.483 338.944C392.494 337.365 392.971 335.029 393.795 333.87C394.618 332.712 396.518 331.422 396.958 330.076C397.201 329.338 396.911 327.731 396.565 326.366C396.247 325.114 395.91 323.741 395.498 323.862C395.498 324.012 395.498 324.638 395.498 324.638C395.002 325.208 393.636 325.768 392.101 325.834C391.099 325.862 388.685 325.656 388.694 324.871Z" fill="#263238"/>
<path d="M365.045 313.667C364.689 313.676 364.408 314.199 363.622 315.078C362.677 316.134 361.142 317.283 359.617 318.068C357.071 319.395 352.121 321.432 349.874 322.479C348.471 323.133 348.536 324.89 349.987 325.89C351.437 326.89 354.928 327.609 359.121 326.637C361.404 326.105 364.38 323.909 366.261 324.03C368.143 324.152 371.671 324.123 373.056 323.124C374.45 322.124 373.889 320.002 373.496 318.171C373.065 316.171 372.532 313.059 371.895 313.199V313.891C371.081 315.18 366.86 315.704 365.064 314.751L365.045 313.667Z" fill="#263238"/>
<path d="M377.698 237.208C377.698 237.208 372.26 235.619 368.227 231.563C368.227 231.563 370.052 235.124 375.489 238.432L374.329 269.092L377.698 237.208Z" fill="#263238"/>
<path d="M392.644 173.766C392.644 173.766 398.24 175.056 397.856 185.186L396.677 201.315L396.705 225.518C391.708 231.181 369.528 230.76 361.938 225.069C361.938 225.069 362.799 196.427 363.313 185.41C363.678 177.579 365.485 173.626 373.196 172.766L382.677 173.187L392.644 173.766Z" fill="#FF455D"/>
<path d="M385.503 152.722C385.503 158.534 380.974 163.253 375.377 163.253C369.781 163.253 366.477 158.413 365.251 152.722C363.014 142.321 369.781 142.19 375.377 142.19C380.974 142.19 385.503 146.9 385.503 152.722Z" fill="#263238"/>
<path d="M390.669 156.983C390.669 156.983 389.115 164.571 388.498 165.814C387.871 167.057 386.589 167.412 386.589 167.412L386.701 162.076L390.669 156.983Z" fill="#263238"/>
<path d="M388.713 146.106C388.713 146.106 389.827 145.825 391.006 147.676C392.017 149.255 392.251 152.815 390.66 156.983L387.73 157.329L388.713 146.106Z" fill="#263238"/>
<path d="M389.789 147.648L393.374 147.713C393.458 146.685 392.728 145.835 391.736 145.816C390.753 145.797 389.883 146.62 389.789 147.648Z" fill="#263238"/>
<path d="M390.229 146.797L392.887 144.246C392.232 143.489 391.109 143.442 390.37 144.143C389.64 144.853 389.574 146.04 390.229 146.797Z" fill="#263238"/>
<path d="M386.86 157.329C387.45 157.693 388.283 156.525 389.003 155.731C389.724 154.946 391.998 154.198 393.177 156.777C394.375 159.412 392.344 161.908 390.66 162.749C387.637 164.244 386.682 162.066 386.682 162.066L386.439 174.084C382.181 180.653 372.551 180.42 376.013 173.766L376.023 170.112C376.023 170.112 373.122 170.57 371.699 170.346C369.341 169.963 367.862 168.038 367.141 165.384C365.99 161.123 365.56 157.684 366.533 149.301C367.6 140.116 377.876 140.022 383.416 143.648C388.975 147.292 386.86 157.329 386.86 157.329Z" fill="#FFA8A7"/>
<path d="M374.057 147.872C376.509 147.629 378.933 147.124 381.395 146.947C381.928 146.909 382.471 146.881 382.986 147.021C384.867 147.526 384.623 149.713 384.923 151.245C385.438 153.88 385.868 158.338 386.86 158.357C387.16 158.366 388.273 156.422 389.003 155.74C389.48 155.292 389.555 154.329 389.658 153.731C389.845 152.638 389.948 151.535 390.033 150.432C390.108 149.498 390.201 148.554 390.192 147.61C390.192 146.564 390.21 145.489 389.948 144.461C389.714 143.526 389.275 142.835 388.638 142.106C388.573 142.041 388.517 141.966 388.451 141.901C387.244 140.602 385.7 139.62 384.062 138.948C381.713 137.976 379.158 137.593 376.631 137.331C374.104 137.069 371.549 136.929 369.06 136.424C368.91 136.396 368.76 136.368 368.62 136.415C368.405 136.499 368.311 136.752 368.264 136.976C368.04 138.125 368.564 139.387 369.537 140.05C367.843 140.181 365.897 139.303 364.259 138.863C363.987 138.789 363.669 138.723 363.426 138.863C363.257 138.966 363.154 139.153 363.098 139.34C362.958 139.77 362.986 140.246 363.052 140.695C363.229 142.031 363.688 143.349 364.511 144.414C365.7 145.947 367.647 147.33 369.565 147.713C371.091 148.021 372.504 148.031 374.057 147.872Z" fill="#263238"/>
<path d="M376.032 170.122C376.032 170.122 381.292 169.019 383.135 168C384.371 167.318 385.381 166.141 385.681 165.384C385.681 165.384 385.335 167.01 384.24 168.468C382.892 170.252 376.041 171.57 376.041 171.57L376.032 170.122Z" fill="#F28F8F"/>
<path d="M377.295 155.964C377.295 156.59 377.763 157.104 378.353 157.104C378.933 157.104 379.41 156.59 379.41 155.964C379.41 155.338 378.943 154.824 378.353 154.824C377.763 154.824 377.295 155.338 377.295 155.964Z" fill="#263238"/>
<path d="M378.99 151.423L381.245 152.722C381.582 152.049 381.339 151.208 380.721 150.853C380.094 150.498 379.317 150.75 378.99 151.423Z" fill="#263238"/>
<path d="M376.5 163.533L374.095 164.468C374.329 165.187 375.068 165.552 375.733 165.3C376.397 165.047 376.743 164.253 376.5 163.533Z" fill="#F28F8F"/>
<path d="M367.619 152.385L369.678 150.741C369.256 150.124 368.461 150.002 367.89 150.451C367.319 150.909 367.207 151.778 367.619 152.385Z" fill="#263238"/>
<path d="M368.526 155.647C368.526 156.273 368.994 156.787 369.584 156.787C370.164 156.787 370.641 156.273 370.641 155.647C370.641 155.021 370.173 154.507 369.584 154.507C368.994 154.507 368.526 155.021 368.526 155.647Z" fill="#263238"/>
<path d="M374.17 154.768L374.048 161.422L370.267 160.552L374.17 154.768Z" fill="#F28F8F"/>
<path d="M284.382 210.416L290.25 207.033L292.571 204.23L286.713 207.603L284.382 210.416Z" fill="#27DEBF"/>
<path d="M284.382 210.416L290.25 207.033L292.571 204.23L286.713 207.603L284.382 210.416Z" fill="#F72B4D"/>
<path d="M300.339 219.612L306.207 216.229L311.101 211.902L305.243 215.285L300.339 219.612Z" fill="#27DEBF"/>
<path d="M300.339 219.612L306.207 216.229L311.101 211.902L305.243 215.285L300.339 219.612Z" fill="#F72B4D"/>
<path d="M350.183 231.293C351.465 232.928 352.401 235.32 352.607 237.666C351.325 236.03 350.389 233.629 350.183 231.293ZM363.819 231.47C361.844 218.06 354.629 204.791 346.028 199.838C341.901 197.455 338.082 197.371 335.022 199.156C334.124 199.679 330.811 201.586 329.5 202.333C329.398 202.389 329.285 202.445 329.192 202.52C328.948 202.651 328.714 202.81 328.48 202.969C328.041 203.277 327.61 203.623 327.208 204.015C327.151 204.062 327.095 204.127 327.02 204.193C326.843 204.37 326.674 204.557 326.515 204.753C326.309 204.987 326.113 205.221 325.925 205.473C325.542 205.978 325.177 206.529 324.849 207.127C324.69 207.417 324.522 207.725 324.372 208.043L276.156 180.251L270.297 183.625V187.354L270.793 187.643L271.252 187.914V188.699L270.288 189.26V191.428L277.373 206.398L284.373 210.444L286.703 207.632L292.88 211.323L296.427 217.397L300.329 219.649L305.224 215.313L311.242 218.78L313.263 227.097L323.333 232.9C323.838 235.031 324.484 237.114 325.242 239.152C325.308 239.367 325.383 239.572 325.476 239.806C328.827 248.599 334.152 256.122 340.16 259.589C340.927 260.028 341.676 260.392 342.425 260.673C342.846 260.85 343.267 260.981 343.688 261.093C344.063 261.196 344.437 261.289 344.811 261.345C346.056 261.57 347.254 261.56 348.377 261.336C348.536 261.299 348.705 261.261 348.864 261.224C349.098 261.177 349.322 261.112 349.547 261.018C349.715 260.953 349.893 260.888 350.071 260.813C350.258 260.747 350.436 260.663 350.614 260.56C350.782 260.486 350.951 260.402 351.11 260.299C351.194 260.252 351.278 260.205 351.362 260.159C351.4 260.149 351.437 260.121 351.475 260.093C352.813 259.327 356.117 257.421 357.006 256.916C361.46 254.337 364.343 247.814 364.343 238.6C364.352 236.227 364.174 233.844 363.819 231.47Z" fill="#FF455D"/>
<path d="M348.47 242.6C346.159 241.263 344.278 237.301 344.278 233.75C344.278 230.199 346.15 228.396 348.47 229.723C350.782 231.059 352.654 235.021 352.654 238.572C352.654 242.132 350.782 243.936 348.47 242.6ZM357.96 234.834C355.985 221.434 348.77 208.164 340.169 203.211C336.183 200.913 332.505 200.744 329.5 202.324C329.397 202.38 329.285 202.436 329.192 202.511C328.948 202.641 328.714 202.8 328.48 202.959C328.04 203.268 327.61 203.613 327.208 204.006C327.151 204.052 327.095 204.118 327.02 204.183C326.843 204.361 326.674 204.548 326.515 204.744C326.309 204.978 326.113 205.211 325.925 205.464C325.542 205.968 325.177 206.52 324.849 207.118C324.69 207.407 324.522 207.716 324.372 208.033C323.576 209.669 322.94 211.566 322.519 213.724L270.307 183.615V187.344L270.803 187.634L271.261 187.905V188.69L270.297 189.25V191.418L277.382 206.389L284.382 210.435L286.712 207.622L292.889 211.313L296.436 217.387L300.339 219.64L305.233 215.304L311.251 218.771L313.272 227.087L323.342 232.89C323.848 235.021 324.494 237.105 325.252 239.142C325.317 239.357 325.392 239.563 325.486 239.796C328.836 248.59 334.161 256.112 340.169 259.579C340.937 260.018 341.685 260.383 342.434 260.663C342.855 260.841 343.276 260.972 343.698 261.084C344.072 261.186 344.446 261.28 344.821 261.336C346.065 261.56 347.263 261.551 348.386 261.327C348.545 261.289 348.714 261.252 348.873 261.214C349.107 261.168 349.331 261.102 349.556 261.009C349.725 260.943 349.902 260.878 350.08 260.803C350.267 260.738 350.445 260.654 350.623 260.551C350.791 260.476 350.96 260.392 351.119 260.289C351.203 260.243 351.287 260.196 351.372 260.149C351.409 260.14 351.447 260.112 351.484 260.084C355.752 257.392 358.494 250.963 358.494 241.964C358.494 239.6 358.306 237.217 357.96 234.834Z" fill="#FF455D"/>
<path opacity="0.4" d="M352.654 238.572C352.654 242.123 350.782 243.936 348.471 242.6C346.15 241.263 344.278 237.31 344.278 233.75C344.278 230.199 346.15 228.386 348.471 229.723C349.088 230.078 349.678 230.62 350.183 231.292C350.389 233.629 351.325 236.03 352.607 237.666C352.644 237.974 352.654 238.282 352.654 238.572Z" fill="black"/>
<path opacity="0.4" d="M364.352 238.563C364.352 247.786 361.47 254.309 357.015 256.879C356.117 257.383 352.822 259.289 351.484 260.056C355.752 257.364 358.494 250.935 358.494 241.936C358.494 239.591 358.297 237.208 357.951 234.825C355.976 221.424 348.761 208.155 340.16 203.202C336.173 200.903 332.495 200.735 329.491 202.314C330.801 201.567 334.114 199.651 335.013 199.137C338.073 197.352 341.891 197.436 346.019 199.819C354.619 204.772 361.835 218.042 363.81 231.451C364.175 233.844 364.352 236.227 364.352 238.563Z" fill="white"/>
<path d="M358.494 241.946C358.494 250.945 355.752 257.374 351.484 260.065C352.822 259.299 356.126 257.392 357.015 256.888C361.47 254.309 364.352 247.786 364.352 238.572C364.352 238.236 364.343 237.89 364.334 237.544C362.321 238.703 360.281 239.88 358.475 240.918C358.484 241.263 358.494 241.609 358.494 241.946Z" fill="#FF455D"/>
<path opacity="0.1" d="M358.494 241.946C358.494 250.945 355.752 257.374 351.484 260.065C352.822 259.299 356.126 257.392 357.015 256.888C361.47 254.309 364.352 247.786 364.352 238.572C364.352 238.236 364.343 237.89 364.334 237.544C362.321 238.703 360.281 239.88 358.475 240.918C358.484 241.263 358.494 241.609 358.494 241.946Z" fill="black"/>
<path opacity="0.15" d="M322.725 217.556V219.462L270.297 189.232L271.261 188.68V187.886L322.725 217.556Z" fill="black"/>
<path opacity="0.15" d="M322.725 218.341V219.462L270.297 189.232L271.261 188.68V188.671L322.725 218.341Z" fill="black"/>
<path opacity="0.15" d="M347.768 256.12C355.076 253.881 357.598 240.994 353.4 227.337C349.203 213.68 339.876 204.424 332.567 206.664C325.259 208.903 322.738 221.79 326.935 235.447C331.133 249.104 340.46 258.36 347.768 256.12Z" stroke="black" stroke-miterlimit="10"/>
<path opacity="0.4" d="M324.373 208.024C323.577 209.659 322.941 211.556 322.52 213.715L270.308 183.606L276.166 180.233L324.373 208.024Z" fill="white"/>
<path d="M392.194 210.949C394.936 205.781 398.053 194.175 399.606 188.316C401.815 179.999 398.24 174.766 394.188 174.551C391.642 174.934 383.294 205.286 383.294 205.286C382.368 206.024 369.658 212.453 365.569 214.07C364.848 214.36 364.043 214.341 363.304 214.079C361.339 213.369 360.01 213.5 358.091 213.304C356.584 213.154 355.826 212.622 355.639 212.939C355.396 213.351 355.284 214.388 356.378 215.154C356.931 215.537 357.838 215.883 358.999 216.294C358.999 216.294 356.828 217.042 353.936 216.986C350.015 216.902 348.592 218.602 351.643 222.574C353.552 225.06 356.622 225.844 363.529 223.462C365.522 222.77 368.217 221.434 370.725 220.527C375.919 218.64 377.248 218.443 381.235 217.098C386.972 215.173 390.978 213.248 392.194 210.949Z" fill="#FFA8A7"/>
<path d="M392.643 173.766C395.03 174.093 397.351 174.635 398.736 176.56C400.121 178.485 401.281 181.205 399.896 188.671C398.511 196.137 395.647 204.062 395.647 204.062C395.647 204.062 390.088 206.435 384.183 200.417L388.245 184.737C388.245 184.737 388.937 174.551 392.643 173.766Z" fill="#F72B4D"/>
</g>
<defs>
<radialGradient id="paint0_radial" cx="0" cy="0" r="1" gradientUnits="userSpaceOnUse" gradientTransform="translate(220.865 291.089) rotate(90.1539) scale(135.92 235.77)">
<stop stop-color="#BE979E"/>
<stop offset="1" stop-color="#DAD9D9" stop-opacity="0"/>
</radialGradient>
<clipPath id="clip0">
<rect width="441" height="427" fill="white"/>
</clipPath>
</defs>
</svg>
