<svg width="49" height="49" viewBox="0 0 49 49" fill="none" xmlns="http://www.w3.org/2000/svg">
<path d="M43.5555 5.44446H5.44439C4.72241 5.44446 4.03 5.73126 3.51949 6.24178C3.00897 6.75229 2.72217 7.4447 2.72217 8.16668V40.8334C2.72217 41.5553 3.00897 42.2477 3.51949 42.7583C4.03 43.2688 4.72241 43.5556 5.44439 43.5556H43.5555C44.2775 43.5556 44.9699 43.2688 45.4804 42.7583C45.9909 42.2477 46.2777 41.5553 46.2777 40.8334V8.16668C46.2777 7.4447 45.9909 6.75229 45.4804 6.24178C44.9699 5.73126 44.2775 5.44446 43.5555 5.44446ZM5.44439 40.8334V8.16668H43.5555V40.8334H5.44439Z" fill="white"/>
<path d="M12.1411 19.0556C12.9487 19.0556 13.7382 18.8161 14.4097 18.3674C15.0812 17.9187 15.6045 17.281 15.9136 16.5349C16.2226 15.7887 16.3035 14.9677 16.1459 14.1756C15.9884 13.3835 15.5995 12.656 15.0284 12.0849C14.4574 11.5138 13.7298 11.1249 12.9377 10.9674C12.1456 10.8098 11.3246 10.8907 10.5784 11.1997C9.83232 11.5088 9.19459 12.0322 8.7459 12.7037C8.29722 13.3752 8.05774 14.1646 8.05774 14.9723C8.05774 16.0552 8.48795 17.0938 9.25372 17.8596C10.0195 18.6254 11.0581 19.0556 12.1411 19.0556ZM12.1411 12.7945C12.5724 12.7918 12.9947 12.9172 13.3547 13.1549C13.7146 13.3925 13.9958 13.7317 14.1628 14.1294C14.3297 14.5271 14.3747 14.9654 14.2923 15.3887C14.2098 15.8121 14.0034 16.2014 13.6994 16.5073C13.3954 16.8132 13.0074 17.022 12.5846 17.1071C12.1618 17.1923 11.7232 17.1499 11.3245 16.9855C10.9257 16.8211 10.5848 16.542 10.3449 16.1836C10.105 15.8251 9.97691 15.4036 9.97691 14.9723C9.98048 14.3994 10.2096 13.851 10.6147 13.4459C11.0198 13.0408 11.5682 12.8117 12.1411 12.8081V12.7945Z" fill="white"/>
<path d="M31.0061 20.9203L23.6561 28.2703L18.2116 22.8258C17.9566 22.5723 17.6116 22.43 17.252 22.43C16.8925 22.43 16.5475 22.5723 16.2925 22.8258L8.05774 31.1694V35.0214L17.2997 25.7794L21.7777 30.1894L16.6736 35.2936H20.4166L31.918 23.7922L40.8333 32.6667V28.8283L32.9252 20.9203C32.6702 20.6668 32.3252 20.5245 31.9657 20.5245C31.6061 20.5245 31.2611 20.6668 31.0061 20.9203Z" fill="white"/>
</svg>
