<svg width="44" height="44" viewBox="0 0 44 44" fill="none" xmlns="http://www.w3.org/2000/svg">
<path d="M34.8333 27.5V7.33333C34.832 7.05796 34.7687 6.78641 34.6481 6.53884C34.5275 6.29128 34.3527 6.07407 34.1366 5.90333C33.9236 5.73104 33.6747 5.60867 33.4082 5.54522C33.1417 5.48176 32.8644 5.47884 32.5966 5.53667L16.0966 9.20334C15.6893 9.29519 15.3255 9.52335 15.0655 9.85006C14.8054 10.1768 14.6647 10.5824 14.6666 11V26.29C13.415 25.6992 12.0056 25.53 10.6498 25.8081C9.29402 26.0861 8.06491 26.7962 7.14689 27.8319C6.22886 28.8677 5.67142 30.1731 5.5582 31.5525C5.44497 32.9319 5.78206 34.3108 6.5189 35.4824C7.25573 36.654 8.35259 37.555 9.64491 38.0504C10.9372 38.5458 12.3553 38.6088 13.6865 38.2299C15.0177 37.8511 16.1901 37.0508 17.0279 35.9492C17.8657 34.8476 18.3237 33.504 18.3333 32.12C18.3522 31.8025 18.3522 31.4842 18.3333 31.1667V12.4667L31.1666 9.625V22.6233C29.9143 22.0321 28.5041 21.8632 27.1476 22.1418C25.7911 22.4204 24.5616 23.1316 23.6438 24.1686C22.726 25.2055 22.1694 26.5123 22.0575 27.8926C21.9457 29.2729 22.2847 30.6522 23.0236 31.8234C23.7626 32.9945 24.8615 33.8944 26.1554 34.3878C27.4494 34.8811 28.8685 34.9414 30.1996 34.5595C31.5307 34.1775 32.7019 33.3741 33.5375 32.2697C34.373 31.1654 34.8277 29.8198 34.8333 28.435C34.8507 28.1236 34.8507 27.8114 34.8333 27.5Z" fill="white"/>
</svg>
