<svg width="50" height="50" viewBox="0 0 50 50" fill="none" xmlns="http://www.w3.org/2000/svg">
<circle cx="25" cy="25" r="25" fill="#FF455D"/>
<path d="M25.5 24.6389C26.6922 24.6389 27.8576 24.2854 28.8488 23.623C29.8401 22.9607 30.6127 22.0193 31.0689 20.9178C31.5252 19.8164 31.6445 18.6044 31.4119 17.4352C31.1794 16.2659 30.6053 15.1918 29.7623 14.3488C28.9193 13.5058 27.8452 12.9317 26.6759 12.6992C25.5067 12.4666 24.2947 12.5859 23.1933 13.0422C22.0918 13.4984 21.1504 14.271 20.4881 15.2623C19.8257 16.2535 19.4722 17.4189 19.4722 18.6111C19.4722 20.2098 20.1073 21.743 21.2377 22.8734C22.3681 24.0038 23.9013 24.6389 25.5 24.6389ZM25.5 14.3056C26.3515 14.3056 27.184 14.5581 27.892 15.0312C28.6001 15.5043 29.1519 16.1767 29.4778 16.9634C29.8037 17.7502 29.8889 18.6159 29.7228 19.4511C29.5567 20.2863 29.1466 21.0535 28.5445 21.6556C27.9423 22.2577 27.1752 22.6678 26.34 22.8339C25.5048 23.0001 24.6391 22.9148 23.8523 22.5889C23.0656 22.263 22.3931 21.7112 21.92 21.0032C21.4469 20.2951 21.1944 19.4627 21.1944 18.6111C21.1944 17.4692 21.648 16.3741 22.4555 15.5666C23.2629 14.7592 24.3581 14.3056 25.5 14.3056V14.3056Z" fill="white"/>
<path d="M36.2381 30.9853C34.8571 29.5257 33.193 28.3631 31.3474 27.5686C29.5019 26.774 27.5136 26.3642 25.5043 26.3642C23.495 26.3642 21.5068 26.774 19.6612 27.5686C17.8156 28.3631 16.1515 29.5257 14.7706 30.9853C14.4712 31.3051 14.3049 31.7269 14.3056 32.165V36.6945C14.3056 37.1512 14.487 37.5893 14.81 37.9123C15.133 38.2352 15.571 38.4167 16.0278 38.4167H34.9722C35.429 38.4167 35.867 38.2352 36.19 37.9123C36.513 37.5893 36.6944 37.1512 36.6944 36.6945V32.165C36.6975 31.7281 36.5343 31.3064 36.2381 30.9853V30.9853ZM34.9722 36.6945H16.0278V32.1564C17.2482 30.8714 18.7173 29.8481 20.3457 29.1488C21.9741 28.4495 23.7278 28.0889 25.5 28.0889C27.2722 28.0889 29.0259 28.4495 30.6543 29.1488C32.2827 29.8481 33.7518 30.8714 34.9722 32.1564V36.6945Z" fill="white"/>
</svg>
