<svg width="44" height="44" viewBox="0 0 44 44" fill="none" xmlns="http://www.w3.org/2000/svg">
<circle cx="22" cy="22" r="22" fill="#FF455D"/>
<path d="M31.5625 35.1875H29.75V32.4688C29.7486 31.2674 29.2707 30.1157 28.4212 29.2663C27.5718 28.4168 26.4201 27.9389 25.2188 27.9375H19.7812C18.5799 27.9389 17.4282 28.4168 16.5788 29.2663C15.7293 30.1157 15.2514 31.2674 15.25 32.4688V35.1875H13.4375V32.4688C13.4394 30.7869 14.1084 29.1744 15.2977 27.9852C16.4869 26.7959 18.0994 26.1269 19.7812 26.125H25.2188C26.9006 26.1269 28.5131 26.7959 29.7023 27.9852C30.8916 29.1744 31.5606 30.7869 31.5625 32.4688V35.1875Z" fill="white"/>
<path d="M12.5312 13.4375C12.2909 13.4375 12.0604 13.533 11.8904 13.7029C11.7205 13.8729 11.625 14.1034 11.625 14.3438V22.5H13.4375V14.3438C13.4375 14.1034 13.342 13.8729 13.1721 13.7029C13.0021 13.533 12.7716 13.4375 12.5312 13.4375Z" fill="white"/>
<path d="M11.625 9.8125V11.625H16.1562V17.9688C16.1562 19.6512 16.8246 21.2648 18.0143 22.4545C19.204 23.6441 20.8175 24.3125 22.5 24.3125C24.1825 24.3125 25.796 23.6441 26.9857 22.4545C28.1754 21.2648 28.8438 19.6512 28.8438 17.9688V11.625H33.375V9.8125H11.625ZM17.9688 11.625H27.0312V14.3438H17.9688V11.625ZM22.5 22.5C21.2982 22.5 20.1457 22.0226 19.2959 21.1728C18.4461 20.3231 17.9688 19.1705 17.9688 17.9688V16.1562H27.0312V17.9688C27.0312 19.1705 26.5539 20.3231 25.7041 21.1728C24.8543 22.0226 23.7018 22.5 22.5 22.5Z" fill="white"/>
</svg>
