<svg width="30" height="30" viewBox="0 0 30 30" fill="none" xmlns="http://www.w3.org/2000/svg">
<path d="M15 1.875C12.4041 1.875 9.86654 2.64477 7.70815 4.08696C5.54975 5.52916 3.86749 7.579 2.87409 9.97728C1.88069 12.3756 1.62077 15.0146 2.1272 17.5606C2.63363 20.1066 3.88367 22.4452 5.71923 24.2808C7.55479 26.1163 9.89345 27.3664 12.4394 27.8728C14.9854 28.3792 17.6244 28.1193 20.0227 27.1259C22.421 26.1325 24.4709 24.4503 25.913 22.2919C27.3552 20.1335 28.125 17.5959 28.125 15C28.125 11.519 26.7422 8.18064 24.2808 5.71922C21.8194 3.25781 18.481 1.875 15 1.875ZM22.5 23.3616V22.7916C22.5261 21.5132 22.0497 20.2756 21.1732 19.3446C20.2968 18.4136 19.0901 17.8635 17.8125 17.8125H12.1875C10.911 17.8638 9.70557 18.4141 8.83068 19.3451C7.95579 20.2761 7.48133 21.5134 7.50938 22.7906C7.50938 22.8009 7.50001 22.8113 7.50001 22.8216V23.37C5.79929 21.8519 4.5997 19.8531 4.06 17.6382C3.52031 15.4233 3.66596 13.0967 4.47769 10.9664C5.28941 8.83608 6.72893 7.0025 8.60571 5.70835C10.4825 4.41421 12.708 3.72051 14.9877 3.71909C17.2674 3.71766 19.4938 4.40858 21.3722 5.70038C23.2506 6.99218 24.6924 8.82395 25.5068 10.9532C26.3212 13.0825 26.4698 15.4089 25.9328 17.6245C25.3959 19.8401 24.1988 21.8404 22.5 23.3606V23.3616Z" fill="white"/>
<path d="M15 6.5625C14.0729 6.5625 13.1666 6.83742 12.3958 7.35249C11.6249 7.86756 11.0241 8.59964 10.6693 9.45617C10.3145 10.3127 10.2217 11.2552 10.4026 12.1645C10.5834 13.0738 11.0299 13.909 11.6854 14.5646C12.341 15.2201 13.1762 15.6666 14.0855 15.8474C14.9948 16.0283 15.9373 15.9355 16.7938 15.5807C17.6504 15.2259 18.3825 14.6251 18.8975 13.8542C19.4126 13.0834 19.6875 12.1771 19.6875 11.25C19.6875 10.0068 19.1936 8.81451 18.3146 7.93544C17.4355 7.05636 16.2432 6.5625 15 6.5625Z" fill="white"/>
</svg>
