<svg width="36" height="37" viewBox="0 0 36 37" fill="none" xmlns="http://www.w3.org/2000/svg">
<circle cx="18" cy="18.2893" r="18" fill="#FF455D"/>
<path d="M18 5.16431C15.4041 5.16431 12.8665 5.93407 10.7081 7.37627C8.54975 8.81846 6.86748 10.8683 5.87408 13.2666C4.88068 15.6649 4.62077 18.3039 5.1272 20.8499C5.63363 23.3959 6.88366 25.7345 8.71923 27.5701C10.5548 29.4056 12.8934 30.6557 15.4394 31.1621C17.9854 31.6685 20.6244 31.4086 23.0227 30.4152C25.421 29.4218 27.4708 27.7396 28.913 25.5812C30.3552 23.4228 31.125 20.8852 31.125 18.2893C31.125 14.8083 29.7422 11.4699 27.2808 9.00853C24.8194 6.54712 21.481 5.16431 18 5.16431V5.16431ZM25.5 26.6509V26.0809C25.5261 24.8025 25.0497 23.5649 24.1732 22.6339C23.2968 21.7029 22.0901 21.1528 20.8125 21.1018H15.1875C13.911 21.1531 12.7056 21.7034 11.8307 22.6344C10.9558 23.5654 10.4813 24.8027 10.5094 26.0799C10.5094 26.0902 10.5 26.1006 10.5 26.1109V26.6593C8.79929 25.1412 7.59969 23.1424 7.06 20.9275C6.52031 18.7126 6.66596 16.386 7.47769 14.2557C8.28941 12.1254 9.72893 10.2918 11.6057 8.99766C13.4825 7.70351 15.708 7.00982 17.9877 7.00839C20.2674 7.00697 22.4938 7.69788 24.3722 8.98968C26.2506 10.2815 27.6924 12.1133 28.5068 14.2425C29.3212 16.3718 29.4698 18.6982 28.9328 20.9138C28.3959 23.1294 27.1988 25.1297 25.5 26.6499V26.6509Z" fill="white"/>
<path d="M18 9.85181C17.0729 9.85181 16.1666 10.1267 15.3958 10.6418C14.6249 11.1569 14.0241 11.8889 13.6693 12.7455C13.3145 13.602 13.2217 14.5445 13.4026 15.4538C13.5834 16.3631 14.0299 17.1983 14.6854 17.8539C15.341 18.5094 16.1762 18.9559 17.0855 19.1367C17.9948 19.3176 18.9373 19.2248 19.7938 18.87C20.6504 18.5152 21.3825 17.9144 21.8975 17.1435C22.4126 16.3727 22.6875 15.4664 22.6875 14.5393C22.6875 13.2961 22.1936 12.1038 21.3146 11.2247C20.4355 10.3457 19.2432 9.85181 18 9.85181V9.85181Z" fill="white"/>
</svg>
