<svg width="38" height="39" viewBox="0 0 38 39" fill="none" xmlns="http://www.w3.org/2000/svg">
<path fill-rule="evenodd" clip-rule="evenodd" d="M19 0.0947266C24.0391 0.0947266 28.8718 2.0965 32.435 5.6597C35.9982 9.22289 38 14.0556 38 19.0947C38 24.1338 35.9982 28.9666 32.435 32.5298C28.8718 36.0929 24.0391 38.0947 19 38.0947C13.9609 38.0947 9.12816 36.0929 5.56497 32.5298C2.00178 28.9666 0 24.1338 0 19.0947C0 14.0556 2.00178 9.22289 5.56497 5.6597C9.12816 2.0965 13.9609 0.0947266 19 0.0947266ZM25.2843 18.254C25.5072 18.031 25.8097 17.9057 26.125 17.9057C26.4403 17.9057 26.7428 18.031 26.9657 18.254C27.1887 18.477 27.314 18.7794 27.314 19.0947C27.314 19.4101 27.1887 19.7125 26.9657 19.9355L19.8407 27.0605C19.7304 27.1711 19.5994 27.2588 19.4551 27.3187C19.3109 27.3785 19.1562 27.4093 19 27.4093C18.8438 27.4093 18.6891 27.3785 18.5449 27.3187C18.4006 27.2588 18.2696 27.1711 18.1593 27.0605L11.0343 19.9355C10.9238 19.8251 10.8363 19.694 10.7765 19.5497C10.7168 19.4055 10.686 19.2509 10.686 19.0947C10.686 18.9386 10.7168 18.784 10.7765 18.6397C10.8363 18.4955 10.9238 18.3644 11.0343 18.254C11.1447 18.1436 11.2757 18.056 11.42 17.9962C11.5642 17.9365 11.7189 17.9057 11.875 17.9057C12.0311 17.9057 12.1858 17.9365 12.33 17.9962C12.4743 18.056 12.6053 18.1436 12.7157 18.254L17.8125 23.3531V11.9697C17.8125 11.6548 17.9376 11.3527 18.1603 11.13C18.383 10.9073 18.6851 10.7822 19 10.7822C19.3149 10.7822 19.617 10.9073 19.8397 11.13C20.0624 11.3527 20.1875 11.6548 20.1875 11.9697V23.3531L25.2843 18.254Z" fill="#9E9E9E"/>
</svg>
